M48
; DRILL file {KiCad (5.1.12)-1} date 08/07/24 21:15:03
; FORMAT={-:-/ absolute / metric / decimal}
; #@! TF.CreationDate,2024-08-07T21:15:03+08:00
; #@! TF.GenerationSoftware,Kicad,Pcbnew,(5.1.12)-1
; #@! TF.FileFunction,Plated,1,2,PTH
FMAT,2
METRIC
T1C0.400
T2C0.600
T3C1.500
%
G90
G05
T1
X141.075Y-112.075
X143.343Y-108.633
X143.671Y-112.118
X146.642Y-113.346
X146.955Y-85.437
X147.518Y-82.904
X148.5Y-116.0
X150.359Y-84.5
X151.0Y-116.0
X151.25Y-82.921
X153.404Y-105.371
X156.88Y-109.639
T3
X135.65Y-90.54
X142.0Y-88.0
X156.65Y-90.54
X163.0Y-88.0
T2
G00X145.68Y-75.725
M15
G01X145.68Y-75.125
M16
G05
G00X145.68Y-80.155
M15
G01X145.68Y-79.055
M16
G05
G00X154.32Y-75.725
M15
G01X154.32Y-75.125
M16
G05
G00X154.32Y-80.155
M15
G01X154.32Y-79.055
M16
G05
T0
M30
