%TF.GenerationSoftware,KiCad,Pcbnew,(5.1.12)-1*%
%TF.CreationDate,2024-08-07T21:15:05+08:00*%
%TF.ProjectId,BKL2xP,424b4c32-7850-42e6-9b69-6361645f7063,1.0*%
%TF.SameCoordinates,Original*%
%TF.FileFunction,Legend,Top*%
%TF.FilePolarity,Positive*%
%FSLAX46Y46*%
G04 Gerber Fmt 4.6, Leading zero omitted, Abs format (unit mm)*
G04 Created by KiCad (PCBNEW (5.1.12)-1) date 2024-08-07 21:15:05*
%MOMM*%
%LPD*%
G01*
G04 APERTURE LIST*
%ADD10C,0.120000*%
%ADD11C,0.150000*%
G04 APERTURE END LIST*
D10*
X146545563Y-105890000D02*
G75*
G03*
X146545563Y-105890000I-155563J0D01*
G01*
%TO.C,TP6*%
X167950000Y-114250000D02*
G75*
G03*
X167950000Y-114250000I-700000J0D01*
G01*
%TO.C,TP5*%
X164700000Y-114250000D02*
G75*
G03*
X164700000Y-114250000I-700000J0D01*
G01*
%TO.C,TP4*%
X161450000Y-114250000D02*
G75*
G03*
X161450000Y-114250000I-700000J0D01*
G01*
%TO.C,TP3*%
X167950000Y-106750000D02*
G75*
G03*
X167950000Y-106750000I-700000J0D01*
G01*
%TO.C,TP2*%
X164700000Y-106750000D02*
G75*
G03*
X164700000Y-106750000I-700000J0D01*
G01*
%TO.C,TP1*%
X161700000Y-106750000D02*
G75*
G03*
X161700000Y-106750000I-700000J0D01*
G01*
%TO.C,R6*%
X142380000Y-112643641D02*
X142380000Y-112336359D01*
X141620000Y-112643641D02*
X141620000Y-112336359D01*
%TO.C,R5*%
X149586359Y-115380000D02*
X149893641Y-115380000D01*
X149586359Y-114620000D02*
X149893641Y-114620000D01*
%TO.C,C1*%
X144860000Y-109607836D02*
X144860000Y-109392164D01*
X144140000Y-109607836D02*
X144140000Y-109392164D01*
%TO.C,C2*%
X156360000Y-111892164D02*
X156360000Y-112107836D01*
X155640000Y-111892164D02*
X155640000Y-112107836D01*
%TO.C,C4*%
X151857836Y-115360000D02*
X151642164Y-115360000D01*
X151857836Y-114640000D02*
X151642164Y-114640000D01*
%TO.C,C5*%
X147857836Y-114640000D02*
X147642164Y-114640000D01*
X147857836Y-115360000D02*
X147642164Y-115360000D01*
%TO.C,C6*%
X141640000Y-109607836D02*
X141640000Y-109392164D01*
X142360000Y-109607836D02*
X142360000Y-109392164D01*
%TO.C,J1*%
X154580000Y-78350000D02*
X154580000Y-76430000D01*
X145420000Y-76430000D02*
X145420000Y-78350000D01*
X145420000Y-74420000D02*
X145420000Y-72715000D01*
X154580000Y-72715000D02*
X154580000Y-74420000D01*
X145420000Y-72715000D02*
X154580000Y-72715000D01*
%TO.C,R3*%
X144643641Y-105620000D02*
X144336359Y-105620000D01*
X144643641Y-106380000D02*
X144336359Y-106380000D01*
%TO.C,R4*%
X141653641Y-106380000D02*
X141346359Y-106380000D01*
X141653641Y-105620000D02*
X141346359Y-105620000D01*
%TO.C,SW1*%
X132475000Y-100065000D02*
X132475000Y-86095000D01*
X146445000Y-100065000D02*
X132475000Y-100065000D01*
X146445000Y-86095000D02*
X146445000Y-100065000D01*
X132475000Y-86095000D02*
X146445000Y-86095000D01*
%TO.C,SW2*%
X153475000Y-86095000D02*
X167445000Y-86095000D01*
X167445000Y-86095000D02*
X167445000Y-100065000D01*
X167445000Y-100065000D02*
X153475000Y-100065000D01*
X153475000Y-100065000D02*
X153475000Y-86095000D01*
%TO.C,U1*%
X152885000Y-105890000D02*
X153610000Y-105890000D01*
X153610000Y-105890000D02*
X153610000Y-106615000D01*
X147115000Y-113110000D02*
X146390000Y-113110000D01*
X146390000Y-113110000D02*
X146390000Y-112385000D01*
X152885000Y-113110000D02*
X153610000Y-113110000D01*
X153610000Y-113110000D02*
X153610000Y-112385000D01*
X147115000Y-105890000D02*
X146390000Y-105890000D01*
%TO.C,TP6*%
D11*
X165988095Y-112254380D02*
X166559523Y-112254380D01*
X166273809Y-113254380D02*
X166273809Y-112254380D01*
X166892857Y-113254380D02*
X166892857Y-112254380D01*
X167273809Y-112254380D01*
X167369047Y-112302000D01*
X167416666Y-112349619D01*
X167464285Y-112444857D01*
X167464285Y-112587714D01*
X167416666Y-112682952D01*
X167369047Y-112730571D01*
X167273809Y-112778190D01*
X166892857Y-112778190D01*
X168321428Y-112254380D02*
X168130952Y-112254380D01*
X168035714Y-112302000D01*
X167988095Y-112349619D01*
X167892857Y-112492476D01*
X167845238Y-112682952D01*
X167845238Y-113063904D01*
X167892857Y-113159142D01*
X167940476Y-113206761D01*
X168035714Y-113254380D01*
X168226190Y-113254380D01*
X168321428Y-113206761D01*
X168369047Y-113159142D01*
X168416666Y-113063904D01*
X168416666Y-112825809D01*
X168369047Y-112730571D01*
X168321428Y-112682952D01*
X168226190Y-112635333D01*
X168035714Y-112635333D01*
X167940476Y-112682952D01*
X167892857Y-112730571D01*
X167845238Y-112825809D01*
X166702380Y-116252380D02*
X166369047Y-115776190D01*
X166130952Y-116252380D02*
X166130952Y-115252380D01*
X166511904Y-115252380D01*
X166607142Y-115300000D01*
X166654761Y-115347619D01*
X166702380Y-115442857D01*
X166702380Y-115585714D01*
X166654761Y-115680952D01*
X166607142Y-115728571D01*
X166511904Y-115776190D01*
X166130952Y-115776190D01*
X167083333Y-116204761D02*
X167226190Y-116252380D01*
X167464285Y-116252380D01*
X167559523Y-116204761D01*
X167607142Y-116157142D01*
X167654761Y-116061904D01*
X167654761Y-115966666D01*
X167607142Y-115871428D01*
X167559523Y-115823809D01*
X167464285Y-115776190D01*
X167273809Y-115728571D01*
X167178571Y-115680952D01*
X167130952Y-115633333D01*
X167083333Y-115538095D01*
X167083333Y-115442857D01*
X167130952Y-115347619D01*
X167178571Y-115300000D01*
X167273809Y-115252380D01*
X167511904Y-115252380D01*
X167654761Y-115300000D01*
X167940476Y-115252380D02*
X168511904Y-115252380D01*
X168226190Y-116252380D02*
X168226190Y-115252380D01*
%TO.C,TP5*%
X162738095Y-112254380D02*
X163309523Y-112254380D01*
X163023809Y-113254380D02*
X163023809Y-112254380D01*
X163642857Y-113254380D02*
X163642857Y-112254380D01*
X164023809Y-112254380D01*
X164119047Y-112302000D01*
X164166666Y-112349619D01*
X164214285Y-112444857D01*
X164214285Y-112587714D01*
X164166666Y-112682952D01*
X164119047Y-112730571D01*
X164023809Y-112778190D01*
X163642857Y-112778190D01*
X165119047Y-112254380D02*
X164642857Y-112254380D01*
X164595238Y-112730571D01*
X164642857Y-112682952D01*
X164738095Y-112635333D01*
X164976190Y-112635333D01*
X165071428Y-112682952D01*
X165119047Y-112730571D01*
X165166666Y-112825809D01*
X165166666Y-113063904D01*
X165119047Y-113159142D01*
X165071428Y-113206761D01*
X164976190Y-113254380D01*
X164738095Y-113254380D01*
X164642857Y-113206761D01*
X164595238Y-113159142D01*
X162428571Y-116252380D02*
X162428571Y-115252380D01*
X162761904Y-115966666D01*
X163095238Y-115252380D01*
X163095238Y-116252380D01*
X163571428Y-116252380D02*
X163571428Y-115252380D01*
X164000000Y-116204761D02*
X164142857Y-116252380D01*
X164380952Y-116252380D01*
X164476190Y-116204761D01*
X164523809Y-116157142D01*
X164571428Y-116061904D01*
X164571428Y-115966666D01*
X164523809Y-115871428D01*
X164476190Y-115823809D01*
X164380952Y-115776190D01*
X164190476Y-115728571D01*
X164095238Y-115680952D01*
X164047619Y-115633333D01*
X164000000Y-115538095D01*
X164000000Y-115442857D01*
X164047619Y-115347619D01*
X164095238Y-115300000D01*
X164190476Y-115252380D01*
X164428571Y-115252380D01*
X164571428Y-115300000D01*
X165190476Y-115252380D02*
X165380952Y-115252380D01*
X165476190Y-115300000D01*
X165571428Y-115395238D01*
X165619047Y-115585714D01*
X165619047Y-115919047D01*
X165571428Y-116109523D01*
X165476190Y-116204761D01*
X165380952Y-116252380D01*
X165190476Y-116252380D01*
X165095238Y-116204761D01*
X165000000Y-116109523D01*
X164952380Y-115919047D01*
X164952380Y-115585714D01*
X165000000Y-115395238D01*
X165095238Y-115300000D01*
X165190476Y-115252380D01*
%TO.C,TP4*%
X159488095Y-112254380D02*
X160059523Y-112254380D01*
X159773809Y-113254380D02*
X159773809Y-112254380D01*
X160392857Y-113254380D02*
X160392857Y-112254380D01*
X160773809Y-112254380D01*
X160869047Y-112302000D01*
X160916666Y-112349619D01*
X160964285Y-112444857D01*
X160964285Y-112587714D01*
X160916666Y-112682952D01*
X160869047Y-112730571D01*
X160773809Y-112778190D01*
X160392857Y-112778190D01*
X161821428Y-112587714D02*
X161821428Y-113254380D01*
X161583333Y-112206761D02*
X161345238Y-112921047D01*
X161964285Y-112921047D01*
X159178571Y-116252380D02*
X159178571Y-115252380D01*
X159511904Y-115966666D01*
X159845238Y-115252380D01*
X159845238Y-116252380D01*
X160511904Y-115252380D02*
X160702380Y-115252380D01*
X160797619Y-115300000D01*
X160892857Y-115395238D01*
X160940476Y-115585714D01*
X160940476Y-115919047D01*
X160892857Y-116109523D01*
X160797619Y-116204761D01*
X160702380Y-116252380D01*
X160511904Y-116252380D01*
X160416666Y-116204761D01*
X160321428Y-116109523D01*
X160273809Y-115919047D01*
X160273809Y-115585714D01*
X160321428Y-115395238D01*
X160416666Y-115300000D01*
X160511904Y-115252380D01*
X161321428Y-116204761D02*
X161464285Y-116252380D01*
X161702380Y-116252380D01*
X161797619Y-116204761D01*
X161845238Y-116157142D01*
X161892857Y-116061904D01*
X161892857Y-115966666D01*
X161845238Y-115871428D01*
X161797619Y-115823809D01*
X161702380Y-115776190D01*
X161511904Y-115728571D01*
X161416666Y-115680952D01*
X161369047Y-115633333D01*
X161321428Y-115538095D01*
X161321428Y-115442857D01*
X161369047Y-115347619D01*
X161416666Y-115300000D01*
X161511904Y-115252380D01*
X161750000Y-115252380D01*
X161892857Y-115300000D01*
X162321428Y-116252380D02*
X162321428Y-115252380D01*
%TO.C,TP3*%
X165988095Y-104754380D02*
X166559523Y-104754380D01*
X166273809Y-105754380D02*
X166273809Y-104754380D01*
X166892857Y-105754380D02*
X166892857Y-104754380D01*
X167273809Y-104754380D01*
X167369047Y-104802000D01*
X167416666Y-104849619D01*
X167464285Y-104944857D01*
X167464285Y-105087714D01*
X167416666Y-105182952D01*
X167369047Y-105230571D01*
X167273809Y-105278190D01*
X166892857Y-105278190D01*
X167797619Y-104754380D02*
X168416666Y-104754380D01*
X168083333Y-105135333D01*
X168226190Y-105135333D01*
X168321428Y-105182952D01*
X168369047Y-105230571D01*
X168416666Y-105325809D01*
X168416666Y-105563904D01*
X168369047Y-105659142D01*
X168321428Y-105706761D01*
X168226190Y-105754380D01*
X167940476Y-105754380D01*
X167845238Y-105706761D01*
X167797619Y-105659142D01*
X165964285Y-108704761D02*
X166107142Y-108752380D01*
X166345238Y-108752380D01*
X166440476Y-108704761D01*
X166488095Y-108657142D01*
X166535714Y-108561904D01*
X166535714Y-108466666D01*
X166488095Y-108371428D01*
X166440476Y-108323809D01*
X166345238Y-108276190D01*
X166154761Y-108228571D01*
X166059523Y-108180952D01*
X166011904Y-108133333D01*
X165964285Y-108038095D01*
X165964285Y-107942857D01*
X166011904Y-107847619D01*
X166059523Y-107800000D01*
X166154761Y-107752380D01*
X166392857Y-107752380D01*
X166535714Y-107800000D01*
X167535714Y-108657142D02*
X167488095Y-108704761D01*
X167345238Y-108752380D01*
X167250000Y-108752380D01*
X167107142Y-108704761D01*
X167011904Y-108609523D01*
X166964285Y-108514285D01*
X166916666Y-108323809D01*
X166916666Y-108180952D01*
X166964285Y-107990476D01*
X167011904Y-107895238D01*
X167107142Y-107800000D01*
X167250000Y-107752380D01*
X167345238Y-107752380D01*
X167488095Y-107800000D01*
X167535714Y-107847619D01*
X167964285Y-108752380D02*
X167964285Y-107752380D01*
X168535714Y-108752380D02*
X168107142Y-108180952D01*
X168535714Y-107752380D02*
X167964285Y-108323809D01*
%TO.C,TP2*%
X162738095Y-104754380D02*
X163309523Y-104754380D01*
X163023809Y-105754380D02*
X163023809Y-104754380D01*
X163642857Y-105754380D02*
X163642857Y-104754380D01*
X164023809Y-104754380D01*
X164119047Y-104802000D01*
X164166666Y-104849619D01*
X164214285Y-104944857D01*
X164214285Y-105087714D01*
X164166666Y-105182952D01*
X164119047Y-105230571D01*
X164023809Y-105278190D01*
X163642857Y-105278190D01*
X164595238Y-104849619D02*
X164642857Y-104802000D01*
X164738095Y-104754380D01*
X164976190Y-104754380D01*
X165071428Y-104802000D01*
X165119047Y-104849619D01*
X165166666Y-104944857D01*
X165166666Y-105040095D01*
X165119047Y-105182952D01*
X164547619Y-105754380D01*
X165166666Y-105754380D01*
X162666666Y-107752380D02*
X163000000Y-108752380D01*
X163333333Y-107752380D01*
X164238095Y-108657142D02*
X164190476Y-108704761D01*
X164047619Y-108752380D01*
X163952380Y-108752380D01*
X163809523Y-108704761D01*
X163714285Y-108609523D01*
X163666666Y-108514285D01*
X163619047Y-108323809D01*
X163619047Y-108180952D01*
X163666666Y-107990476D01*
X163714285Y-107895238D01*
X163809523Y-107800000D01*
X163952380Y-107752380D01*
X164047619Y-107752380D01*
X164190476Y-107800000D01*
X164238095Y-107847619D01*
X165238095Y-108657142D02*
X165190476Y-108704761D01*
X165047619Y-108752380D01*
X164952380Y-108752380D01*
X164809523Y-108704761D01*
X164714285Y-108609523D01*
X164666666Y-108514285D01*
X164619047Y-108323809D01*
X164619047Y-108180952D01*
X164666666Y-107990476D01*
X164714285Y-107895238D01*
X164809523Y-107800000D01*
X164952380Y-107752380D01*
X165047619Y-107752380D01*
X165190476Y-107800000D01*
X165238095Y-107847619D01*
%TO.C,TP1*%
X159738095Y-104754380D02*
X160309523Y-104754380D01*
X160023809Y-105754380D02*
X160023809Y-104754380D01*
X160642857Y-105754380D02*
X160642857Y-104754380D01*
X161023809Y-104754380D01*
X161119047Y-104802000D01*
X161166666Y-104849619D01*
X161214285Y-104944857D01*
X161214285Y-105087714D01*
X161166666Y-105182952D01*
X161119047Y-105230571D01*
X161023809Y-105278190D01*
X160642857Y-105278190D01*
X162166666Y-105754380D02*
X161595238Y-105754380D01*
X161880952Y-105754380D02*
X161880952Y-104754380D01*
X161785714Y-104897238D01*
X161690476Y-104992476D01*
X161595238Y-105040095D01*
X160238095Y-107800000D02*
X160142857Y-107752380D01*
X160000000Y-107752380D01*
X159857142Y-107800000D01*
X159761904Y-107895238D01*
X159714285Y-107990476D01*
X159666666Y-108180952D01*
X159666666Y-108323809D01*
X159714285Y-108514285D01*
X159761904Y-108609523D01*
X159857142Y-108704761D01*
X160000000Y-108752380D01*
X160095238Y-108752380D01*
X160238095Y-108704761D01*
X160285714Y-108657142D01*
X160285714Y-108323809D01*
X160095238Y-108323809D01*
X160714285Y-108752380D02*
X160714285Y-107752380D01*
X161285714Y-108752380D01*
X161285714Y-107752380D01*
X161761904Y-108752380D02*
X161761904Y-107752380D01*
X162000000Y-107752380D01*
X162142857Y-107800000D01*
X162238095Y-107895238D01*
X162285714Y-107990476D01*
X162333333Y-108180952D01*
X162333333Y-108323809D01*
X162285714Y-108514285D01*
X162238095Y-108609523D01*
X162142857Y-108704761D01*
X162000000Y-108752380D01*
X161761904Y-108752380D01*
%TO.C,R6*%
X141282380Y-112656666D02*
X140806190Y-112990000D01*
X141282380Y-113228095D02*
X140282380Y-113228095D01*
X140282380Y-112847142D01*
X140330000Y-112751904D01*
X140377619Y-112704285D01*
X140472857Y-112656666D01*
X140615714Y-112656666D01*
X140710952Y-112704285D01*
X140758571Y-112751904D01*
X140806190Y-112847142D01*
X140806190Y-113228095D01*
X140282380Y-111799523D02*
X140282380Y-111990000D01*
X140330000Y-112085238D01*
X140377619Y-112132857D01*
X140520476Y-112228095D01*
X140710952Y-112275714D01*
X141091904Y-112275714D01*
X141187142Y-112228095D01*
X141234761Y-112180476D01*
X141282380Y-112085238D01*
X141282380Y-111894761D01*
X141234761Y-111799523D01*
X141187142Y-111751904D01*
X141091904Y-111704285D01*
X140853809Y-111704285D01*
X140758571Y-111751904D01*
X140710952Y-111799523D01*
X140663333Y-111894761D01*
X140663333Y-112085238D01*
X140710952Y-112180476D01*
X140758571Y-112228095D01*
X140853809Y-112275714D01*
%TO.C,R5*%
X149583333Y-116602380D02*
X149250000Y-116126190D01*
X149011904Y-116602380D02*
X149011904Y-115602380D01*
X149392857Y-115602380D01*
X149488095Y-115650000D01*
X149535714Y-115697619D01*
X149583333Y-115792857D01*
X149583333Y-115935714D01*
X149535714Y-116030952D01*
X149488095Y-116078571D01*
X149392857Y-116126190D01*
X149011904Y-116126190D01*
X150488095Y-115602380D02*
X150011904Y-115602380D01*
X149964285Y-116078571D01*
X150011904Y-116030952D01*
X150107142Y-115983333D01*
X150345238Y-115983333D01*
X150440476Y-116030952D01*
X150488095Y-116078571D01*
X150535714Y-116173809D01*
X150535714Y-116411904D01*
X150488095Y-116507142D01*
X150440476Y-116554761D01*
X150345238Y-116602380D01*
X150107142Y-116602380D01*
X150011904Y-116554761D01*
X149964285Y-116507142D01*
%TO.C,C1*%
X143697142Y-109666666D02*
X143744761Y-109714285D01*
X143792380Y-109857142D01*
X143792380Y-109952380D01*
X143744761Y-110095238D01*
X143649523Y-110190476D01*
X143554285Y-110238095D01*
X143363809Y-110285714D01*
X143220952Y-110285714D01*
X143030476Y-110238095D01*
X142935238Y-110190476D01*
X142840000Y-110095238D01*
X142792380Y-109952380D01*
X142792380Y-109857142D01*
X142840000Y-109714285D01*
X142887619Y-109666666D01*
X143792380Y-108714285D02*
X143792380Y-109285714D01*
X143792380Y-109000000D02*
X142792380Y-109000000D01*
X142935238Y-109095238D01*
X143030476Y-109190476D01*
X143078095Y-109285714D01*
%TO.C,C2*%
X157517142Y-112166666D02*
X157564761Y-112214285D01*
X157612380Y-112357142D01*
X157612380Y-112452380D01*
X157564761Y-112595238D01*
X157469523Y-112690476D01*
X157374285Y-112738095D01*
X157183809Y-112785714D01*
X157040952Y-112785714D01*
X156850476Y-112738095D01*
X156755238Y-112690476D01*
X156660000Y-112595238D01*
X156612380Y-112452380D01*
X156612380Y-112357142D01*
X156660000Y-112214285D01*
X156707619Y-112166666D01*
X156707619Y-111785714D02*
X156660000Y-111738095D01*
X156612380Y-111642857D01*
X156612380Y-111404761D01*
X156660000Y-111309523D01*
X156707619Y-111261904D01*
X156802857Y-111214285D01*
X156898095Y-111214285D01*
X157040952Y-111261904D01*
X157612380Y-111833333D01*
X157612380Y-111214285D01*
%TO.C,C4*%
X151583333Y-116517142D02*
X151535714Y-116564761D01*
X151392857Y-116612380D01*
X151297619Y-116612380D01*
X151154761Y-116564761D01*
X151059523Y-116469523D01*
X151011904Y-116374285D01*
X150964285Y-116183809D01*
X150964285Y-116040952D01*
X151011904Y-115850476D01*
X151059523Y-115755238D01*
X151154761Y-115660000D01*
X151297619Y-115612380D01*
X151392857Y-115612380D01*
X151535714Y-115660000D01*
X151583333Y-115707619D01*
X152440476Y-115945714D02*
X152440476Y-116612380D01*
X152202380Y-115564761D02*
X151964285Y-116279047D01*
X152583333Y-116279047D01*
%TO.C,C5*%
X147583333Y-116517142D02*
X147535714Y-116564761D01*
X147392857Y-116612380D01*
X147297619Y-116612380D01*
X147154761Y-116564761D01*
X147059523Y-116469523D01*
X147011904Y-116374285D01*
X146964285Y-116183809D01*
X146964285Y-116040952D01*
X147011904Y-115850476D01*
X147059523Y-115755238D01*
X147154761Y-115660000D01*
X147297619Y-115612380D01*
X147392857Y-115612380D01*
X147535714Y-115660000D01*
X147583333Y-115707619D01*
X148488095Y-115612380D02*
X148011904Y-115612380D01*
X147964285Y-116088571D01*
X148011904Y-116040952D01*
X148107142Y-115993333D01*
X148345238Y-115993333D01*
X148440476Y-116040952D01*
X148488095Y-116088571D01*
X148535714Y-116183809D01*
X148535714Y-116421904D01*
X148488095Y-116517142D01*
X148440476Y-116564761D01*
X148345238Y-116612380D01*
X148107142Y-116612380D01*
X148011904Y-116564761D01*
X147964285Y-116517142D01*
%TO.C,C6*%
X141197142Y-109666666D02*
X141244761Y-109714285D01*
X141292380Y-109857142D01*
X141292380Y-109952380D01*
X141244761Y-110095238D01*
X141149523Y-110190476D01*
X141054285Y-110238095D01*
X140863809Y-110285714D01*
X140720952Y-110285714D01*
X140530476Y-110238095D01*
X140435238Y-110190476D01*
X140340000Y-110095238D01*
X140292380Y-109952380D01*
X140292380Y-109857142D01*
X140340000Y-109714285D01*
X140387619Y-109666666D01*
X140292380Y-108809523D02*
X140292380Y-109000000D01*
X140340000Y-109095238D01*
X140387619Y-109142857D01*
X140530476Y-109238095D01*
X140720952Y-109285714D01*
X141101904Y-109285714D01*
X141197142Y-109238095D01*
X141244761Y-109190476D01*
X141292380Y-109095238D01*
X141292380Y-108904761D01*
X141244761Y-108809523D01*
X141197142Y-108761904D01*
X141101904Y-108714285D01*
X140863809Y-108714285D01*
X140768571Y-108761904D01*
X140720952Y-108809523D01*
X140673333Y-108904761D01*
X140673333Y-109095238D01*
X140720952Y-109190476D01*
X140768571Y-109238095D01*
X140863809Y-109285714D01*
%TO.C,J1*%
X149666666Y-81667380D02*
X149666666Y-82381666D01*
X149619047Y-82524523D01*
X149523809Y-82619761D01*
X149380952Y-82667380D01*
X149285714Y-82667380D01*
X150666666Y-82667380D02*
X150095238Y-82667380D01*
X150380952Y-82667380D02*
X150380952Y-81667380D01*
X150285714Y-81810238D01*
X150190476Y-81905476D01*
X150095238Y-81953095D01*
%TO.C,R3*%
X144323333Y-107622380D02*
X143990000Y-107146190D01*
X143751904Y-107622380D02*
X143751904Y-106622380D01*
X144132857Y-106622380D01*
X144228095Y-106670000D01*
X144275714Y-106717619D01*
X144323333Y-106812857D01*
X144323333Y-106955714D01*
X144275714Y-107050952D01*
X144228095Y-107098571D01*
X144132857Y-107146190D01*
X143751904Y-107146190D01*
X144656666Y-106622380D02*
X145275714Y-106622380D01*
X144942380Y-107003333D01*
X145085238Y-107003333D01*
X145180476Y-107050952D01*
X145228095Y-107098571D01*
X145275714Y-107193809D01*
X145275714Y-107431904D01*
X145228095Y-107527142D01*
X145180476Y-107574761D01*
X145085238Y-107622380D01*
X144799523Y-107622380D01*
X144704285Y-107574761D01*
X144656666Y-107527142D01*
%TO.C,R4*%
X141333333Y-107622380D02*
X141000000Y-107146190D01*
X140761904Y-107622380D02*
X140761904Y-106622380D01*
X141142857Y-106622380D01*
X141238095Y-106670000D01*
X141285714Y-106717619D01*
X141333333Y-106812857D01*
X141333333Y-106955714D01*
X141285714Y-107050952D01*
X141238095Y-107098571D01*
X141142857Y-107146190D01*
X140761904Y-107146190D01*
X142190476Y-106955714D02*
X142190476Y-107622380D01*
X141952380Y-106574761D02*
X141714285Y-107289047D01*
X142333333Y-107289047D01*
%TO.C,SW1*%
X138126666Y-85610761D02*
X138269523Y-85658380D01*
X138507619Y-85658380D01*
X138602857Y-85610761D01*
X138650476Y-85563142D01*
X138698095Y-85467904D01*
X138698095Y-85372666D01*
X138650476Y-85277428D01*
X138602857Y-85229809D01*
X138507619Y-85182190D01*
X138317142Y-85134571D01*
X138221904Y-85086952D01*
X138174285Y-85039333D01*
X138126666Y-84944095D01*
X138126666Y-84848857D01*
X138174285Y-84753619D01*
X138221904Y-84706000D01*
X138317142Y-84658380D01*
X138555238Y-84658380D01*
X138698095Y-84706000D01*
X139031428Y-84658380D02*
X139269523Y-85658380D01*
X139460000Y-84944095D01*
X139650476Y-85658380D01*
X139888571Y-84658380D01*
X140793333Y-85658380D02*
X140221904Y-85658380D01*
X140507619Y-85658380D02*
X140507619Y-84658380D01*
X140412380Y-84801238D01*
X140317142Y-84896476D01*
X140221904Y-84944095D01*
%TO.C,SW2*%
X159126666Y-85610761D02*
X159269523Y-85658380D01*
X159507619Y-85658380D01*
X159602857Y-85610761D01*
X159650476Y-85563142D01*
X159698095Y-85467904D01*
X159698095Y-85372666D01*
X159650476Y-85277428D01*
X159602857Y-85229809D01*
X159507619Y-85182190D01*
X159317142Y-85134571D01*
X159221904Y-85086952D01*
X159174285Y-85039333D01*
X159126666Y-84944095D01*
X159126666Y-84848857D01*
X159174285Y-84753619D01*
X159221904Y-84706000D01*
X159317142Y-84658380D01*
X159555238Y-84658380D01*
X159698095Y-84706000D01*
X160031428Y-84658380D02*
X160269523Y-85658380D01*
X160460000Y-84944095D01*
X160650476Y-85658380D01*
X160888571Y-84658380D01*
X161221904Y-84753619D02*
X161269523Y-84706000D01*
X161364761Y-84658380D01*
X161602857Y-84658380D01*
X161698095Y-84706000D01*
X161745714Y-84753619D01*
X161793333Y-84848857D01*
X161793333Y-84944095D01*
X161745714Y-85086952D01*
X161174285Y-85658380D01*
X161793333Y-85658380D01*
%TO.C,U1*%
X149238095Y-104132380D02*
X149238095Y-104941904D01*
X149285714Y-105037142D01*
X149333333Y-105084761D01*
X149428571Y-105132380D01*
X149619047Y-105132380D01*
X149714285Y-105084761D01*
X149761904Y-105037142D01*
X149809523Y-104941904D01*
X149809523Y-104132380D01*
X150809523Y-105132380D02*
X150238095Y-105132380D01*
X150523809Y-105132380D02*
X150523809Y-104132380D01*
X150428571Y-104275238D01*
X150333333Y-104370476D01*
X150238095Y-104418095D01*
%TD*%
M02*
