%TF.GenerationSoftware,KiCad,Pcbnew,(5.1.12)-1*%
%TF.CreationDate,2024-08-07T21:13:35+08:00*%
%TF.ProjectId,BKL2x,424b4c32-782e-46b6-9963-61645f706362,1.0*%
%TF.SameCoordinates,Original*%
%TF.FileFunction,Copper,L2,Bot*%
%TF.FilePolarity,Positive*%
%FSLAX46Y46*%
G04 Gerber Fmt 4.6, Leading zero omitted, Abs format (unit mm)*
G04 Created by KiCad (PCBNEW (5.1.12)-1) date 2024-08-07 21:13:35*
%MOMM*%
%LPD*%
G01*
G04 APERTURE LIST*
%TA.AperFunction,SMDPad,CuDef*%
%ADD10R,2.500000X2.300000*%
%TD*%
%TA.AperFunction,ComponentPad*%
%ADD11O,1.000000X2.100000*%
%TD*%
%TA.AperFunction,ComponentPad*%
%ADD12O,1.000000X1.600000*%
%TD*%
%TA.AperFunction,ComponentPad*%
%ADD13C,2.200000*%
%TD*%
%TA.AperFunction,SMDPad,CuDef*%
%ADD14R,4.500000X2.000000*%
%TD*%
%TA.AperFunction,ViaPad*%
%ADD15C,0.800000*%
%TD*%
%TA.AperFunction,Conductor*%
%ADD16C,0.250000*%
%TD*%
%TA.AperFunction,Conductor*%
%ADD17C,0.254000*%
%TD*%
%TA.AperFunction,Conductor*%
%ADD18C,0.100000*%
%TD*%
G04 APERTURE END LIST*
%TO.P,C8,2*%
%TO.N,GND*%
%TA.AperFunction,SMDPad,CuDef*%
G36*
G01*
X147680000Y-84670000D02*
X147680000Y-84330000D01*
G75*
G02*
X147820000Y-84190000I140000J0D01*
G01*
X148100000Y-84190000D01*
G75*
G02*
X148240000Y-84330000I0J-140000D01*
G01*
X148240000Y-84670000D01*
G75*
G02*
X148100000Y-84810000I-140000J0D01*
G01*
X147820000Y-84810000D01*
G75*
G02*
X147680000Y-84670000I0J140000D01*
G01*
G37*
%TD.AperFunction*%
%TO.P,C8,1*%
%TO.N,/DP*%
%TA.AperFunction,SMDPad,CuDef*%
G36*
G01*
X146720000Y-84670000D02*
X146720000Y-84330000D01*
G75*
G02*
X146860000Y-84190000I140000J0D01*
G01*
X147140000Y-84190000D01*
G75*
G02*
X147280000Y-84330000I0J-140000D01*
G01*
X147280000Y-84670000D01*
G75*
G02*
X147140000Y-84810000I-140000J0D01*
G01*
X146860000Y-84810000D01*
G75*
G02*
X146720000Y-84670000I0J140000D01*
G01*
G37*
%TD.AperFunction*%
%TD*%
%TO.P,C7,2*%
%TO.N,GND*%
%TA.AperFunction,SMDPad,CuDef*%
G36*
G01*
X152200000Y-84670000D02*
X152200000Y-84330000D01*
G75*
G02*
X152340000Y-84190000I140000J0D01*
G01*
X152620000Y-84190000D01*
G75*
G02*
X152760000Y-84330000I0J-140000D01*
G01*
X152760000Y-84670000D01*
G75*
G02*
X152620000Y-84810000I-140000J0D01*
G01*
X152340000Y-84810000D01*
G75*
G02*
X152200000Y-84670000I0J140000D01*
G01*
G37*
%TD.AperFunction*%
%TO.P,C7,1*%
%TO.N,/DM*%
%TA.AperFunction,SMDPad,CuDef*%
G36*
G01*
X151240000Y-84670000D02*
X151240000Y-84330000D01*
G75*
G02*
X151380000Y-84190000I140000J0D01*
G01*
X151660000Y-84190000D01*
G75*
G02*
X151800000Y-84330000I0J-140000D01*
G01*
X151800000Y-84670000D01*
G75*
G02*
X151660000Y-84810000I-140000J0D01*
G01*
X151380000Y-84810000D01*
G75*
G02*
X151240000Y-84670000I0J140000D01*
G01*
G37*
%TD.AperFunction*%
%TD*%
%TO.P,C3,2*%
%TO.N,GND*%
%TA.AperFunction,SMDPad,CuDef*%
G36*
G01*
X151800000Y-104830000D02*
X151800000Y-105170000D01*
G75*
G02*
X151660000Y-105310000I-140000J0D01*
G01*
X151380000Y-105310000D01*
G75*
G02*
X151240000Y-105170000I0J140000D01*
G01*
X151240000Y-104830000D01*
G75*
G02*
X151380000Y-104690000I140000J0D01*
G01*
X151660000Y-104690000D01*
G75*
G02*
X151800000Y-104830000I0J-140000D01*
G01*
G37*
%TD.AperFunction*%
%TO.P,C3,1*%
%TO.N,/VB*%
%TA.AperFunction,SMDPad,CuDef*%
G36*
G01*
X152760000Y-104830000D02*
X152760000Y-105170000D01*
G75*
G02*
X152620000Y-105310000I-140000J0D01*
G01*
X152340000Y-105310000D01*
G75*
G02*
X152200000Y-105170000I0J140000D01*
G01*
X152200000Y-104830000D01*
G75*
G02*
X152340000Y-104690000I140000J0D01*
G01*
X152620000Y-104690000D01*
G75*
G02*
X152760000Y-104830000I0J-140000D01*
G01*
G37*
%TD.AperFunction*%
%TD*%
D10*
%TO.P,D1,1*%
%TO.N,Net-(D1-Pad1)*%
X137350000Y-83500000D03*
%TO.P,D1,2*%
%TO.N,Net-(D1-Pad2)*%
X141650000Y-83500000D03*
%TD*%
%TO.P,D2,2*%
%TO.N,Net-(D1-Pad1)*%
X162650000Y-83500000D03*
%TO.P,D2,1*%
%TO.N,/R0*%
X158350000Y-83500000D03*
%TD*%
D11*
%TO.P,J1,S1*%
%TO.N,GND*%
X154320000Y-79605000D03*
X145680000Y-79605000D03*
D12*
X154320000Y-75425000D03*
X145680000Y-75425000D03*
%TD*%
%TO.P,R1,1*%
%TO.N,GND*%
%TA.AperFunction,SMDPad,CuDef*%
G36*
G01*
X152780000Y-81815000D02*
X152780000Y-82185000D01*
G75*
G02*
X152645000Y-82320000I-135000J0D01*
G01*
X152375000Y-82320000D01*
G75*
G02*
X152240000Y-82185000I0J135000D01*
G01*
X152240000Y-81815000D01*
G75*
G02*
X152375000Y-81680000I135000J0D01*
G01*
X152645000Y-81680000D01*
G75*
G02*
X152780000Y-81815000I0J-135000D01*
G01*
G37*
%TD.AperFunction*%
%TO.P,R1,2*%
%TO.N,Net-(J1-PadA5)*%
%TA.AperFunction,SMDPad,CuDef*%
G36*
G01*
X151760000Y-81815000D02*
X151760000Y-82185000D01*
G75*
G02*
X151625000Y-82320000I-135000J0D01*
G01*
X151355000Y-82320000D01*
G75*
G02*
X151220000Y-82185000I0J135000D01*
G01*
X151220000Y-81815000D01*
G75*
G02*
X151355000Y-81680000I135000J0D01*
G01*
X151625000Y-81680000D01*
G75*
G02*
X151760000Y-81815000I0J-135000D01*
G01*
G37*
%TD.AperFunction*%
%TD*%
%TO.P,R2,2*%
%TO.N,Net-(J1-PadB5)*%
%TA.AperFunction,SMDPad,CuDef*%
G36*
G01*
X147270000Y-81815000D02*
X147270000Y-82185000D01*
G75*
G02*
X147135000Y-82320000I-135000J0D01*
G01*
X146865000Y-82320000D01*
G75*
G02*
X146730000Y-82185000I0J135000D01*
G01*
X146730000Y-81815000D01*
G75*
G02*
X146865000Y-81680000I135000J0D01*
G01*
X147135000Y-81680000D01*
G75*
G02*
X147270000Y-81815000I0J-135000D01*
G01*
G37*
%TD.AperFunction*%
%TO.P,R2,1*%
%TO.N,GND*%
%TA.AperFunction,SMDPad,CuDef*%
G36*
G01*
X148290000Y-81815000D02*
X148290000Y-82185000D01*
G75*
G02*
X148155000Y-82320000I-135000J0D01*
G01*
X147885000Y-82320000D01*
G75*
G02*
X147750000Y-82185000I0J135000D01*
G01*
X147750000Y-81815000D01*
G75*
G02*
X147885000Y-81680000I135000J0D01*
G01*
X148155000Y-81680000D01*
G75*
G02*
X148290000Y-81815000I0J-135000D01*
G01*
G37*
%TD.AperFunction*%
%TD*%
D13*
%TO.P,SW1,2*%
%TO.N,/C0*%
X135650000Y-90540000D03*
%TO.P,SW1,1*%
%TO.N,Net-(D1-Pad2)*%
X142000000Y-88000000D03*
%TD*%
%TO.P,SW2,1*%
%TO.N,Net-(D1-Pad1)*%
X163000000Y-88000000D03*
%TO.P,SW2,2*%
%TO.N,/C1*%
X156650000Y-90540000D03*
%TD*%
D14*
%TO.P,Y1,1*%
%TO.N,Net-(C5-Pad1)*%
X145500000Y-110500000D03*
%TO.P,Y1,2*%
%TO.N,Net-(C4-Pad2)*%
X154000000Y-110500000D03*
%TD*%
D15*
%TO.N,/VB*%
X141108500Y-112503100D03*
X146403700Y-106162500D03*
%TO.N,Net-(C4-Pad2)*%
X151000000Y-116000000D03*
%TO.N,Net-(C5-Pad1)*%
X148500000Y-116000000D03*
%TO.N,/R0*%
X142954100Y-112762400D03*
%TO.N,Net-(J1-PadB5)*%
X146096200Y-81884000D03*
%TO.N,/DP*%
X146091200Y-84717700D03*
%TO.N,/DM*%
X150631100Y-84500000D03*
%TO.N,Net-(J1-PadA5)*%
X151485800Y-82921500D03*
%TO.N,/C0*%
X144606300Y-113070300D03*
%TO.N,/C1*%
X145476300Y-112345000D03*
%TD*%
D16*
%TO.N,GND*%
X152510000Y-82000000D02*
X153300300Y-82000000D01*
X153300300Y-82000000D02*
X154320000Y-80980300D01*
X151815800Y-83752100D02*
X152510000Y-83057900D01*
X152510000Y-83057900D02*
X152510000Y-82000000D01*
X154320000Y-79605000D02*
X154320000Y-80980300D01*
X151815800Y-83752100D02*
X148020000Y-83752100D01*
X151815800Y-83752100D02*
X152480000Y-84416300D01*
X152480000Y-84416300D02*
X152480000Y-84500000D01*
X148020000Y-83752100D02*
X148020000Y-84440000D01*
X148020000Y-84440000D02*
X147960000Y-84500000D01*
X148020000Y-82000000D02*
X148020000Y-83752100D01*
X151520000Y-105000000D02*
X151520000Y-89720500D01*
X151520000Y-89720500D02*
X152480000Y-88760500D01*
X152480000Y-88760500D02*
X152480000Y-84500000D01*
X145680000Y-79605000D02*
X148020000Y-81945000D01*
X148020000Y-81945000D02*
X148020000Y-82000000D01*
%TO.N,/VB*%
X146403700Y-106162500D02*
X144835000Y-106162500D01*
X144835000Y-106162500D02*
X141108500Y-109889000D01*
X141108500Y-109889000D02*
X141108500Y-112503100D01*
X152480000Y-105000000D02*
X152480000Y-105090800D01*
X152480000Y-105090800D02*
X151408300Y-106162500D01*
X151408300Y-106162500D02*
X146403700Y-106162500D01*
%TO.N,Net-(C4-Pad2)*%
X151000000Y-116000000D02*
X151000000Y-113500000D01*
X151000000Y-113500000D02*
X154000000Y-110500000D01*
%TO.N,Net-(C5-Pad1)*%
X148500000Y-116000000D02*
X148500000Y-113500000D01*
X148500000Y-113500000D02*
X145500000Y-110500000D01*
%TO.N,Net-(D1-Pad1)*%
X162650000Y-83500000D02*
X162650000Y-82024700D01*
X162650000Y-82024700D02*
X158801900Y-78176600D01*
X158801900Y-78176600D02*
X141198100Y-78176600D01*
X141198100Y-78176600D02*
X137350000Y-82024700D01*
X163000000Y-88000000D02*
X162650000Y-87650000D01*
X162650000Y-87650000D02*
X162650000Y-83500000D01*
X137350000Y-83500000D02*
X137350000Y-82024700D01*
%TO.N,Net-(D1-Pad2)*%
X141650000Y-83500000D02*
X141650000Y-84975300D01*
X142000000Y-88000000D02*
X142000000Y-85325300D01*
X142000000Y-85325300D02*
X141650000Y-84975300D01*
%TO.N,/R0*%
X142954100Y-112762400D02*
X142411400Y-112219700D01*
X142411400Y-112219700D02*
X142411400Y-109223000D01*
X142411400Y-109223000D02*
X144327500Y-107306900D01*
X144327500Y-107306900D02*
X151170200Y-107306900D01*
X151170200Y-107306900D02*
X153087400Y-105389700D01*
X153087400Y-105389700D02*
X153087400Y-90237900D01*
X153087400Y-90237900D02*
X158350000Y-84975300D01*
X158350000Y-83500000D02*
X158350000Y-84975300D01*
%TO.N,Net-(J1-PadB5)*%
X146096200Y-81884000D02*
X146884000Y-81884000D01*
X146884000Y-81884000D02*
X147000000Y-82000000D01*
%TO.N,/DP*%
X146091200Y-84717700D02*
X146782300Y-84717700D01*
X146782300Y-84717700D02*
X147000000Y-84500000D01*
%TO.N,/DM*%
X151520000Y-84500000D02*
X150631100Y-84500000D01*
%TO.N,Net-(J1-PadA5)*%
X151490000Y-82000000D02*
X151490000Y-82917300D01*
X151490000Y-82917300D02*
X151485800Y-82921500D01*
%TO.N,/C0*%
X144606300Y-113070300D02*
X144185100Y-113491500D01*
X144185100Y-113491500D02*
X141029100Y-113491500D01*
X141029100Y-113491500D02*
X135650000Y-108112400D01*
X135650000Y-108112400D02*
X135650000Y-90540000D01*
%TO.N,/C1*%
X156650000Y-90540000D02*
X156650000Y-102492900D01*
X156650000Y-102492900D02*
X151250600Y-107892300D01*
X151250600Y-107892300D02*
X144379000Y-107892300D01*
X144379000Y-107892300D02*
X142896700Y-109374600D01*
X142896700Y-109374600D02*
X142896700Y-111633400D01*
X142896700Y-111633400D02*
X143608300Y-112345000D01*
X143608300Y-112345000D02*
X145476300Y-112345000D01*
%TD*%
D17*
%TO.N,GND*%
X170565424Y-73169580D02*
X170628356Y-73188580D01*
X170686405Y-73219445D01*
X170737343Y-73260989D01*
X170779248Y-73311644D01*
X170810515Y-73369471D01*
X170829956Y-73432272D01*
X170840001Y-73527845D01*
X170840000Y-118467721D01*
X170830420Y-118565424D01*
X170811420Y-118628357D01*
X170780554Y-118686406D01*
X170739011Y-118737343D01*
X170688356Y-118779248D01*
X170630529Y-118810515D01*
X170567728Y-118829956D01*
X170472165Y-118840000D01*
X129532279Y-118840000D01*
X129434576Y-118830420D01*
X129371643Y-118811420D01*
X129313594Y-118780554D01*
X129262657Y-118739011D01*
X129220752Y-118688356D01*
X129189485Y-118630529D01*
X129170044Y-118567728D01*
X129160000Y-118472165D01*
X129160000Y-92933740D01*
X132895000Y-92933740D01*
X132895000Y-93226260D01*
X132952068Y-93513158D01*
X133064010Y-93783411D01*
X133226525Y-94026632D01*
X133433368Y-94233475D01*
X133676589Y-94395990D01*
X133946842Y-94507932D01*
X134233740Y-94565000D01*
X134526260Y-94565000D01*
X134813158Y-94507932D01*
X134890001Y-94476103D01*
X134890000Y-108075078D01*
X134886324Y-108112400D01*
X134890000Y-108149722D01*
X134890000Y-108149732D01*
X134900997Y-108261385D01*
X134917739Y-108316576D01*
X134944454Y-108404646D01*
X135015026Y-108536676D01*
X135054871Y-108585226D01*
X135109999Y-108652401D01*
X135139003Y-108676204D01*
X140465301Y-114002503D01*
X140489099Y-114031501D01*
X140604824Y-114126474D01*
X140736853Y-114197046D01*
X140880114Y-114240503D01*
X140991767Y-114251500D01*
X140991776Y-114251500D01*
X141029099Y-114255176D01*
X141066422Y-114251500D01*
X144147778Y-114251500D01*
X144185100Y-114255176D01*
X144222422Y-114251500D01*
X144222433Y-114251500D01*
X144334086Y-114240503D01*
X144477347Y-114197046D01*
X144609376Y-114126474D01*
X144635177Y-114105300D01*
X144708239Y-114105300D01*
X144908198Y-114065526D01*
X145096556Y-113987505D01*
X145266074Y-113874237D01*
X145410237Y-113730074D01*
X145523505Y-113560556D01*
X145600095Y-113375653D01*
X145778198Y-113340226D01*
X145966556Y-113262205D01*
X146136074Y-113148937D01*
X146280237Y-113004774D01*
X146393505Y-112835256D01*
X146471526Y-112646898D01*
X146488212Y-112563013D01*
X147740001Y-113814803D01*
X147740000Y-115296289D01*
X147696063Y-115340226D01*
X147582795Y-115509744D01*
X147504774Y-115698102D01*
X147465000Y-115898061D01*
X147465000Y-116101939D01*
X147504774Y-116301898D01*
X147582795Y-116490256D01*
X147696063Y-116659774D01*
X147840226Y-116803937D01*
X148009744Y-116917205D01*
X148198102Y-116995226D01*
X148398061Y-117035000D01*
X148601939Y-117035000D01*
X148801898Y-116995226D01*
X148990256Y-116917205D01*
X149159774Y-116803937D01*
X149303937Y-116659774D01*
X149417205Y-116490256D01*
X149495226Y-116301898D01*
X149535000Y-116101939D01*
X149535000Y-115898061D01*
X149965000Y-115898061D01*
X149965000Y-116101939D01*
X150004774Y-116301898D01*
X150082795Y-116490256D01*
X150196063Y-116659774D01*
X150340226Y-116803937D01*
X150509744Y-116917205D01*
X150698102Y-116995226D01*
X150898061Y-117035000D01*
X151101939Y-117035000D01*
X151301898Y-116995226D01*
X151490256Y-116917205D01*
X151659774Y-116803937D01*
X151803937Y-116659774D01*
X151917205Y-116490256D01*
X151995226Y-116301898D01*
X152035000Y-116101939D01*
X152035000Y-115898061D01*
X151995226Y-115698102D01*
X151917205Y-115509744D01*
X151803937Y-115340226D01*
X151760000Y-115296289D01*
X151760000Y-113814801D01*
X153436730Y-112138072D01*
X156250000Y-112138072D01*
X156374482Y-112125812D01*
X156494180Y-112089502D01*
X156604494Y-112030537D01*
X156701185Y-111951185D01*
X156780537Y-111854494D01*
X156839502Y-111744180D01*
X156875812Y-111624482D01*
X156888072Y-111500000D01*
X156888072Y-109500000D01*
X156875812Y-109375518D01*
X156839502Y-109255820D01*
X156780537Y-109145506D01*
X156701185Y-109048815D01*
X156604494Y-108969463D01*
X156494180Y-108910498D01*
X156374482Y-108874188D01*
X156250000Y-108861928D01*
X151750000Y-108861928D01*
X151625518Y-108874188D01*
X151505820Y-108910498D01*
X151395506Y-108969463D01*
X151298815Y-109048815D01*
X151219463Y-109145506D01*
X151160498Y-109255820D01*
X151124188Y-109375518D01*
X151111928Y-109500000D01*
X151111928Y-111500000D01*
X151124188Y-111624482D01*
X151160498Y-111744180D01*
X151219463Y-111854494D01*
X151298815Y-111951185D01*
X151395042Y-112030156D01*
X150488998Y-112936201D01*
X150460000Y-112959999D01*
X150436202Y-112988997D01*
X150436201Y-112988998D01*
X150365026Y-113075724D01*
X150294454Y-113207754D01*
X150265744Y-113302401D01*
X150253577Y-113342514D01*
X150250998Y-113351015D01*
X150236324Y-113500000D01*
X150240001Y-113537332D01*
X150240000Y-115296289D01*
X150196063Y-115340226D01*
X150082795Y-115509744D01*
X150004774Y-115698102D01*
X149965000Y-115898061D01*
X149535000Y-115898061D01*
X149495226Y-115698102D01*
X149417205Y-115509744D01*
X149303937Y-115340226D01*
X149260000Y-115296289D01*
X149260000Y-113537325D01*
X149263676Y-113500000D01*
X149260000Y-113462675D01*
X149260000Y-113462667D01*
X149249003Y-113351014D01*
X149205546Y-113207753D01*
X149134974Y-113075724D01*
X149040001Y-112959999D01*
X149011003Y-112936201D01*
X148104958Y-112030156D01*
X148201185Y-111951185D01*
X148280537Y-111854494D01*
X148339502Y-111744180D01*
X148375812Y-111624482D01*
X148388072Y-111500000D01*
X148388072Y-109500000D01*
X148375812Y-109375518D01*
X148339502Y-109255820D01*
X148280537Y-109145506D01*
X148201185Y-109048815D01*
X148104494Y-108969463D01*
X147994180Y-108910498D01*
X147874482Y-108874188D01*
X147750000Y-108861928D01*
X144484174Y-108861928D01*
X144693802Y-108652300D01*
X151213278Y-108652300D01*
X151250600Y-108655976D01*
X151287922Y-108652300D01*
X151287933Y-108652300D01*
X151399586Y-108641303D01*
X151542847Y-108597846D01*
X151674876Y-108527274D01*
X151790601Y-108432301D01*
X151814404Y-108403297D01*
X157161003Y-103056699D01*
X157190001Y-103032901D01*
X157284974Y-102917176D01*
X157355546Y-102785147D01*
X157399003Y-102641886D01*
X157410000Y-102530233D01*
X157410000Y-102530225D01*
X157413676Y-102492900D01*
X157410000Y-102455575D01*
X157410000Y-92820475D01*
X157825000Y-92820475D01*
X157825000Y-93339525D01*
X157926261Y-93848601D01*
X158124893Y-94328141D01*
X158413262Y-94759715D01*
X158780285Y-95126738D01*
X159211859Y-95415107D01*
X159691399Y-95613739D01*
X160200475Y-95715000D01*
X160719525Y-95715000D01*
X161228601Y-95613739D01*
X161708141Y-95415107D01*
X162139715Y-95126738D01*
X162506738Y-94759715D01*
X162795107Y-94328141D01*
X162993739Y-93848601D01*
X163095000Y-93339525D01*
X163095000Y-92933740D01*
X164055000Y-92933740D01*
X164055000Y-93226260D01*
X164112068Y-93513158D01*
X164224010Y-93783411D01*
X164386525Y-94026632D01*
X164593368Y-94233475D01*
X164836589Y-94395990D01*
X165106842Y-94507932D01*
X165393740Y-94565000D01*
X165686260Y-94565000D01*
X165973158Y-94507932D01*
X166243411Y-94395990D01*
X166486632Y-94233475D01*
X166693475Y-94026632D01*
X166855990Y-93783411D01*
X166967932Y-93513158D01*
X167025000Y-93226260D01*
X167025000Y-92933740D01*
X166967932Y-92646842D01*
X166855990Y-92376589D01*
X166693475Y-92133368D01*
X166486632Y-91926525D01*
X166243411Y-91764010D01*
X165973158Y-91652068D01*
X165686260Y-91595000D01*
X165393740Y-91595000D01*
X165106842Y-91652068D01*
X164836589Y-91764010D01*
X164593368Y-91926525D01*
X164386525Y-92133368D01*
X164224010Y-92376589D01*
X164112068Y-92646842D01*
X164055000Y-92933740D01*
X163095000Y-92933740D01*
X163095000Y-92820475D01*
X162993739Y-92311399D01*
X162795107Y-91831859D01*
X162506738Y-91400285D01*
X162139715Y-91033262D01*
X161708141Y-90744893D01*
X161228601Y-90546261D01*
X160719525Y-90445000D01*
X160200475Y-90445000D01*
X159691399Y-90546261D01*
X159211859Y-90744893D01*
X158780285Y-91033262D01*
X158413262Y-91400285D01*
X158124893Y-91831859D01*
X157926261Y-92311399D01*
X157825000Y-92820475D01*
X157410000Y-92820475D01*
X157410000Y-92103148D01*
X157471831Y-92077537D01*
X157755998Y-91887663D01*
X157997663Y-91645998D01*
X158187537Y-91361831D01*
X158318325Y-91046081D01*
X158385000Y-90710883D01*
X158385000Y-90369117D01*
X158318325Y-90033919D01*
X158187537Y-89718169D01*
X157997663Y-89434002D01*
X157755998Y-89192337D01*
X157471831Y-89002463D01*
X157156081Y-88871675D01*
X156820883Y-88805000D01*
X156479117Y-88805000D01*
X156143919Y-88871675D01*
X155828169Y-89002463D01*
X155544002Y-89192337D01*
X155302337Y-89434002D01*
X155112463Y-89718169D01*
X154981675Y-90033919D01*
X154915000Y-90369117D01*
X154915000Y-90710883D01*
X154981675Y-91046081D01*
X155112463Y-91361831D01*
X155268261Y-91595000D01*
X155233740Y-91595000D01*
X154946842Y-91652068D01*
X154676589Y-91764010D01*
X154433368Y-91926525D01*
X154226525Y-92133368D01*
X154064010Y-92376589D01*
X153952068Y-92646842D01*
X153895000Y-92933740D01*
X153895000Y-93226260D01*
X153952068Y-93513158D01*
X154064010Y-93783411D01*
X154226525Y-94026632D01*
X154433368Y-94233475D01*
X154676589Y-94395990D01*
X154946842Y-94507932D01*
X155233740Y-94565000D01*
X155526260Y-94565000D01*
X155813158Y-94507932D01*
X155890000Y-94476103D01*
X155890001Y-102178097D01*
X153847400Y-104220698D01*
X153847400Y-90552701D01*
X158861003Y-85539099D01*
X158890001Y-85515301D01*
X158984974Y-85399576D01*
X159044575Y-85288072D01*
X159600000Y-85288072D01*
X159724482Y-85275812D01*
X159844180Y-85239502D01*
X159954494Y-85180537D01*
X160051185Y-85101185D01*
X160130537Y-85004494D01*
X160189502Y-84894180D01*
X160225812Y-84774482D01*
X160238072Y-84650000D01*
X160238072Y-82350000D01*
X160225812Y-82225518D01*
X160189502Y-82105820D01*
X160130537Y-81995506D01*
X160051185Y-81898815D01*
X159954494Y-81819463D01*
X159844180Y-81760498D01*
X159724482Y-81724188D01*
X159600000Y-81711928D01*
X157100000Y-81711928D01*
X156975518Y-81724188D01*
X156855820Y-81760498D01*
X156745506Y-81819463D01*
X156648815Y-81898815D01*
X156569463Y-81995506D01*
X156510498Y-82105820D01*
X156474188Y-82225518D01*
X156461928Y-82350000D01*
X156461928Y-84650000D01*
X156474188Y-84774482D01*
X156510498Y-84894180D01*
X156569463Y-85004494D01*
X156648815Y-85101185D01*
X156745506Y-85180537D01*
X156855820Y-85239502D01*
X156974880Y-85275618D01*
X152576398Y-89674101D01*
X152547400Y-89697899D01*
X152523602Y-89726897D01*
X152523601Y-89726898D01*
X152452426Y-89813624D01*
X152381854Y-89945654D01*
X152338398Y-90088915D01*
X152323724Y-90237900D01*
X152327401Y-90275233D01*
X152327400Y-104053169D01*
X152188206Y-104066878D01*
X152056509Y-104106828D01*
X152046878Y-104101623D01*
X151927348Y-104064765D01*
X151805750Y-104055000D01*
X151647000Y-104213750D01*
X151647000Y-104483892D01*
X151621155Y-104532245D01*
X151576878Y-104678206D01*
X151561928Y-104830000D01*
X151561928Y-104934070D01*
X151368999Y-105127000D01*
X150763750Y-105127000D01*
X150605000Y-105285750D01*
X150601935Y-105307077D01*
X150610892Y-105402500D01*
X147107411Y-105402500D01*
X147063474Y-105358563D01*
X146893956Y-105245295D01*
X146705598Y-105167274D01*
X146505639Y-105127500D01*
X146301761Y-105127500D01*
X146101802Y-105167274D01*
X145913444Y-105245295D01*
X145743926Y-105358563D01*
X145699989Y-105402500D01*
X144872323Y-105402500D01*
X144835000Y-105398824D01*
X144797677Y-105402500D01*
X144797667Y-105402500D01*
X144686014Y-105413497D01*
X144542753Y-105456954D01*
X144410724Y-105527526D01*
X144294999Y-105622499D01*
X144271201Y-105651497D01*
X140597503Y-109325196D01*
X140568499Y-109348999D01*
X140513371Y-109416174D01*
X140473526Y-109464724D01*
X140442064Y-109523585D01*
X140402954Y-109596754D01*
X140359497Y-109740015D01*
X140348500Y-109851668D01*
X140348500Y-109851678D01*
X140344824Y-109889000D01*
X140348500Y-109926323D01*
X140348501Y-111736099D01*
X136410000Y-107797599D01*
X136410000Y-104692923D01*
X150601935Y-104692923D01*
X150605000Y-104714250D01*
X150763750Y-104873000D01*
X151393000Y-104873000D01*
X151393000Y-104213750D01*
X151234250Y-104055000D01*
X151112652Y-104064765D01*
X150993122Y-104101623D01*
X150883079Y-104161092D01*
X150786753Y-104240887D01*
X150707844Y-104337941D01*
X150649386Y-104448524D01*
X150613625Y-104568387D01*
X150601935Y-104692923D01*
X136410000Y-104692923D01*
X136410000Y-92820475D01*
X136825000Y-92820475D01*
X136825000Y-93339525D01*
X136926261Y-93848601D01*
X137124893Y-94328141D01*
X137413262Y-94759715D01*
X137780285Y-95126738D01*
X138211859Y-95415107D01*
X138691399Y-95613739D01*
X139200475Y-95715000D01*
X139719525Y-95715000D01*
X140228601Y-95613739D01*
X140708141Y-95415107D01*
X141139715Y-95126738D01*
X141506738Y-94759715D01*
X141795107Y-94328141D01*
X141993739Y-93848601D01*
X142095000Y-93339525D01*
X142095000Y-92933740D01*
X143055000Y-92933740D01*
X143055000Y-93226260D01*
X143112068Y-93513158D01*
X143224010Y-93783411D01*
X143386525Y-94026632D01*
X143593368Y-94233475D01*
X143836589Y-94395990D01*
X144106842Y-94507932D01*
X144393740Y-94565000D01*
X144686260Y-94565000D01*
X144973158Y-94507932D01*
X145243411Y-94395990D01*
X145486632Y-94233475D01*
X145693475Y-94026632D01*
X145855990Y-93783411D01*
X145967932Y-93513158D01*
X146025000Y-93226260D01*
X146025000Y-92933740D01*
X145967932Y-92646842D01*
X145855990Y-92376589D01*
X145693475Y-92133368D01*
X145486632Y-91926525D01*
X145243411Y-91764010D01*
X144973158Y-91652068D01*
X144686260Y-91595000D01*
X144393740Y-91595000D01*
X144106842Y-91652068D01*
X143836589Y-91764010D01*
X143593368Y-91926525D01*
X143386525Y-92133368D01*
X143224010Y-92376589D01*
X143112068Y-92646842D01*
X143055000Y-92933740D01*
X142095000Y-92933740D01*
X142095000Y-92820475D01*
X141993739Y-92311399D01*
X141795107Y-91831859D01*
X141506738Y-91400285D01*
X141139715Y-91033262D01*
X140708141Y-90744893D01*
X140228601Y-90546261D01*
X139719525Y-90445000D01*
X139200475Y-90445000D01*
X138691399Y-90546261D01*
X138211859Y-90744893D01*
X137780285Y-91033262D01*
X137413262Y-91400285D01*
X137124893Y-91831859D01*
X136926261Y-92311399D01*
X136825000Y-92820475D01*
X136410000Y-92820475D01*
X136410000Y-92103148D01*
X136471831Y-92077537D01*
X136755998Y-91887663D01*
X136997663Y-91645998D01*
X137187537Y-91361831D01*
X137318325Y-91046081D01*
X137385000Y-90710883D01*
X137385000Y-90369117D01*
X137318325Y-90033919D01*
X137187537Y-89718169D01*
X136997663Y-89434002D01*
X136755998Y-89192337D01*
X136471831Y-89002463D01*
X136156081Y-88871675D01*
X135820883Y-88805000D01*
X135479117Y-88805000D01*
X135143919Y-88871675D01*
X134828169Y-89002463D01*
X134544002Y-89192337D01*
X134302337Y-89434002D01*
X134112463Y-89718169D01*
X133981675Y-90033919D01*
X133915000Y-90369117D01*
X133915000Y-90710883D01*
X133981675Y-91046081D01*
X134112463Y-91361831D01*
X134268261Y-91595000D01*
X134233740Y-91595000D01*
X133946842Y-91652068D01*
X133676589Y-91764010D01*
X133433368Y-91926525D01*
X133226525Y-92133368D01*
X133064010Y-92376589D01*
X132952068Y-92646842D01*
X132895000Y-92933740D01*
X129160000Y-92933740D01*
X129160000Y-82350000D01*
X135461928Y-82350000D01*
X135461928Y-84650000D01*
X135474188Y-84774482D01*
X135510498Y-84894180D01*
X135569463Y-85004494D01*
X135648815Y-85101185D01*
X135745506Y-85180537D01*
X135855820Y-85239502D01*
X135975518Y-85275812D01*
X136100000Y-85288072D01*
X138600000Y-85288072D01*
X138724482Y-85275812D01*
X138844180Y-85239502D01*
X138954494Y-85180537D01*
X139051185Y-85101185D01*
X139130537Y-85004494D01*
X139189502Y-84894180D01*
X139225812Y-84774482D01*
X139238072Y-84650000D01*
X139238072Y-82350000D01*
X139761928Y-82350000D01*
X139761928Y-84650000D01*
X139774188Y-84774482D01*
X139810498Y-84894180D01*
X139869463Y-85004494D01*
X139948815Y-85101185D01*
X140045506Y-85180537D01*
X140155820Y-85239502D01*
X140275518Y-85275812D01*
X140400000Y-85288072D01*
X140955425Y-85288072D01*
X141015026Y-85399576D01*
X141082158Y-85481376D01*
X141110000Y-85515301D01*
X141138998Y-85539099D01*
X141240001Y-85640102D01*
X141240001Y-86436852D01*
X141178169Y-86462463D01*
X140894002Y-86652337D01*
X140652337Y-86894002D01*
X140462463Y-87178169D01*
X140331675Y-87493919D01*
X140265000Y-87829117D01*
X140265000Y-88170883D01*
X140331675Y-88506081D01*
X140462463Y-88821831D01*
X140652337Y-89105998D01*
X140894002Y-89347663D01*
X141178169Y-89537537D01*
X141493919Y-89668325D01*
X141829117Y-89735000D01*
X142170883Y-89735000D01*
X142506081Y-89668325D01*
X142821831Y-89537537D01*
X143105998Y-89347663D01*
X143347663Y-89105998D01*
X143537537Y-88821831D01*
X143668325Y-88506081D01*
X143735000Y-88170883D01*
X143735000Y-87829117D01*
X143668325Y-87493919D01*
X143537537Y-87178169D01*
X143347663Y-86894002D01*
X143105998Y-86652337D01*
X142821831Y-86462463D01*
X142760000Y-86436852D01*
X142760000Y-85362625D01*
X142763676Y-85325300D01*
X142760010Y-85288072D01*
X142900000Y-85288072D01*
X143024482Y-85275812D01*
X143144180Y-85239502D01*
X143254494Y-85180537D01*
X143351185Y-85101185D01*
X143430537Y-85004494D01*
X143489502Y-84894180D01*
X143525812Y-84774482D01*
X143538072Y-84650000D01*
X143538072Y-84615761D01*
X145056200Y-84615761D01*
X145056200Y-84819639D01*
X145095974Y-85019598D01*
X145173995Y-85207956D01*
X145287263Y-85377474D01*
X145431426Y-85521637D01*
X145600944Y-85634905D01*
X145789302Y-85712926D01*
X145989261Y-85752700D01*
X146193139Y-85752700D01*
X146393098Y-85712926D01*
X146581456Y-85634905D01*
X146750974Y-85521637D01*
X146792211Y-85480400D01*
X146819622Y-85477700D01*
X146819633Y-85477700D01*
X146931286Y-85466703D01*
X146992705Y-85448072D01*
X147140000Y-85448072D01*
X147291794Y-85433122D01*
X147423491Y-85393172D01*
X147433122Y-85398377D01*
X147552652Y-85435235D01*
X147674250Y-85445000D01*
X147833000Y-85286250D01*
X147833000Y-85016108D01*
X147858845Y-84967755D01*
X147903122Y-84821794D01*
X147918072Y-84670000D01*
X147918072Y-84627000D01*
X148087000Y-84627000D01*
X148087000Y-85286250D01*
X148245750Y-85445000D01*
X148367348Y-85435235D01*
X148486878Y-85398377D01*
X148596921Y-85338908D01*
X148693247Y-85259113D01*
X148772156Y-85162059D01*
X148830614Y-85051476D01*
X148866375Y-84931613D01*
X148878065Y-84807077D01*
X148875000Y-84785750D01*
X148716250Y-84627000D01*
X148087000Y-84627000D01*
X147918072Y-84627000D01*
X147918072Y-84398061D01*
X149596100Y-84398061D01*
X149596100Y-84601939D01*
X149635874Y-84801898D01*
X149713895Y-84990256D01*
X149827163Y-85159774D01*
X149971326Y-85303937D01*
X150140844Y-85417205D01*
X150329202Y-85495226D01*
X150529161Y-85535000D01*
X150733039Y-85535000D01*
X150932998Y-85495226D01*
X151121356Y-85417205D01*
X151138335Y-85405860D01*
X151228206Y-85433122D01*
X151380000Y-85448072D01*
X151660000Y-85448072D01*
X151811794Y-85433122D01*
X151943491Y-85393172D01*
X151953122Y-85398377D01*
X152072652Y-85435235D01*
X152194250Y-85445000D01*
X152353000Y-85286250D01*
X152353000Y-85016108D01*
X152378845Y-84967755D01*
X152423122Y-84821794D01*
X152438072Y-84670000D01*
X152438072Y-84627000D01*
X152607000Y-84627000D01*
X152607000Y-85286250D01*
X152765750Y-85445000D01*
X152887348Y-85435235D01*
X153006878Y-85398377D01*
X153116921Y-85338908D01*
X153213247Y-85259113D01*
X153292156Y-85162059D01*
X153350614Y-85051476D01*
X153386375Y-84931613D01*
X153398065Y-84807077D01*
X153395000Y-84785750D01*
X153236250Y-84627000D01*
X152607000Y-84627000D01*
X152438072Y-84627000D01*
X152438072Y-84330000D01*
X152423122Y-84178206D01*
X152378845Y-84032245D01*
X152353000Y-83983892D01*
X152353000Y-83713750D01*
X152607000Y-83713750D01*
X152607000Y-84373000D01*
X153236250Y-84373000D01*
X153395000Y-84214250D01*
X153398065Y-84192923D01*
X153386375Y-84068387D01*
X153350614Y-83948524D01*
X153292156Y-83837941D01*
X153213247Y-83740887D01*
X153116921Y-83661092D01*
X153006878Y-83601623D01*
X152887348Y-83564765D01*
X152765750Y-83555000D01*
X152607000Y-83713750D01*
X152353000Y-83713750D01*
X152255131Y-83615881D01*
X152289737Y-83581274D01*
X152403005Y-83411756D01*
X152481026Y-83223398D01*
X152520800Y-83023439D01*
X152520800Y-82955000D01*
X152637002Y-82955000D01*
X152637002Y-82796252D01*
X152795750Y-82955000D01*
X152912202Y-82944226D01*
X153031442Y-82906441D01*
X153141020Y-82846118D01*
X153236724Y-82765578D01*
X153314876Y-82667914D01*
X153372473Y-82556879D01*
X153407301Y-82436742D01*
X153418023Y-82312119D01*
X153415000Y-82285750D01*
X153256250Y-82127000D01*
X152637000Y-82127000D01*
X152637000Y-82147000D01*
X152398072Y-82147000D01*
X152398072Y-81815000D01*
X152383218Y-81664181D01*
X152383000Y-81663462D01*
X152383000Y-81203750D01*
X152637000Y-81203750D01*
X152637000Y-81873000D01*
X153256250Y-81873000D01*
X153415000Y-81714250D01*
X153418023Y-81687881D01*
X153407301Y-81563258D01*
X153372473Y-81443121D01*
X153314876Y-81332086D01*
X153236724Y-81234422D01*
X153141020Y-81153882D01*
X153031442Y-81093559D01*
X152912202Y-81055774D01*
X152795750Y-81045000D01*
X152637000Y-81203750D01*
X152383000Y-81203750D01*
X152224250Y-81045000D01*
X152107798Y-81055774D01*
X151988558Y-81093559D01*
X151948549Y-81115584D01*
X151920842Y-81100775D01*
X151775819Y-81056782D01*
X151625000Y-81041928D01*
X151355000Y-81041928D01*
X151204181Y-81056782D01*
X151059158Y-81100775D01*
X150925504Y-81172214D01*
X150808356Y-81268356D01*
X150712214Y-81385504D01*
X150640775Y-81519158D01*
X150596782Y-81664181D01*
X150581928Y-81815000D01*
X150581928Y-82185000D01*
X150596782Y-82335819D01*
X150607890Y-82372435D01*
X150568595Y-82431244D01*
X150490574Y-82619602D01*
X150450800Y-82819561D01*
X150450800Y-83023439D01*
X150490574Y-83223398D01*
X150568595Y-83411756D01*
X150604171Y-83465000D01*
X150529161Y-83465000D01*
X150329202Y-83504774D01*
X150140844Y-83582795D01*
X149971326Y-83696063D01*
X149827163Y-83840226D01*
X149713895Y-84009744D01*
X149635874Y-84198102D01*
X149596100Y-84398061D01*
X147918072Y-84398061D01*
X147918072Y-84330000D01*
X147903122Y-84178206D01*
X147858845Y-84032245D01*
X147833000Y-83983892D01*
X147833000Y-83713750D01*
X148087000Y-83713750D01*
X148087000Y-84373000D01*
X148716250Y-84373000D01*
X148875000Y-84214250D01*
X148878065Y-84192923D01*
X148866375Y-84068387D01*
X148830614Y-83948524D01*
X148772156Y-83837941D01*
X148693247Y-83740887D01*
X148596921Y-83661092D01*
X148486878Y-83601623D01*
X148367348Y-83564765D01*
X148245750Y-83555000D01*
X148087000Y-83713750D01*
X147833000Y-83713750D01*
X147674250Y-83555000D01*
X147552652Y-83564765D01*
X147433122Y-83601623D01*
X147423491Y-83606828D01*
X147291794Y-83566878D01*
X147140000Y-83551928D01*
X146860000Y-83551928D01*
X146708206Y-83566878D01*
X146562245Y-83611155D01*
X146427726Y-83683057D01*
X146382311Y-83720328D01*
X146193139Y-83682700D01*
X145989261Y-83682700D01*
X145789302Y-83722474D01*
X145600944Y-83800495D01*
X145431426Y-83913763D01*
X145287263Y-84057926D01*
X145173995Y-84227444D01*
X145095974Y-84415802D01*
X145056200Y-84615761D01*
X143538072Y-84615761D01*
X143538072Y-82350000D01*
X143525812Y-82225518D01*
X143489502Y-82105820D01*
X143430537Y-81995506D01*
X143351185Y-81898815D01*
X143254494Y-81819463D01*
X143144180Y-81760498D01*
X143024482Y-81724188D01*
X142900000Y-81711928D01*
X140400000Y-81711928D01*
X140275518Y-81724188D01*
X140155820Y-81760498D01*
X140045506Y-81819463D01*
X139948815Y-81898815D01*
X139869463Y-81995506D01*
X139810498Y-82105820D01*
X139774188Y-82225518D01*
X139761928Y-82350000D01*
X139238072Y-82350000D01*
X139225812Y-82225518D01*
X139189502Y-82105820D01*
X139130537Y-81995506D01*
X139051185Y-81898815D01*
X138954494Y-81819463D01*
X138844180Y-81760498D01*
X138725120Y-81724381D01*
X141512902Y-78936600D01*
X144545000Y-78936600D01*
X144545000Y-79478000D01*
X145553000Y-79478000D01*
X145553000Y-79458000D01*
X145807000Y-79458000D01*
X145807000Y-79478000D01*
X145827000Y-79478000D01*
X145827000Y-79732000D01*
X145807000Y-79732000D01*
X145807000Y-79752000D01*
X145553000Y-79752000D01*
X145553000Y-79732000D01*
X144545000Y-79732000D01*
X144545000Y-80282000D01*
X144591585Y-80500987D01*
X144679997Y-80706678D01*
X144806839Y-80891169D01*
X144967236Y-81047369D01*
X145155024Y-81169276D01*
X145296560Y-81219929D01*
X145292263Y-81224226D01*
X145178995Y-81393744D01*
X145100974Y-81582102D01*
X145061200Y-81782061D01*
X145061200Y-81985939D01*
X145100974Y-82185898D01*
X145178995Y-82374256D01*
X145292263Y-82543774D01*
X145436426Y-82687937D01*
X145605944Y-82801205D01*
X145794302Y-82879226D01*
X145994261Y-82919000D01*
X146198139Y-82919000D01*
X146398098Y-82879226D01*
X146473393Y-82848038D01*
X146569158Y-82899225D01*
X146714181Y-82943218D01*
X146865000Y-82958072D01*
X147135000Y-82958072D01*
X147285819Y-82943218D01*
X147430842Y-82899225D01*
X147458549Y-82884416D01*
X147498558Y-82906441D01*
X147617798Y-82944226D01*
X147734250Y-82955000D01*
X147893000Y-82796250D01*
X147893000Y-82336538D01*
X147893218Y-82335819D01*
X147908072Y-82185000D01*
X147908072Y-82127000D01*
X148147000Y-82127000D01*
X148147000Y-82796250D01*
X148305750Y-82955000D01*
X148422202Y-82944226D01*
X148541442Y-82906441D01*
X148651020Y-82846118D01*
X148746724Y-82765578D01*
X148824876Y-82667914D01*
X148882473Y-82556879D01*
X148917301Y-82436742D01*
X148928023Y-82312119D01*
X148925000Y-82285750D01*
X148766250Y-82127000D01*
X148147000Y-82127000D01*
X147908072Y-82127000D01*
X147908072Y-81815000D01*
X147893218Y-81664181D01*
X147893000Y-81663462D01*
X147893000Y-81203750D01*
X148147000Y-81203750D01*
X148147000Y-81873000D01*
X148766250Y-81873000D01*
X148925000Y-81714250D01*
X148928023Y-81687881D01*
X148917301Y-81563258D01*
X148882473Y-81443121D01*
X148824876Y-81332086D01*
X148746724Y-81234422D01*
X148651020Y-81153882D01*
X148541442Y-81093559D01*
X148422202Y-81055774D01*
X148305750Y-81045000D01*
X148147000Y-81203750D01*
X147893000Y-81203750D01*
X147734250Y-81045000D01*
X147617798Y-81055774D01*
X147498558Y-81093559D01*
X147458549Y-81115584D01*
X147430842Y-81100775D01*
X147285819Y-81056782D01*
X147135000Y-81041928D01*
X146865000Y-81041928D01*
X146720239Y-81056185D01*
X146586456Y-80966795D01*
X146508613Y-80934551D01*
X146553161Y-80891169D01*
X146680003Y-80706678D01*
X146768415Y-80500987D01*
X146815000Y-80282000D01*
X146815000Y-80021904D01*
X146829978Y-80028108D01*
X147015448Y-80065000D01*
X147204552Y-80065000D01*
X147390022Y-80028108D01*
X147564731Y-79955741D01*
X147721964Y-79850681D01*
X147855681Y-79716964D01*
X147960741Y-79559731D01*
X148033108Y-79385022D01*
X148070000Y-79199552D01*
X148070000Y-79010448D01*
X148055311Y-78936600D01*
X151944689Y-78936600D01*
X151930000Y-79010448D01*
X151930000Y-79199552D01*
X151966892Y-79385022D01*
X152039259Y-79559731D01*
X152144319Y-79716964D01*
X152278036Y-79850681D01*
X152435269Y-79955741D01*
X152609978Y-80028108D01*
X152795448Y-80065000D01*
X152984552Y-80065000D01*
X153170022Y-80028108D01*
X153185000Y-80021904D01*
X153185000Y-80282000D01*
X153231585Y-80500987D01*
X153319997Y-80706678D01*
X153446839Y-80891169D01*
X153607236Y-81047369D01*
X153795024Y-81169276D01*
X154018126Y-81249119D01*
X154193000Y-81122954D01*
X154193000Y-79732000D01*
X154447000Y-79732000D01*
X154447000Y-81122954D01*
X154621874Y-81249119D01*
X154844976Y-81169276D01*
X155032764Y-81047369D01*
X155193161Y-80891169D01*
X155320003Y-80706678D01*
X155408415Y-80500987D01*
X155455000Y-80282000D01*
X155455000Y-79732000D01*
X154447000Y-79732000D01*
X154193000Y-79732000D01*
X154173000Y-79732000D01*
X154173000Y-79478000D01*
X154193000Y-79478000D01*
X154193000Y-79458000D01*
X154447000Y-79458000D01*
X154447000Y-79478000D01*
X155455000Y-79478000D01*
X155455000Y-78936600D01*
X158487099Y-78936600D01*
X161274880Y-81724382D01*
X161155820Y-81760498D01*
X161045506Y-81819463D01*
X160948815Y-81898815D01*
X160869463Y-81995506D01*
X160810498Y-82105820D01*
X160774188Y-82225518D01*
X160761928Y-82350000D01*
X160761928Y-84650000D01*
X160774188Y-84774482D01*
X160810498Y-84894180D01*
X160869463Y-85004494D01*
X160948815Y-85101185D01*
X161045506Y-85180537D01*
X161155820Y-85239502D01*
X161275518Y-85275812D01*
X161400000Y-85288072D01*
X161890001Y-85288072D01*
X161890000Y-86656339D01*
X161652337Y-86894002D01*
X161462463Y-87178169D01*
X161331675Y-87493919D01*
X161265000Y-87829117D01*
X161265000Y-88170883D01*
X161331675Y-88506081D01*
X161462463Y-88821831D01*
X161652337Y-89105998D01*
X161894002Y-89347663D01*
X162178169Y-89537537D01*
X162493919Y-89668325D01*
X162829117Y-89735000D01*
X163170883Y-89735000D01*
X163506081Y-89668325D01*
X163821831Y-89537537D01*
X164105998Y-89347663D01*
X164347663Y-89105998D01*
X164537537Y-88821831D01*
X164668325Y-88506081D01*
X164735000Y-88170883D01*
X164735000Y-87829117D01*
X164668325Y-87493919D01*
X164537537Y-87178169D01*
X164347663Y-86894002D01*
X164105998Y-86652337D01*
X163821831Y-86462463D01*
X163506081Y-86331675D01*
X163410000Y-86312563D01*
X163410000Y-85288072D01*
X163900000Y-85288072D01*
X164024482Y-85275812D01*
X164144180Y-85239502D01*
X164254494Y-85180537D01*
X164351185Y-85101185D01*
X164430537Y-85004494D01*
X164489502Y-84894180D01*
X164525812Y-84774482D01*
X164538072Y-84650000D01*
X164538072Y-82350000D01*
X164525812Y-82225518D01*
X164489502Y-82105820D01*
X164430537Y-81995506D01*
X164351185Y-81898815D01*
X164254494Y-81819463D01*
X164144180Y-81760498D01*
X164024482Y-81724188D01*
X163900000Y-81711928D01*
X163344575Y-81711928D01*
X163284974Y-81600424D01*
X163190001Y-81484699D01*
X163161003Y-81460901D01*
X159365704Y-77665603D01*
X159341901Y-77636599D01*
X159226176Y-77541626D01*
X159094147Y-77471054D01*
X158950886Y-77427597D01*
X158839233Y-77416600D01*
X158839222Y-77416600D01*
X158801900Y-77412924D01*
X158764578Y-77416600D01*
X141235422Y-77416600D01*
X141198099Y-77412924D01*
X141160776Y-77416600D01*
X141160767Y-77416600D01*
X141049114Y-77427597D01*
X140905853Y-77471054D01*
X140773824Y-77541626D01*
X140658099Y-77636599D01*
X140634301Y-77665597D01*
X136838998Y-81460901D01*
X136810000Y-81484699D01*
X136786202Y-81513697D01*
X136786201Y-81513698D01*
X136715026Y-81600424D01*
X136655425Y-81711928D01*
X136100000Y-81711928D01*
X135975518Y-81724188D01*
X135855820Y-81760498D01*
X135745506Y-81819463D01*
X135648815Y-81898815D01*
X135569463Y-81995506D01*
X135510498Y-82105820D01*
X135474188Y-82225518D01*
X135461928Y-82350000D01*
X129160000Y-82350000D01*
X129160000Y-75552000D01*
X144545000Y-75552000D01*
X144545000Y-75852000D01*
X144591585Y-76070987D01*
X144679997Y-76276678D01*
X144806839Y-76461169D01*
X144967236Y-76617369D01*
X145155024Y-76739276D01*
X145378126Y-76819119D01*
X145553000Y-76692954D01*
X145553000Y-75552000D01*
X145807000Y-75552000D01*
X145807000Y-76692954D01*
X145981874Y-76819119D01*
X146204976Y-76739276D01*
X146392764Y-76617369D01*
X146553161Y-76461169D01*
X146680003Y-76276678D01*
X146768415Y-76070987D01*
X146815000Y-75852000D01*
X146815000Y-75552000D01*
X153185000Y-75552000D01*
X153185000Y-75852000D01*
X153231585Y-76070987D01*
X153319997Y-76276678D01*
X153446839Y-76461169D01*
X153607236Y-76617369D01*
X153795024Y-76739276D01*
X154018126Y-76819119D01*
X154193000Y-76692954D01*
X154193000Y-75552000D01*
X154447000Y-75552000D01*
X154447000Y-76692954D01*
X154621874Y-76819119D01*
X154844976Y-76739276D01*
X155032764Y-76617369D01*
X155193161Y-76461169D01*
X155320003Y-76276678D01*
X155408415Y-76070987D01*
X155455000Y-75852000D01*
X155455000Y-75552000D01*
X154447000Y-75552000D01*
X154193000Y-75552000D01*
X153185000Y-75552000D01*
X146815000Y-75552000D01*
X145807000Y-75552000D01*
X145553000Y-75552000D01*
X144545000Y-75552000D01*
X129160000Y-75552000D01*
X129160000Y-74998000D01*
X144545000Y-74998000D01*
X144545000Y-75298000D01*
X145553000Y-75298000D01*
X145553000Y-74157046D01*
X145807000Y-74157046D01*
X145807000Y-75298000D01*
X146815000Y-75298000D01*
X146815000Y-74998000D01*
X153185000Y-74998000D01*
X153185000Y-75298000D01*
X154193000Y-75298000D01*
X154193000Y-74157046D01*
X154447000Y-74157046D01*
X154447000Y-75298000D01*
X155455000Y-75298000D01*
X155455000Y-74998000D01*
X155408415Y-74779013D01*
X155320003Y-74573322D01*
X155193161Y-74388831D01*
X155032764Y-74232631D01*
X154844976Y-74110724D01*
X154621874Y-74030881D01*
X154447000Y-74157046D01*
X154193000Y-74157046D01*
X154018126Y-74030881D01*
X153795024Y-74110724D01*
X153607236Y-74232631D01*
X153446839Y-74388831D01*
X153319997Y-74573322D01*
X153231585Y-74779013D01*
X153185000Y-74998000D01*
X146815000Y-74998000D01*
X146768415Y-74779013D01*
X146680003Y-74573322D01*
X146553161Y-74388831D01*
X146392764Y-74232631D01*
X146204976Y-74110724D01*
X145981874Y-74030881D01*
X145807000Y-74157046D01*
X145553000Y-74157046D01*
X145378126Y-74030881D01*
X145155024Y-74110724D01*
X144967236Y-74232631D01*
X144806839Y-74388831D01*
X144679997Y-74573322D01*
X144591585Y-74779013D01*
X144545000Y-74998000D01*
X129160000Y-74998000D01*
X129160000Y-73532279D01*
X129169580Y-73434576D01*
X129188580Y-73371644D01*
X129219445Y-73313595D01*
X129260989Y-73262657D01*
X129311644Y-73220752D01*
X129369471Y-73189485D01*
X129432272Y-73170044D01*
X129527835Y-73160000D01*
X170467721Y-73160000D01*
X170565424Y-73169580D01*
%TA.AperFunction,Conductor*%
D18*
G36*
X170565424Y-73169580D02*
G01*
X170628356Y-73188580D01*
X170686405Y-73219445D01*
X170737343Y-73260989D01*
X170779248Y-73311644D01*
X170810515Y-73369471D01*
X170829956Y-73432272D01*
X170840001Y-73527845D01*
X170840000Y-118467721D01*
X170830420Y-118565424D01*
X170811420Y-118628357D01*
X170780554Y-118686406D01*
X170739011Y-118737343D01*
X170688356Y-118779248D01*
X170630529Y-118810515D01*
X170567728Y-118829956D01*
X170472165Y-118840000D01*
X129532279Y-118840000D01*
X129434576Y-118830420D01*
X129371643Y-118811420D01*
X129313594Y-118780554D01*
X129262657Y-118739011D01*
X129220752Y-118688356D01*
X129189485Y-118630529D01*
X129170044Y-118567728D01*
X129160000Y-118472165D01*
X129160000Y-92933740D01*
X132895000Y-92933740D01*
X132895000Y-93226260D01*
X132952068Y-93513158D01*
X133064010Y-93783411D01*
X133226525Y-94026632D01*
X133433368Y-94233475D01*
X133676589Y-94395990D01*
X133946842Y-94507932D01*
X134233740Y-94565000D01*
X134526260Y-94565000D01*
X134813158Y-94507932D01*
X134890001Y-94476103D01*
X134890000Y-108075078D01*
X134886324Y-108112400D01*
X134890000Y-108149722D01*
X134890000Y-108149732D01*
X134900997Y-108261385D01*
X134917739Y-108316576D01*
X134944454Y-108404646D01*
X135015026Y-108536676D01*
X135054871Y-108585226D01*
X135109999Y-108652401D01*
X135139003Y-108676204D01*
X140465301Y-114002503D01*
X140489099Y-114031501D01*
X140604824Y-114126474D01*
X140736853Y-114197046D01*
X140880114Y-114240503D01*
X140991767Y-114251500D01*
X140991776Y-114251500D01*
X141029099Y-114255176D01*
X141066422Y-114251500D01*
X144147778Y-114251500D01*
X144185100Y-114255176D01*
X144222422Y-114251500D01*
X144222433Y-114251500D01*
X144334086Y-114240503D01*
X144477347Y-114197046D01*
X144609376Y-114126474D01*
X144635177Y-114105300D01*
X144708239Y-114105300D01*
X144908198Y-114065526D01*
X145096556Y-113987505D01*
X145266074Y-113874237D01*
X145410237Y-113730074D01*
X145523505Y-113560556D01*
X145600095Y-113375653D01*
X145778198Y-113340226D01*
X145966556Y-113262205D01*
X146136074Y-113148937D01*
X146280237Y-113004774D01*
X146393505Y-112835256D01*
X146471526Y-112646898D01*
X146488212Y-112563013D01*
X147740001Y-113814803D01*
X147740000Y-115296289D01*
X147696063Y-115340226D01*
X147582795Y-115509744D01*
X147504774Y-115698102D01*
X147465000Y-115898061D01*
X147465000Y-116101939D01*
X147504774Y-116301898D01*
X147582795Y-116490256D01*
X147696063Y-116659774D01*
X147840226Y-116803937D01*
X148009744Y-116917205D01*
X148198102Y-116995226D01*
X148398061Y-117035000D01*
X148601939Y-117035000D01*
X148801898Y-116995226D01*
X148990256Y-116917205D01*
X149159774Y-116803937D01*
X149303937Y-116659774D01*
X149417205Y-116490256D01*
X149495226Y-116301898D01*
X149535000Y-116101939D01*
X149535000Y-115898061D01*
X149965000Y-115898061D01*
X149965000Y-116101939D01*
X150004774Y-116301898D01*
X150082795Y-116490256D01*
X150196063Y-116659774D01*
X150340226Y-116803937D01*
X150509744Y-116917205D01*
X150698102Y-116995226D01*
X150898061Y-117035000D01*
X151101939Y-117035000D01*
X151301898Y-116995226D01*
X151490256Y-116917205D01*
X151659774Y-116803937D01*
X151803937Y-116659774D01*
X151917205Y-116490256D01*
X151995226Y-116301898D01*
X152035000Y-116101939D01*
X152035000Y-115898061D01*
X151995226Y-115698102D01*
X151917205Y-115509744D01*
X151803937Y-115340226D01*
X151760000Y-115296289D01*
X151760000Y-113814801D01*
X153436730Y-112138072D01*
X156250000Y-112138072D01*
X156374482Y-112125812D01*
X156494180Y-112089502D01*
X156604494Y-112030537D01*
X156701185Y-111951185D01*
X156780537Y-111854494D01*
X156839502Y-111744180D01*
X156875812Y-111624482D01*
X156888072Y-111500000D01*
X156888072Y-109500000D01*
X156875812Y-109375518D01*
X156839502Y-109255820D01*
X156780537Y-109145506D01*
X156701185Y-109048815D01*
X156604494Y-108969463D01*
X156494180Y-108910498D01*
X156374482Y-108874188D01*
X156250000Y-108861928D01*
X151750000Y-108861928D01*
X151625518Y-108874188D01*
X151505820Y-108910498D01*
X151395506Y-108969463D01*
X151298815Y-109048815D01*
X151219463Y-109145506D01*
X151160498Y-109255820D01*
X151124188Y-109375518D01*
X151111928Y-109500000D01*
X151111928Y-111500000D01*
X151124188Y-111624482D01*
X151160498Y-111744180D01*
X151219463Y-111854494D01*
X151298815Y-111951185D01*
X151395042Y-112030156D01*
X150488998Y-112936201D01*
X150460000Y-112959999D01*
X150436202Y-112988997D01*
X150436201Y-112988998D01*
X150365026Y-113075724D01*
X150294454Y-113207754D01*
X150265744Y-113302401D01*
X150253577Y-113342514D01*
X150250998Y-113351015D01*
X150236324Y-113500000D01*
X150240001Y-113537332D01*
X150240000Y-115296289D01*
X150196063Y-115340226D01*
X150082795Y-115509744D01*
X150004774Y-115698102D01*
X149965000Y-115898061D01*
X149535000Y-115898061D01*
X149495226Y-115698102D01*
X149417205Y-115509744D01*
X149303937Y-115340226D01*
X149260000Y-115296289D01*
X149260000Y-113537325D01*
X149263676Y-113500000D01*
X149260000Y-113462675D01*
X149260000Y-113462667D01*
X149249003Y-113351014D01*
X149205546Y-113207753D01*
X149134974Y-113075724D01*
X149040001Y-112959999D01*
X149011003Y-112936201D01*
X148104958Y-112030156D01*
X148201185Y-111951185D01*
X148280537Y-111854494D01*
X148339502Y-111744180D01*
X148375812Y-111624482D01*
X148388072Y-111500000D01*
X148388072Y-109500000D01*
X148375812Y-109375518D01*
X148339502Y-109255820D01*
X148280537Y-109145506D01*
X148201185Y-109048815D01*
X148104494Y-108969463D01*
X147994180Y-108910498D01*
X147874482Y-108874188D01*
X147750000Y-108861928D01*
X144484174Y-108861928D01*
X144693802Y-108652300D01*
X151213278Y-108652300D01*
X151250600Y-108655976D01*
X151287922Y-108652300D01*
X151287933Y-108652300D01*
X151399586Y-108641303D01*
X151542847Y-108597846D01*
X151674876Y-108527274D01*
X151790601Y-108432301D01*
X151814404Y-108403297D01*
X157161003Y-103056699D01*
X157190001Y-103032901D01*
X157284974Y-102917176D01*
X157355546Y-102785147D01*
X157399003Y-102641886D01*
X157410000Y-102530233D01*
X157410000Y-102530225D01*
X157413676Y-102492900D01*
X157410000Y-102455575D01*
X157410000Y-92820475D01*
X157825000Y-92820475D01*
X157825000Y-93339525D01*
X157926261Y-93848601D01*
X158124893Y-94328141D01*
X158413262Y-94759715D01*
X158780285Y-95126738D01*
X159211859Y-95415107D01*
X159691399Y-95613739D01*
X160200475Y-95715000D01*
X160719525Y-95715000D01*
X161228601Y-95613739D01*
X161708141Y-95415107D01*
X162139715Y-95126738D01*
X162506738Y-94759715D01*
X162795107Y-94328141D01*
X162993739Y-93848601D01*
X163095000Y-93339525D01*
X163095000Y-92933740D01*
X164055000Y-92933740D01*
X164055000Y-93226260D01*
X164112068Y-93513158D01*
X164224010Y-93783411D01*
X164386525Y-94026632D01*
X164593368Y-94233475D01*
X164836589Y-94395990D01*
X165106842Y-94507932D01*
X165393740Y-94565000D01*
X165686260Y-94565000D01*
X165973158Y-94507932D01*
X166243411Y-94395990D01*
X166486632Y-94233475D01*
X166693475Y-94026632D01*
X166855990Y-93783411D01*
X166967932Y-93513158D01*
X167025000Y-93226260D01*
X167025000Y-92933740D01*
X166967932Y-92646842D01*
X166855990Y-92376589D01*
X166693475Y-92133368D01*
X166486632Y-91926525D01*
X166243411Y-91764010D01*
X165973158Y-91652068D01*
X165686260Y-91595000D01*
X165393740Y-91595000D01*
X165106842Y-91652068D01*
X164836589Y-91764010D01*
X164593368Y-91926525D01*
X164386525Y-92133368D01*
X164224010Y-92376589D01*
X164112068Y-92646842D01*
X164055000Y-92933740D01*
X163095000Y-92933740D01*
X163095000Y-92820475D01*
X162993739Y-92311399D01*
X162795107Y-91831859D01*
X162506738Y-91400285D01*
X162139715Y-91033262D01*
X161708141Y-90744893D01*
X161228601Y-90546261D01*
X160719525Y-90445000D01*
X160200475Y-90445000D01*
X159691399Y-90546261D01*
X159211859Y-90744893D01*
X158780285Y-91033262D01*
X158413262Y-91400285D01*
X158124893Y-91831859D01*
X157926261Y-92311399D01*
X157825000Y-92820475D01*
X157410000Y-92820475D01*
X157410000Y-92103148D01*
X157471831Y-92077537D01*
X157755998Y-91887663D01*
X157997663Y-91645998D01*
X158187537Y-91361831D01*
X158318325Y-91046081D01*
X158385000Y-90710883D01*
X158385000Y-90369117D01*
X158318325Y-90033919D01*
X158187537Y-89718169D01*
X157997663Y-89434002D01*
X157755998Y-89192337D01*
X157471831Y-89002463D01*
X157156081Y-88871675D01*
X156820883Y-88805000D01*
X156479117Y-88805000D01*
X156143919Y-88871675D01*
X155828169Y-89002463D01*
X155544002Y-89192337D01*
X155302337Y-89434002D01*
X155112463Y-89718169D01*
X154981675Y-90033919D01*
X154915000Y-90369117D01*
X154915000Y-90710883D01*
X154981675Y-91046081D01*
X155112463Y-91361831D01*
X155268261Y-91595000D01*
X155233740Y-91595000D01*
X154946842Y-91652068D01*
X154676589Y-91764010D01*
X154433368Y-91926525D01*
X154226525Y-92133368D01*
X154064010Y-92376589D01*
X153952068Y-92646842D01*
X153895000Y-92933740D01*
X153895000Y-93226260D01*
X153952068Y-93513158D01*
X154064010Y-93783411D01*
X154226525Y-94026632D01*
X154433368Y-94233475D01*
X154676589Y-94395990D01*
X154946842Y-94507932D01*
X155233740Y-94565000D01*
X155526260Y-94565000D01*
X155813158Y-94507932D01*
X155890000Y-94476103D01*
X155890001Y-102178097D01*
X153847400Y-104220698D01*
X153847400Y-90552701D01*
X158861003Y-85539099D01*
X158890001Y-85515301D01*
X158984974Y-85399576D01*
X159044575Y-85288072D01*
X159600000Y-85288072D01*
X159724482Y-85275812D01*
X159844180Y-85239502D01*
X159954494Y-85180537D01*
X160051185Y-85101185D01*
X160130537Y-85004494D01*
X160189502Y-84894180D01*
X160225812Y-84774482D01*
X160238072Y-84650000D01*
X160238072Y-82350000D01*
X160225812Y-82225518D01*
X160189502Y-82105820D01*
X160130537Y-81995506D01*
X160051185Y-81898815D01*
X159954494Y-81819463D01*
X159844180Y-81760498D01*
X159724482Y-81724188D01*
X159600000Y-81711928D01*
X157100000Y-81711928D01*
X156975518Y-81724188D01*
X156855820Y-81760498D01*
X156745506Y-81819463D01*
X156648815Y-81898815D01*
X156569463Y-81995506D01*
X156510498Y-82105820D01*
X156474188Y-82225518D01*
X156461928Y-82350000D01*
X156461928Y-84650000D01*
X156474188Y-84774482D01*
X156510498Y-84894180D01*
X156569463Y-85004494D01*
X156648815Y-85101185D01*
X156745506Y-85180537D01*
X156855820Y-85239502D01*
X156974880Y-85275618D01*
X152576398Y-89674101D01*
X152547400Y-89697899D01*
X152523602Y-89726897D01*
X152523601Y-89726898D01*
X152452426Y-89813624D01*
X152381854Y-89945654D01*
X152338398Y-90088915D01*
X152323724Y-90237900D01*
X152327401Y-90275233D01*
X152327400Y-104053169D01*
X152188206Y-104066878D01*
X152056509Y-104106828D01*
X152046878Y-104101623D01*
X151927348Y-104064765D01*
X151805750Y-104055000D01*
X151647000Y-104213750D01*
X151647000Y-104483892D01*
X151621155Y-104532245D01*
X151576878Y-104678206D01*
X151561928Y-104830000D01*
X151561928Y-104934070D01*
X151368999Y-105127000D01*
X150763750Y-105127000D01*
X150605000Y-105285750D01*
X150601935Y-105307077D01*
X150610892Y-105402500D01*
X147107411Y-105402500D01*
X147063474Y-105358563D01*
X146893956Y-105245295D01*
X146705598Y-105167274D01*
X146505639Y-105127500D01*
X146301761Y-105127500D01*
X146101802Y-105167274D01*
X145913444Y-105245295D01*
X145743926Y-105358563D01*
X145699989Y-105402500D01*
X144872323Y-105402500D01*
X144835000Y-105398824D01*
X144797677Y-105402500D01*
X144797667Y-105402500D01*
X144686014Y-105413497D01*
X144542753Y-105456954D01*
X144410724Y-105527526D01*
X144294999Y-105622499D01*
X144271201Y-105651497D01*
X140597503Y-109325196D01*
X140568499Y-109348999D01*
X140513371Y-109416174D01*
X140473526Y-109464724D01*
X140442064Y-109523585D01*
X140402954Y-109596754D01*
X140359497Y-109740015D01*
X140348500Y-109851668D01*
X140348500Y-109851678D01*
X140344824Y-109889000D01*
X140348500Y-109926323D01*
X140348501Y-111736099D01*
X136410000Y-107797599D01*
X136410000Y-104692923D01*
X150601935Y-104692923D01*
X150605000Y-104714250D01*
X150763750Y-104873000D01*
X151393000Y-104873000D01*
X151393000Y-104213750D01*
X151234250Y-104055000D01*
X151112652Y-104064765D01*
X150993122Y-104101623D01*
X150883079Y-104161092D01*
X150786753Y-104240887D01*
X150707844Y-104337941D01*
X150649386Y-104448524D01*
X150613625Y-104568387D01*
X150601935Y-104692923D01*
X136410000Y-104692923D01*
X136410000Y-92820475D01*
X136825000Y-92820475D01*
X136825000Y-93339525D01*
X136926261Y-93848601D01*
X137124893Y-94328141D01*
X137413262Y-94759715D01*
X137780285Y-95126738D01*
X138211859Y-95415107D01*
X138691399Y-95613739D01*
X139200475Y-95715000D01*
X139719525Y-95715000D01*
X140228601Y-95613739D01*
X140708141Y-95415107D01*
X141139715Y-95126738D01*
X141506738Y-94759715D01*
X141795107Y-94328141D01*
X141993739Y-93848601D01*
X142095000Y-93339525D01*
X142095000Y-92933740D01*
X143055000Y-92933740D01*
X143055000Y-93226260D01*
X143112068Y-93513158D01*
X143224010Y-93783411D01*
X143386525Y-94026632D01*
X143593368Y-94233475D01*
X143836589Y-94395990D01*
X144106842Y-94507932D01*
X144393740Y-94565000D01*
X144686260Y-94565000D01*
X144973158Y-94507932D01*
X145243411Y-94395990D01*
X145486632Y-94233475D01*
X145693475Y-94026632D01*
X145855990Y-93783411D01*
X145967932Y-93513158D01*
X146025000Y-93226260D01*
X146025000Y-92933740D01*
X145967932Y-92646842D01*
X145855990Y-92376589D01*
X145693475Y-92133368D01*
X145486632Y-91926525D01*
X145243411Y-91764010D01*
X144973158Y-91652068D01*
X144686260Y-91595000D01*
X144393740Y-91595000D01*
X144106842Y-91652068D01*
X143836589Y-91764010D01*
X143593368Y-91926525D01*
X143386525Y-92133368D01*
X143224010Y-92376589D01*
X143112068Y-92646842D01*
X143055000Y-92933740D01*
X142095000Y-92933740D01*
X142095000Y-92820475D01*
X141993739Y-92311399D01*
X141795107Y-91831859D01*
X141506738Y-91400285D01*
X141139715Y-91033262D01*
X140708141Y-90744893D01*
X140228601Y-90546261D01*
X139719525Y-90445000D01*
X139200475Y-90445000D01*
X138691399Y-90546261D01*
X138211859Y-90744893D01*
X137780285Y-91033262D01*
X137413262Y-91400285D01*
X137124893Y-91831859D01*
X136926261Y-92311399D01*
X136825000Y-92820475D01*
X136410000Y-92820475D01*
X136410000Y-92103148D01*
X136471831Y-92077537D01*
X136755998Y-91887663D01*
X136997663Y-91645998D01*
X137187537Y-91361831D01*
X137318325Y-91046081D01*
X137385000Y-90710883D01*
X137385000Y-90369117D01*
X137318325Y-90033919D01*
X137187537Y-89718169D01*
X136997663Y-89434002D01*
X136755998Y-89192337D01*
X136471831Y-89002463D01*
X136156081Y-88871675D01*
X135820883Y-88805000D01*
X135479117Y-88805000D01*
X135143919Y-88871675D01*
X134828169Y-89002463D01*
X134544002Y-89192337D01*
X134302337Y-89434002D01*
X134112463Y-89718169D01*
X133981675Y-90033919D01*
X133915000Y-90369117D01*
X133915000Y-90710883D01*
X133981675Y-91046081D01*
X134112463Y-91361831D01*
X134268261Y-91595000D01*
X134233740Y-91595000D01*
X133946842Y-91652068D01*
X133676589Y-91764010D01*
X133433368Y-91926525D01*
X133226525Y-92133368D01*
X133064010Y-92376589D01*
X132952068Y-92646842D01*
X132895000Y-92933740D01*
X129160000Y-92933740D01*
X129160000Y-82350000D01*
X135461928Y-82350000D01*
X135461928Y-84650000D01*
X135474188Y-84774482D01*
X135510498Y-84894180D01*
X135569463Y-85004494D01*
X135648815Y-85101185D01*
X135745506Y-85180537D01*
X135855820Y-85239502D01*
X135975518Y-85275812D01*
X136100000Y-85288072D01*
X138600000Y-85288072D01*
X138724482Y-85275812D01*
X138844180Y-85239502D01*
X138954494Y-85180537D01*
X139051185Y-85101185D01*
X139130537Y-85004494D01*
X139189502Y-84894180D01*
X139225812Y-84774482D01*
X139238072Y-84650000D01*
X139238072Y-82350000D01*
X139761928Y-82350000D01*
X139761928Y-84650000D01*
X139774188Y-84774482D01*
X139810498Y-84894180D01*
X139869463Y-85004494D01*
X139948815Y-85101185D01*
X140045506Y-85180537D01*
X140155820Y-85239502D01*
X140275518Y-85275812D01*
X140400000Y-85288072D01*
X140955425Y-85288072D01*
X141015026Y-85399576D01*
X141082158Y-85481376D01*
X141110000Y-85515301D01*
X141138998Y-85539099D01*
X141240001Y-85640102D01*
X141240001Y-86436852D01*
X141178169Y-86462463D01*
X140894002Y-86652337D01*
X140652337Y-86894002D01*
X140462463Y-87178169D01*
X140331675Y-87493919D01*
X140265000Y-87829117D01*
X140265000Y-88170883D01*
X140331675Y-88506081D01*
X140462463Y-88821831D01*
X140652337Y-89105998D01*
X140894002Y-89347663D01*
X141178169Y-89537537D01*
X141493919Y-89668325D01*
X141829117Y-89735000D01*
X142170883Y-89735000D01*
X142506081Y-89668325D01*
X142821831Y-89537537D01*
X143105998Y-89347663D01*
X143347663Y-89105998D01*
X143537537Y-88821831D01*
X143668325Y-88506081D01*
X143735000Y-88170883D01*
X143735000Y-87829117D01*
X143668325Y-87493919D01*
X143537537Y-87178169D01*
X143347663Y-86894002D01*
X143105998Y-86652337D01*
X142821831Y-86462463D01*
X142760000Y-86436852D01*
X142760000Y-85362625D01*
X142763676Y-85325300D01*
X142760010Y-85288072D01*
X142900000Y-85288072D01*
X143024482Y-85275812D01*
X143144180Y-85239502D01*
X143254494Y-85180537D01*
X143351185Y-85101185D01*
X143430537Y-85004494D01*
X143489502Y-84894180D01*
X143525812Y-84774482D01*
X143538072Y-84650000D01*
X143538072Y-84615761D01*
X145056200Y-84615761D01*
X145056200Y-84819639D01*
X145095974Y-85019598D01*
X145173995Y-85207956D01*
X145287263Y-85377474D01*
X145431426Y-85521637D01*
X145600944Y-85634905D01*
X145789302Y-85712926D01*
X145989261Y-85752700D01*
X146193139Y-85752700D01*
X146393098Y-85712926D01*
X146581456Y-85634905D01*
X146750974Y-85521637D01*
X146792211Y-85480400D01*
X146819622Y-85477700D01*
X146819633Y-85477700D01*
X146931286Y-85466703D01*
X146992705Y-85448072D01*
X147140000Y-85448072D01*
X147291794Y-85433122D01*
X147423491Y-85393172D01*
X147433122Y-85398377D01*
X147552652Y-85435235D01*
X147674250Y-85445000D01*
X147833000Y-85286250D01*
X147833000Y-85016108D01*
X147858845Y-84967755D01*
X147903122Y-84821794D01*
X147918072Y-84670000D01*
X147918072Y-84627000D01*
X148087000Y-84627000D01*
X148087000Y-85286250D01*
X148245750Y-85445000D01*
X148367348Y-85435235D01*
X148486878Y-85398377D01*
X148596921Y-85338908D01*
X148693247Y-85259113D01*
X148772156Y-85162059D01*
X148830614Y-85051476D01*
X148866375Y-84931613D01*
X148878065Y-84807077D01*
X148875000Y-84785750D01*
X148716250Y-84627000D01*
X148087000Y-84627000D01*
X147918072Y-84627000D01*
X147918072Y-84398061D01*
X149596100Y-84398061D01*
X149596100Y-84601939D01*
X149635874Y-84801898D01*
X149713895Y-84990256D01*
X149827163Y-85159774D01*
X149971326Y-85303937D01*
X150140844Y-85417205D01*
X150329202Y-85495226D01*
X150529161Y-85535000D01*
X150733039Y-85535000D01*
X150932998Y-85495226D01*
X151121356Y-85417205D01*
X151138335Y-85405860D01*
X151228206Y-85433122D01*
X151380000Y-85448072D01*
X151660000Y-85448072D01*
X151811794Y-85433122D01*
X151943491Y-85393172D01*
X151953122Y-85398377D01*
X152072652Y-85435235D01*
X152194250Y-85445000D01*
X152353000Y-85286250D01*
X152353000Y-85016108D01*
X152378845Y-84967755D01*
X152423122Y-84821794D01*
X152438072Y-84670000D01*
X152438072Y-84627000D01*
X152607000Y-84627000D01*
X152607000Y-85286250D01*
X152765750Y-85445000D01*
X152887348Y-85435235D01*
X153006878Y-85398377D01*
X153116921Y-85338908D01*
X153213247Y-85259113D01*
X153292156Y-85162059D01*
X153350614Y-85051476D01*
X153386375Y-84931613D01*
X153398065Y-84807077D01*
X153395000Y-84785750D01*
X153236250Y-84627000D01*
X152607000Y-84627000D01*
X152438072Y-84627000D01*
X152438072Y-84330000D01*
X152423122Y-84178206D01*
X152378845Y-84032245D01*
X152353000Y-83983892D01*
X152353000Y-83713750D01*
X152607000Y-83713750D01*
X152607000Y-84373000D01*
X153236250Y-84373000D01*
X153395000Y-84214250D01*
X153398065Y-84192923D01*
X153386375Y-84068387D01*
X153350614Y-83948524D01*
X153292156Y-83837941D01*
X153213247Y-83740887D01*
X153116921Y-83661092D01*
X153006878Y-83601623D01*
X152887348Y-83564765D01*
X152765750Y-83555000D01*
X152607000Y-83713750D01*
X152353000Y-83713750D01*
X152255131Y-83615881D01*
X152289737Y-83581274D01*
X152403005Y-83411756D01*
X152481026Y-83223398D01*
X152520800Y-83023439D01*
X152520800Y-82955000D01*
X152637002Y-82955000D01*
X152637002Y-82796252D01*
X152795750Y-82955000D01*
X152912202Y-82944226D01*
X153031442Y-82906441D01*
X153141020Y-82846118D01*
X153236724Y-82765578D01*
X153314876Y-82667914D01*
X153372473Y-82556879D01*
X153407301Y-82436742D01*
X153418023Y-82312119D01*
X153415000Y-82285750D01*
X153256250Y-82127000D01*
X152637000Y-82127000D01*
X152637000Y-82147000D01*
X152398072Y-82147000D01*
X152398072Y-81815000D01*
X152383218Y-81664181D01*
X152383000Y-81663462D01*
X152383000Y-81203750D01*
X152637000Y-81203750D01*
X152637000Y-81873000D01*
X153256250Y-81873000D01*
X153415000Y-81714250D01*
X153418023Y-81687881D01*
X153407301Y-81563258D01*
X153372473Y-81443121D01*
X153314876Y-81332086D01*
X153236724Y-81234422D01*
X153141020Y-81153882D01*
X153031442Y-81093559D01*
X152912202Y-81055774D01*
X152795750Y-81045000D01*
X152637000Y-81203750D01*
X152383000Y-81203750D01*
X152224250Y-81045000D01*
X152107798Y-81055774D01*
X151988558Y-81093559D01*
X151948549Y-81115584D01*
X151920842Y-81100775D01*
X151775819Y-81056782D01*
X151625000Y-81041928D01*
X151355000Y-81041928D01*
X151204181Y-81056782D01*
X151059158Y-81100775D01*
X150925504Y-81172214D01*
X150808356Y-81268356D01*
X150712214Y-81385504D01*
X150640775Y-81519158D01*
X150596782Y-81664181D01*
X150581928Y-81815000D01*
X150581928Y-82185000D01*
X150596782Y-82335819D01*
X150607890Y-82372435D01*
X150568595Y-82431244D01*
X150490574Y-82619602D01*
X150450800Y-82819561D01*
X150450800Y-83023439D01*
X150490574Y-83223398D01*
X150568595Y-83411756D01*
X150604171Y-83465000D01*
X150529161Y-83465000D01*
X150329202Y-83504774D01*
X150140844Y-83582795D01*
X149971326Y-83696063D01*
X149827163Y-83840226D01*
X149713895Y-84009744D01*
X149635874Y-84198102D01*
X149596100Y-84398061D01*
X147918072Y-84398061D01*
X147918072Y-84330000D01*
X147903122Y-84178206D01*
X147858845Y-84032245D01*
X147833000Y-83983892D01*
X147833000Y-83713750D01*
X148087000Y-83713750D01*
X148087000Y-84373000D01*
X148716250Y-84373000D01*
X148875000Y-84214250D01*
X148878065Y-84192923D01*
X148866375Y-84068387D01*
X148830614Y-83948524D01*
X148772156Y-83837941D01*
X148693247Y-83740887D01*
X148596921Y-83661092D01*
X148486878Y-83601623D01*
X148367348Y-83564765D01*
X148245750Y-83555000D01*
X148087000Y-83713750D01*
X147833000Y-83713750D01*
X147674250Y-83555000D01*
X147552652Y-83564765D01*
X147433122Y-83601623D01*
X147423491Y-83606828D01*
X147291794Y-83566878D01*
X147140000Y-83551928D01*
X146860000Y-83551928D01*
X146708206Y-83566878D01*
X146562245Y-83611155D01*
X146427726Y-83683057D01*
X146382311Y-83720328D01*
X146193139Y-83682700D01*
X145989261Y-83682700D01*
X145789302Y-83722474D01*
X145600944Y-83800495D01*
X145431426Y-83913763D01*
X145287263Y-84057926D01*
X145173995Y-84227444D01*
X145095974Y-84415802D01*
X145056200Y-84615761D01*
X143538072Y-84615761D01*
X143538072Y-82350000D01*
X143525812Y-82225518D01*
X143489502Y-82105820D01*
X143430537Y-81995506D01*
X143351185Y-81898815D01*
X143254494Y-81819463D01*
X143144180Y-81760498D01*
X143024482Y-81724188D01*
X142900000Y-81711928D01*
X140400000Y-81711928D01*
X140275518Y-81724188D01*
X140155820Y-81760498D01*
X140045506Y-81819463D01*
X139948815Y-81898815D01*
X139869463Y-81995506D01*
X139810498Y-82105820D01*
X139774188Y-82225518D01*
X139761928Y-82350000D01*
X139238072Y-82350000D01*
X139225812Y-82225518D01*
X139189502Y-82105820D01*
X139130537Y-81995506D01*
X139051185Y-81898815D01*
X138954494Y-81819463D01*
X138844180Y-81760498D01*
X138725120Y-81724381D01*
X141512902Y-78936600D01*
X144545000Y-78936600D01*
X144545000Y-79478000D01*
X145553000Y-79478000D01*
X145553000Y-79458000D01*
X145807000Y-79458000D01*
X145807000Y-79478000D01*
X145827000Y-79478000D01*
X145827000Y-79732000D01*
X145807000Y-79732000D01*
X145807000Y-79752000D01*
X145553000Y-79752000D01*
X145553000Y-79732000D01*
X144545000Y-79732000D01*
X144545000Y-80282000D01*
X144591585Y-80500987D01*
X144679997Y-80706678D01*
X144806839Y-80891169D01*
X144967236Y-81047369D01*
X145155024Y-81169276D01*
X145296560Y-81219929D01*
X145292263Y-81224226D01*
X145178995Y-81393744D01*
X145100974Y-81582102D01*
X145061200Y-81782061D01*
X145061200Y-81985939D01*
X145100974Y-82185898D01*
X145178995Y-82374256D01*
X145292263Y-82543774D01*
X145436426Y-82687937D01*
X145605944Y-82801205D01*
X145794302Y-82879226D01*
X145994261Y-82919000D01*
X146198139Y-82919000D01*
X146398098Y-82879226D01*
X146473393Y-82848038D01*
X146569158Y-82899225D01*
X146714181Y-82943218D01*
X146865000Y-82958072D01*
X147135000Y-82958072D01*
X147285819Y-82943218D01*
X147430842Y-82899225D01*
X147458549Y-82884416D01*
X147498558Y-82906441D01*
X147617798Y-82944226D01*
X147734250Y-82955000D01*
X147893000Y-82796250D01*
X147893000Y-82336538D01*
X147893218Y-82335819D01*
X147908072Y-82185000D01*
X147908072Y-82127000D01*
X148147000Y-82127000D01*
X148147000Y-82796250D01*
X148305750Y-82955000D01*
X148422202Y-82944226D01*
X148541442Y-82906441D01*
X148651020Y-82846118D01*
X148746724Y-82765578D01*
X148824876Y-82667914D01*
X148882473Y-82556879D01*
X148917301Y-82436742D01*
X148928023Y-82312119D01*
X148925000Y-82285750D01*
X148766250Y-82127000D01*
X148147000Y-82127000D01*
X147908072Y-82127000D01*
X147908072Y-81815000D01*
X147893218Y-81664181D01*
X147893000Y-81663462D01*
X147893000Y-81203750D01*
X148147000Y-81203750D01*
X148147000Y-81873000D01*
X148766250Y-81873000D01*
X148925000Y-81714250D01*
X148928023Y-81687881D01*
X148917301Y-81563258D01*
X148882473Y-81443121D01*
X148824876Y-81332086D01*
X148746724Y-81234422D01*
X148651020Y-81153882D01*
X148541442Y-81093559D01*
X148422202Y-81055774D01*
X148305750Y-81045000D01*
X148147000Y-81203750D01*
X147893000Y-81203750D01*
X147734250Y-81045000D01*
X147617798Y-81055774D01*
X147498558Y-81093559D01*
X147458549Y-81115584D01*
X147430842Y-81100775D01*
X147285819Y-81056782D01*
X147135000Y-81041928D01*
X146865000Y-81041928D01*
X146720239Y-81056185D01*
X146586456Y-80966795D01*
X146508613Y-80934551D01*
X146553161Y-80891169D01*
X146680003Y-80706678D01*
X146768415Y-80500987D01*
X146815000Y-80282000D01*
X146815000Y-80021904D01*
X146829978Y-80028108D01*
X147015448Y-80065000D01*
X147204552Y-80065000D01*
X147390022Y-80028108D01*
X147564731Y-79955741D01*
X147721964Y-79850681D01*
X147855681Y-79716964D01*
X147960741Y-79559731D01*
X148033108Y-79385022D01*
X148070000Y-79199552D01*
X148070000Y-79010448D01*
X148055311Y-78936600D01*
X151944689Y-78936600D01*
X151930000Y-79010448D01*
X151930000Y-79199552D01*
X151966892Y-79385022D01*
X152039259Y-79559731D01*
X152144319Y-79716964D01*
X152278036Y-79850681D01*
X152435269Y-79955741D01*
X152609978Y-80028108D01*
X152795448Y-80065000D01*
X152984552Y-80065000D01*
X153170022Y-80028108D01*
X153185000Y-80021904D01*
X153185000Y-80282000D01*
X153231585Y-80500987D01*
X153319997Y-80706678D01*
X153446839Y-80891169D01*
X153607236Y-81047369D01*
X153795024Y-81169276D01*
X154018126Y-81249119D01*
X154193000Y-81122954D01*
X154193000Y-79732000D01*
X154447000Y-79732000D01*
X154447000Y-81122954D01*
X154621874Y-81249119D01*
X154844976Y-81169276D01*
X155032764Y-81047369D01*
X155193161Y-80891169D01*
X155320003Y-80706678D01*
X155408415Y-80500987D01*
X155455000Y-80282000D01*
X155455000Y-79732000D01*
X154447000Y-79732000D01*
X154193000Y-79732000D01*
X154173000Y-79732000D01*
X154173000Y-79478000D01*
X154193000Y-79478000D01*
X154193000Y-79458000D01*
X154447000Y-79458000D01*
X154447000Y-79478000D01*
X155455000Y-79478000D01*
X155455000Y-78936600D01*
X158487099Y-78936600D01*
X161274880Y-81724382D01*
X161155820Y-81760498D01*
X161045506Y-81819463D01*
X160948815Y-81898815D01*
X160869463Y-81995506D01*
X160810498Y-82105820D01*
X160774188Y-82225518D01*
X160761928Y-82350000D01*
X160761928Y-84650000D01*
X160774188Y-84774482D01*
X160810498Y-84894180D01*
X160869463Y-85004494D01*
X160948815Y-85101185D01*
X161045506Y-85180537D01*
X161155820Y-85239502D01*
X161275518Y-85275812D01*
X161400000Y-85288072D01*
X161890001Y-85288072D01*
X161890000Y-86656339D01*
X161652337Y-86894002D01*
X161462463Y-87178169D01*
X161331675Y-87493919D01*
X161265000Y-87829117D01*
X161265000Y-88170883D01*
X161331675Y-88506081D01*
X161462463Y-88821831D01*
X161652337Y-89105998D01*
X161894002Y-89347663D01*
X162178169Y-89537537D01*
X162493919Y-89668325D01*
X162829117Y-89735000D01*
X163170883Y-89735000D01*
X163506081Y-89668325D01*
X163821831Y-89537537D01*
X164105998Y-89347663D01*
X164347663Y-89105998D01*
X164537537Y-88821831D01*
X164668325Y-88506081D01*
X164735000Y-88170883D01*
X164735000Y-87829117D01*
X164668325Y-87493919D01*
X164537537Y-87178169D01*
X164347663Y-86894002D01*
X164105998Y-86652337D01*
X163821831Y-86462463D01*
X163506081Y-86331675D01*
X163410000Y-86312563D01*
X163410000Y-85288072D01*
X163900000Y-85288072D01*
X164024482Y-85275812D01*
X164144180Y-85239502D01*
X164254494Y-85180537D01*
X164351185Y-85101185D01*
X164430537Y-85004494D01*
X164489502Y-84894180D01*
X164525812Y-84774482D01*
X164538072Y-84650000D01*
X164538072Y-82350000D01*
X164525812Y-82225518D01*
X164489502Y-82105820D01*
X164430537Y-81995506D01*
X164351185Y-81898815D01*
X164254494Y-81819463D01*
X164144180Y-81760498D01*
X164024482Y-81724188D01*
X163900000Y-81711928D01*
X163344575Y-81711928D01*
X163284974Y-81600424D01*
X163190001Y-81484699D01*
X163161003Y-81460901D01*
X159365704Y-77665603D01*
X159341901Y-77636599D01*
X159226176Y-77541626D01*
X159094147Y-77471054D01*
X158950886Y-77427597D01*
X158839233Y-77416600D01*
X158839222Y-77416600D01*
X158801900Y-77412924D01*
X158764578Y-77416600D01*
X141235422Y-77416600D01*
X141198099Y-77412924D01*
X141160776Y-77416600D01*
X141160767Y-77416600D01*
X141049114Y-77427597D01*
X140905853Y-77471054D01*
X140773824Y-77541626D01*
X140658099Y-77636599D01*
X140634301Y-77665597D01*
X136838998Y-81460901D01*
X136810000Y-81484699D01*
X136786202Y-81513697D01*
X136786201Y-81513698D01*
X136715026Y-81600424D01*
X136655425Y-81711928D01*
X136100000Y-81711928D01*
X135975518Y-81724188D01*
X135855820Y-81760498D01*
X135745506Y-81819463D01*
X135648815Y-81898815D01*
X135569463Y-81995506D01*
X135510498Y-82105820D01*
X135474188Y-82225518D01*
X135461928Y-82350000D01*
X129160000Y-82350000D01*
X129160000Y-75552000D01*
X144545000Y-75552000D01*
X144545000Y-75852000D01*
X144591585Y-76070987D01*
X144679997Y-76276678D01*
X144806839Y-76461169D01*
X144967236Y-76617369D01*
X145155024Y-76739276D01*
X145378126Y-76819119D01*
X145553000Y-76692954D01*
X145553000Y-75552000D01*
X145807000Y-75552000D01*
X145807000Y-76692954D01*
X145981874Y-76819119D01*
X146204976Y-76739276D01*
X146392764Y-76617369D01*
X146553161Y-76461169D01*
X146680003Y-76276678D01*
X146768415Y-76070987D01*
X146815000Y-75852000D01*
X146815000Y-75552000D01*
X153185000Y-75552000D01*
X153185000Y-75852000D01*
X153231585Y-76070987D01*
X153319997Y-76276678D01*
X153446839Y-76461169D01*
X153607236Y-76617369D01*
X153795024Y-76739276D01*
X154018126Y-76819119D01*
X154193000Y-76692954D01*
X154193000Y-75552000D01*
X154447000Y-75552000D01*
X154447000Y-76692954D01*
X154621874Y-76819119D01*
X154844976Y-76739276D01*
X155032764Y-76617369D01*
X155193161Y-76461169D01*
X155320003Y-76276678D01*
X155408415Y-76070987D01*
X155455000Y-75852000D01*
X155455000Y-75552000D01*
X154447000Y-75552000D01*
X154193000Y-75552000D01*
X153185000Y-75552000D01*
X146815000Y-75552000D01*
X145807000Y-75552000D01*
X145553000Y-75552000D01*
X144545000Y-75552000D01*
X129160000Y-75552000D01*
X129160000Y-74998000D01*
X144545000Y-74998000D01*
X144545000Y-75298000D01*
X145553000Y-75298000D01*
X145553000Y-74157046D01*
X145807000Y-74157046D01*
X145807000Y-75298000D01*
X146815000Y-75298000D01*
X146815000Y-74998000D01*
X153185000Y-74998000D01*
X153185000Y-75298000D01*
X154193000Y-75298000D01*
X154193000Y-74157046D01*
X154447000Y-74157046D01*
X154447000Y-75298000D01*
X155455000Y-75298000D01*
X155455000Y-74998000D01*
X155408415Y-74779013D01*
X155320003Y-74573322D01*
X155193161Y-74388831D01*
X155032764Y-74232631D01*
X154844976Y-74110724D01*
X154621874Y-74030881D01*
X154447000Y-74157046D01*
X154193000Y-74157046D01*
X154018126Y-74030881D01*
X153795024Y-74110724D01*
X153607236Y-74232631D01*
X153446839Y-74388831D01*
X153319997Y-74573322D01*
X153231585Y-74779013D01*
X153185000Y-74998000D01*
X146815000Y-74998000D01*
X146768415Y-74779013D01*
X146680003Y-74573322D01*
X146553161Y-74388831D01*
X146392764Y-74232631D01*
X146204976Y-74110724D01*
X145981874Y-74030881D01*
X145807000Y-74157046D01*
X145553000Y-74157046D01*
X145378126Y-74030881D01*
X145155024Y-74110724D01*
X144967236Y-74232631D01*
X144806839Y-74388831D01*
X144679997Y-74573322D01*
X144591585Y-74779013D01*
X144545000Y-74998000D01*
X129160000Y-74998000D01*
X129160000Y-73532279D01*
X129169580Y-73434576D01*
X129188580Y-73371644D01*
X129219445Y-73313595D01*
X129260989Y-73262657D01*
X129311644Y-73220752D01*
X129369471Y-73189485D01*
X129432272Y-73170044D01*
X129527835Y-73160000D01*
X170467721Y-73160000D01*
X170565424Y-73169580D01*
G37*
%TD.AperFunction*%
%TD*%
M02*
