M48
; DRILL file {KiCad (5.1.12)-1} date 08/07/24 21:13:34
; FORMAT={-:-/ absolute / metric / decimal}
; #@! TF.CreationDate,2024-08-07T21:13:34+08:00
; #@! TF.GenerationSoftware,Kicad,Pcbnew,(5.1.12)-1
; #@! TF.FileFunction,Plated,1,2,PTH
FMAT,2
METRIC
T1C0.400
T2C0.600
T3C1.500
%
G90
G05
T1
X141.108Y-112.503
X142.954Y-112.762
X144.606Y-113.07
X145.476Y-112.345
X146.091Y-84.718
X146.096Y-81.884
X146.404Y-106.162
X148.5Y-116.0
X150.631Y-84.5
X151.0Y-116.0
X151.486Y-82.921
T3
X135.65Y-90.54
X142.0Y-88.0
X156.65Y-90.54
X163.0Y-88.0
T2
G00X145.68Y-75.725
M15
G01X145.68Y-75.125
M16
G05
G00X145.68Y-80.155
M15
G01X145.68Y-79.055
M16
G05
G00X154.32Y-75.725
M15
G01X154.32Y-75.125
M16
G05
G00X154.32Y-80.155
M15
G01X154.32Y-79.055
M16
G05
T0
M30
