%TF.GenerationSoftware,KiCad,Pcbnew,(5.1.12)-1*%
%TF.CreationDate,2024-07-10T23:31:02+08:00*%
%TF.ProjectId,BKL2x,424b4c32-782e-46b6-9963-61645f706362,1.0*%
%TF.SameCoordinates,Original*%
%TF.FileFunction,Paste,Bot*%
%TF.FilePolarity,Positive*%
%FSLAX46Y46*%
G04 Gerber Fmt 4.6, Leading zero omitted, Abs format (unit mm)*
G04 Created by KiCad (PCBNEW (5.1.12)-1) date 2024-07-10 23:31:02*
%MOMM*%
%LPD*%
G01*
G04 APERTURE LIST*
%ADD10R,2.500000X2.300000*%
%ADD11R,4.500000X2.000000*%
G04 APERTURE END LIST*
%TO.C,C8*%
G36*
G01*
X147680000Y-84670000D02*
X147680000Y-84330000D01*
G75*
G02*
X147820000Y-84190000I140000J0D01*
G01*
X148100000Y-84190000D01*
G75*
G02*
X148240000Y-84330000I0J-140000D01*
G01*
X148240000Y-84670000D01*
G75*
G02*
X148100000Y-84810000I-140000J0D01*
G01*
X147820000Y-84810000D01*
G75*
G02*
X147680000Y-84670000I0J140000D01*
G01*
G37*
G36*
G01*
X146720000Y-84670000D02*
X146720000Y-84330000D01*
G75*
G02*
X146860000Y-84190000I140000J0D01*
G01*
X147140000Y-84190000D01*
G75*
G02*
X147280000Y-84330000I0J-140000D01*
G01*
X147280000Y-84670000D01*
G75*
G02*
X147140000Y-84810000I-140000J0D01*
G01*
X146860000Y-84810000D01*
G75*
G02*
X146720000Y-84670000I0J140000D01*
G01*
G37*
%TD*%
%TO.C,C7*%
G36*
G01*
X152200000Y-84670000D02*
X152200000Y-84330000D01*
G75*
G02*
X152340000Y-84190000I140000J0D01*
G01*
X152620000Y-84190000D01*
G75*
G02*
X152760000Y-84330000I0J-140000D01*
G01*
X152760000Y-84670000D01*
G75*
G02*
X152620000Y-84810000I-140000J0D01*
G01*
X152340000Y-84810000D01*
G75*
G02*
X152200000Y-84670000I0J140000D01*
G01*
G37*
G36*
G01*
X151240000Y-84670000D02*
X151240000Y-84330000D01*
G75*
G02*
X151380000Y-84190000I140000J0D01*
G01*
X151660000Y-84190000D01*
G75*
G02*
X151800000Y-84330000I0J-140000D01*
G01*
X151800000Y-84670000D01*
G75*
G02*
X151660000Y-84810000I-140000J0D01*
G01*
X151380000Y-84810000D01*
G75*
G02*
X151240000Y-84670000I0J140000D01*
G01*
G37*
%TD*%
%TO.C,C3*%
G36*
G01*
X151800000Y-106330000D02*
X151800000Y-106670000D01*
G75*
G02*
X151660000Y-106810000I-140000J0D01*
G01*
X151380000Y-106810000D01*
G75*
G02*
X151240000Y-106670000I0J140000D01*
G01*
X151240000Y-106330000D01*
G75*
G02*
X151380000Y-106190000I140000J0D01*
G01*
X151660000Y-106190000D01*
G75*
G02*
X151800000Y-106330000I0J-140000D01*
G01*
G37*
G36*
G01*
X152760000Y-106330000D02*
X152760000Y-106670000D01*
G75*
G02*
X152620000Y-106810000I-140000J0D01*
G01*
X152340000Y-106810000D01*
G75*
G02*
X152200000Y-106670000I0J140000D01*
G01*
X152200000Y-106330000D01*
G75*
G02*
X152340000Y-106190000I140000J0D01*
G01*
X152620000Y-106190000D01*
G75*
G02*
X152760000Y-106330000I0J-140000D01*
G01*
G37*
%TD*%
D10*
%TO.C,D1*%
X137350000Y-83500000D03*
X141650000Y-83500000D03*
%TD*%
%TO.C,D2*%
X162650000Y-83500000D03*
X158350000Y-83500000D03*
%TD*%
%TO.C,R1*%
G36*
G01*
X152780000Y-81815000D02*
X152780000Y-82185000D01*
G75*
G02*
X152645000Y-82320000I-135000J0D01*
G01*
X152375000Y-82320000D01*
G75*
G02*
X152240000Y-82185000I0J135000D01*
G01*
X152240000Y-81815000D01*
G75*
G02*
X152375000Y-81680000I135000J0D01*
G01*
X152645000Y-81680000D01*
G75*
G02*
X152780000Y-81815000I0J-135000D01*
G01*
G37*
G36*
G01*
X151760000Y-81815000D02*
X151760000Y-82185000D01*
G75*
G02*
X151625000Y-82320000I-135000J0D01*
G01*
X151355000Y-82320000D01*
G75*
G02*
X151220000Y-82185000I0J135000D01*
G01*
X151220000Y-81815000D01*
G75*
G02*
X151355000Y-81680000I135000J0D01*
G01*
X151625000Y-81680000D01*
G75*
G02*
X151760000Y-81815000I0J-135000D01*
G01*
G37*
%TD*%
%TO.C,R2*%
G36*
G01*
X147270000Y-81815000D02*
X147270000Y-82185000D01*
G75*
G02*
X147135000Y-82320000I-135000J0D01*
G01*
X146865000Y-82320000D01*
G75*
G02*
X146730000Y-82185000I0J135000D01*
G01*
X146730000Y-81815000D01*
G75*
G02*
X146865000Y-81680000I135000J0D01*
G01*
X147135000Y-81680000D01*
G75*
G02*
X147270000Y-81815000I0J-135000D01*
G01*
G37*
G36*
G01*
X148290000Y-81815000D02*
X148290000Y-82185000D01*
G75*
G02*
X148155000Y-82320000I-135000J0D01*
G01*
X147885000Y-82320000D01*
G75*
G02*
X147750000Y-82185000I0J135000D01*
G01*
X147750000Y-81815000D01*
G75*
G02*
X147885000Y-81680000I135000J0D01*
G01*
X148155000Y-81680000D01*
G75*
G02*
X148290000Y-81815000I0J-135000D01*
G01*
G37*
%TD*%
D11*
%TO.C,Y1*%
X145500000Y-112000000D03*
X154000000Y-112000000D03*
%TD*%
M02*
