M48
; DRILL file {KiCad (5.1.12)-1} date 07/10/24 23:30:43
; FORMAT={-:-/ absolute / metric / decimal}
; #@! TF.CreationDate,2024-07-10T23:30:43+08:00
; #@! TF.GenerationSoftware,Kicad,Pcbnew,(5.1.12)-1
; #@! TF.FileFunction,Plated,1,2,PTH
FMAT,2
METRIC
T1C0.400
T2C0.600
T3C1.500
%
G90
G05
T1
X143.44Y-114.402
X144.06Y-113.606
X145.785Y-114.458
X146.123Y-82.036
X147.0Y-83.554
X148.5Y-117.5
X150.144Y-84.5
X151.0Y-117.5
X151.461Y-83.001
X152.0Y-105.578
X153.45Y-106.816
T3
X135.65Y-91.54
X142.0Y-89.0
X156.65Y-91.56
X163.0Y-89.02
T2
G00X145.68Y-75.725
M15
G01X145.68Y-75.125
M16
G05
G00X145.68Y-80.155
M15
G01X145.68Y-79.055
M16
G05
G00X154.32Y-75.725
M15
G01X154.32Y-75.125
M16
G05
G00X154.32Y-80.155
M15
G01X154.32Y-79.055
M16
G05
T0
M30
