%TF.GenerationSoftware,KiCad,Pcbnew,(5.1.12)-1*%
%TF.CreationDate,2024-08-07T21:13:35+08:00*%
%TF.ProjectId,BKL2x,424b4c32-782e-46b6-9963-61645f706362,1.0*%
%TF.SameCoordinates,Original*%
%TF.FileFunction,Legend,Bot*%
%TF.FilePolarity,Positive*%
%FSLAX46Y46*%
G04 Gerber Fmt 4.6, Leading zero omitted, Abs format (unit mm)*
G04 Created by KiCad (PCBNEW (5.1.12)-1) date 2024-08-07 21:13:35*
%MOMM*%
%LPD*%
G01*
G04 APERTURE LIST*
%ADD10C,0.120000*%
%ADD11C,0.150000*%
G04 APERTURE END LIST*
D10*
%TO.C,C8*%
X147372164Y-84860000D02*
X147587836Y-84860000D01*
X147372164Y-84140000D02*
X147587836Y-84140000D01*
%TO.C,C7*%
X151892164Y-84860000D02*
X152107836Y-84860000D01*
X151892164Y-84140000D02*
X152107836Y-84140000D01*
%TO.C,C3*%
X152107836Y-104640000D02*
X151892164Y-104640000D01*
X152107836Y-105360000D02*
X151892164Y-105360000D01*
%TO.C,D1*%
X135950000Y-85650000D02*
X141650000Y-85650000D01*
X135950000Y-81350000D02*
X141650000Y-81350000D01*
X135950000Y-85650000D02*
X135950000Y-81350000D01*
%TO.C,D2*%
X156950000Y-85650000D02*
X156950000Y-81350000D01*
X156950000Y-81350000D02*
X162650000Y-81350000D01*
X156950000Y-85650000D02*
X162650000Y-85650000D01*
%TO.C,R1*%
X152153641Y-82380000D02*
X151846359Y-82380000D01*
X152153641Y-81620000D02*
X151846359Y-81620000D01*
%TO.C,R2*%
X147663641Y-81620000D02*
X147356359Y-81620000D01*
X147663641Y-82380000D02*
X147356359Y-82380000D01*
%TO.C,Y1*%
X143050000Y-107950000D02*
X155650000Y-107950000D01*
X143050000Y-113050000D02*
X143050000Y-107950000D01*
X155650000Y-113050000D02*
X143050000Y-113050000D01*
%TO.C,C8*%
D11*
X147646666Y-86017142D02*
X147694285Y-86064761D01*
X147837142Y-86112380D01*
X147932380Y-86112380D01*
X148075238Y-86064761D01*
X148170476Y-85969523D01*
X148218095Y-85874285D01*
X148265714Y-85683809D01*
X148265714Y-85540952D01*
X148218095Y-85350476D01*
X148170476Y-85255238D01*
X148075238Y-85160000D01*
X147932380Y-85112380D01*
X147837142Y-85112380D01*
X147694285Y-85160000D01*
X147646666Y-85207619D01*
X147075238Y-85540952D02*
X147170476Y-85493333D01*
X147218095Y-85445714D01*
X147265714Y-85350476D01*
X147265714Y-85302857D01*
X147218095Y-85207619D01*
X147170476Y-85160000D01*
X147075238Y-85112380D01*
X146884761Y-85112380D01*
X146789523Y-85160000D01*
X146741904Y-85207619D01*
X146694285Y-85302857D01*
X146694285Y-85350476D01*
X146741904Y-85445714D01*
X146789523Y-85493333D01*
X146884761Y-85540952D01*
X147075238Y-85540952D01*
X147170476Y-85588571D01*
X147218095Y-85636190D01*
X147265714Y-85731428D01*
X147265714Y-85921904D01*
X147218095Y-86017142D01*
X147170476Y-86064761D01*
X147075238Y-86112380D01*
X146884761Y-86112380D01*
X146789523Y-86064761D01*
X146741904Y-86017142D01*
X146694285Y-85921904D01*
X146694285Y-85731428D01*
X146741904Y-85636190D01*
X146789523Y-85588571D01*
X146884761Y-85540952D01*
%TO.C,C7*%
X152166666Y-86017142D02*
X152214285Y-86064761D01*
X152357142Y-86112380D01*
X152452380Y-86112380D01*
X152595238Y-86064761D01*
X152690476Y-85969523D01*
X152738095Y-85874285D01*
X152785714Y-85683809D01*
X152785714Y-85540952D01*
X152738095Y-85350476D01*
X152690476Y-85255238D01*
X152595238Y-85160000D01*
X152452380Y-85112380D01*
X152357142Y-85112380D01*
X152214285Y-85160000D01*
X152166666Y-85207619D01*
X151833333Y-85112380D02*
X151166666Y-85112380D01*
X151595238Y-86112380D01*
%TO.C,C3*%
X152166666Y-104197142D02*
X152214285Y-104244761D01*
X152357142Y-104292380D01*
X152452380Y-104292380D01*
X152595238Y-104244761D01*
X152690476Y-104149523D01*
X152738095Y-104054285D01*
X152785714Y-103863809D01*
X152785714Y-103720952D01*
X152738095Y-103530476D01*
X152690476Y-103435238D01*
X152595238Y-103340000D01*
X152452380Y-103292380D01*
X152357142Y-103292380D01*
X152214285Y-103340000D01*
X152166666Y-103387619D01*
X151833333Y-103292380D02*
X151214285Y-103292380D01*
X151547619Y-103673333D01*
X151404761Y-103673333D01*
X151309523Y-103720952D01*
X151261904Y-103768571D01*
X151214285Y-103863809D01*
X151214285Y-104101904D01*
X151261904Y-104197142D01*
X151309523Y-104244761D01*
X151404761Y-104292380D01*
X151690476Y-104292380D01*
X151785714Y-104244761D01*
X151833333Y-104197142D01*
%TO.C,D1*%
X140238095Y-86952380D02*
X140238095Y-85952380D01*
X140000000Y-85952380D01*
X139857142Y-86000000D01*
X139761904Y-86095238D01*
X139714285Y-86190476D01*
X139666666Y-86380952D01*
X139666666Y-86523809D01*
X139714285Y-86714285D01*
X139761904Y-86809523D01*
X139857142Y-86904761D01*
X140000000Y-86952380D01*
X140238095Y-86952380D01*
X138714285Y-86952380D02*
X139285714Y-86952380D01*
X139000000Y-86952380D02*
X139000000Y-85952380D01*
X139095238Y-86095238D01*
X139190476Y-86190476D01*
X139285714Y-86238095D01*
%TO.C,D2*%
X161238095Y-86952380D02*
X161238095Y-85952380D01*
X161000000Y-85952380D01*
X160857142Y-86000000D01*
X160761904Y-86095238D01*
X160714285Y-86190476D01*
X160666666Y-86380952D01*
X160666666Y-86523809D01*
X160714285Y-86714285D01*
X160761904Y-86809523D01*
X160857142Y-86904761D01*
X161000000Y-86952380D01*
X161238095Y-86952380D01*
X160285714Y-86047619D02*
X160238095Y-86000000D01*
X160142857Y-85952380D01*
X159904761Y-85952380D01*
X159809523Y-86000000D01*
X159761904Y-86047619D01*
X159714285Y-86142857D01*
X159714285Y-86238095D01*
X159761904Y-86380952D01*
X160333333Y-86952380D01*
X159714285Y-86952380D01*
%TO.C,R1*%
X152166666Y-81282380D02*
X152500000Y-80806190D01*
X152738095Y-81282380D02*
X152738095Y-80282380D01*
X152357142Y-80282380D01*
X152261904Y-80330000D01*
X152214285Y-80377619D01*
X152166666Y-80472857D01*
X152166666Y-80615714D01*
X152214285Y-80710952D01*
X152261904Y-80758571D01*
X152357142Y-80806190D01*
X152738095Y-80806190D01*
X151214285Y-81282380D02*
X151785714Y-81282380D01*
X151500000Y-81282380D02*
X151500000Y-80282380D01*
X151595238Y-80425238D01*
X151690476Y-80520476D01*
X151785714Y-80568095D01*
%TO.C,R2*%
X147676666Y-81282380D02*
X148010000Y-80806190D01*
X148248095Y-81282380D02*
X148248095Y-80282380D01*
X147867142Y-80282380D01*
X147771904Y-80330000D01*
X147724285Y-80377619D01*
X147676666Y-80472857D01*
X147676666Y-80615714D01*
X147724285Y-80710952D01*
X147771904Y-80758571D01*
X147867142Y-80806190D01*
X148248095Y-80806190D01*
X147295714Y-80377619D02*
X147248095Y-80330000D01*
X147152857Y-80282380D01*
X146914761Y-80282380D01*
X146819523Y-80330000D01*
X146771904Y-80377619D01*
X146724285Y-80472857D01*
X146724285Y-80568095D01*
X146771904Y-80710952D01*
X147343333Y-81282380D01*
X146724285Y-81282380D01*
%TO.C,Y1*%
X150226190Y-114026190D02*
X150226190Y-114502380D01*
X150559523Y-113502380D02*
X150226190Y-114026190D01*
X149892857Y-113502380D01*
X149035714Y-114502380D02*
X149607142Y-114502380D01*
X149321428Y-114502380D02*
X149321428Y-113502380D01*
X149416666Y-113645238D01*
X149511904Y-113740476D01*
X149607142Y-113788095D01*
%TD*%
M02*
