%TF.GenerationSoftware,KiCad,Pcbnew,(5.1.12)-1*%
%TF.CreationDate,2024-07-10T23:31:02+08:00*%
%TF.ProjectId,BKL2x,424b4c32-782e-46b6-9963-61645f706362,1.0*%
%TF.SameCoordinates,Original*%
%TF.FileFunction,Paste,Top*%
%TF.FilePolarity,Positive*%
%FSLAX46Y46*%
G04 Gerber Fmt 4.6, Leading zero omitted, Abs format (unit mm)*
G04 Created by KiCad (PCBNEW (5.1.12)-1) date 2024-07-10 23:31:02*
%MOMM*%
%LPD*%
G01*
G04 APERTURE LIST*
%ADD10R,0.300000X1.150000*%
G04 APERTURE END LIST*
%TO.C,R6*%
G36*
G01*
X142185000Y-113750000D02*
X141815000Y-113750000D01*
G75*
G02*
X141680000Y-113615000I0J135000D01*
G01*
X141680000Y-113345000D01*
G75*
G02*
X141815000Y-113210000I135000J0D01*
G01*
X142185000Y-113210000D01*
G75*
G02*
X142320000Y-113345000I0J-135000D01*
G01*
X142320000Y-113615000D01*
G75*
G02*
X142185000Y-113750000I-135000J0D01*
G01*
G37*
G36*
G01*
X142185000Y-114770000D02*
X141815000Y-114770000D01*
G75*
G02*
X141680000Y-114635000I0J135000D01*
G01*
X141680000Y-114365000D01*
G75*
G02*
X141815000Y-114230000I135000J0D01*
G01*
X142185000Y-114230000D01*
G75*
G02*
X142320000Y-114365000I0J-135000D01*
G01*
X142320000Y-114635000D01*
G75*
G02*
X142185000Y-114770000I-135000J0D01*
G01*
G37*
%TD*%
%TO.C,R5*%
G36*
G01*
X149980000Y-116685000D02*
X149980000Y-116315000D01*
G75*
G02*
X150115000Y-116180000I135000J0D01*
G01*
X150385000Y-116180000D01*
G75*
G02*
X150520000Y-116315000I0J-135000D01*
G01*
X150520000Y-116685000D01*
G75*
G02*
X150385000Y-116820000I-135000J0D01*
G01*
X150115000Y-116820000D01*
G75*
G02*
X149980000Y-116685000I0J135000D01*
G01*
G37*
G36*
G01*
X148960000Y-116685000D02*
X148960000Y-116315000D01*
G75*
G02*
X149095000Y-116180000I135000J0D01*
G01*
X149365000Y-116180000D01*
G75*
G02*
X149500000Y-116315000I0J-135000D01*
G01*
X149500000Y-116685000D01*
G75*
G02*
X149365000Y-116820000I-135000J0D01*
G01*
X149095000Y-116820000D01*
G75*
G02*
X148960000Y-116685000I0J135000D01*
G01*
G37*
%TD*%
%TO.C,C1*%
G36*
G01*
X144670000Y-110800000D02*
X144330000Y-110800000D01*
G75*
G02*
X144190000Y-110660000I0J140000D01*
G01*
X144190000Y-110380000D01*
G75*
G02*
X144330000Y-110240000I140000J0D01*
G01*
X144670000Y-110240000D01*
G75*
G02*
X144810000Y-110380000I0J-140000D01*
G01*
X144810000Y-110660000D01*
G75*
G02*
X144670000Y-110800000I-140000J0D01*
G01*
G37*
G36*
G01*
X144670000Y-111760000D02*
X144330000Y-111760000D01*
G75*
G02*
X144190000Y-111620000I0J140000D01*
G01*
X144190000Y-111340000D01*
G75*
G02*
X144330000Y-111200000I140000J0D01*
G01*
X144670000Y-111200000D01*
G75*
G02*
X144810000Y-111340000I0J-140000D01*
G01*
X144810000Y-111620000D01*
G75*
G02*
X144670000Y-111760000I-140000J0D01*
G01*
G37*
%TD*%
%TO.C,C2*%
G36*
G01*
X155830000Y-112740000D02*
X156170000Y-112740000D01*
G75*
G02*
X156310000Y-112880000I0J-140000D01*
G01*
X156310000Y-113160000D01*
G75*
G02*
X156170000Y-113300000I-140000J0D01*
G01*
X155830000Y-113300000D01*
G75*
G02*
X155690000Y-113160000I0J140000D01*
G01*
X155690000Y-112880000D01*
G75*
G02*
X155830000Y-112740000I140000J0D01*
G01*
G37*
G36*
G01*
X155830000Y-113700000D02*
X156170000Y-113700000D01*
G75*
G02*
X156310000Y-113840000I0J-140000D01*
G01*
X156310000Y-114120000D01*
G75*
G02*
X156170000Y-114260000I-140000J0D01*
G01*
X155830000Y-114260000D01*
G75*
G02*
X155690000Y-114120000I0J140000D01*
G01*
X155690000Y-113840000D01*
G75*
G02*
X155830000Y-113700000I140000J0D01*
G01*
G37*
%TD*%
%TO.C,C4*%
G36*
G01*
X152510000Y-116330000D02*
X152510000Y-116670000D01*
G75*
G02*
X152370000Y-116810000I-140000J0D01*
G01*
X152090000Y-116810000D01*
G75*
G02*
X151950000Y-116670000I0J140000D01*
G01*
X151950000Y-116330000D01*
G75*
G02*
X152090000Y-116190000I140000J0D01*
G01*
X152370000Y-116190000D01*
G75*
G02*
X152510000Y-116330000I0J-140000D01*
G01*
G37*
G36*
G01*
X151550000Y-116330000D02*
X151550000Y-116670000D01*
G75*
G02*
X151410000Y-116810000I-140000J0D01*
G01*
X151130000Y-116810000D01*
G75*
G02*
X150990000Y-116670000I0J140000D01*
G01*
X150990000Y-116330000D01*
G75*
G02*
X151130000Y-116190000I140000J0D01*
G01*
X151410000Y-116190000D01*
G75*
G02*
X151550000Y-116330000I0J-140000D01*
G01*
G37*
%TD*%
%TO.C,C5*%
G36*
G01*
X147550000Y-116330000D02*
X147550000Y-116670000D01*
G75*
G02*
X147410000Y-116810000I-140000J0D01*
G01*
X147130000Y-116810000D01*
G75*
G02*
X146990000Y-116670000I0J140000D01*
G01*
X146990000Y-116330000D01*
G75*
G02*
X147130000Y-116190000I140000J0D01*
G01*
X147410000Y-116190000D01*
G75*
G02*
X147550000Y-116330000I0J-140000D01*
G01*
G37*
G36*
G01*
X148510000Y-116330000D02*
X148510000Y-116670000D01*
G75*
G02*
X148370000Y-116810000I-140000J0D01*
G01*
X148090000Y-116810000D01*
G75*
G02*
X147950000Y-116670000I0J140000D01*
G01*
X147950000Y-116330000D01*
G75*
G02*
X148090000Y-116190000I140000J0D01*
G01*
X148370000Y-116190000D01*
G75*
G02*
X148510000Y-116330000I0J-140000D01*
G01*
G37*
%TD*%
%TO.C,C6*%
G36*
G01*
X142170000Y-111760000D02*
X141830000Y-111760000D01*
G75*
G02*
X141690000Y-111620000I0J140000D01*
G01*
X141690000Y-111340000D01*
G75*
G02*
X141830000Y-111200000I140000J0D01*
G01*
X142170000Y-111200000D01*
G75*
G02*
X142310000Y-111340000I0J-140000D01*
G01*
X142310000Y-111620000D01*
G75*
G02*
X142170000Y-111760000I-140000J0D01*
G01*
G37*
G36*
G01*
X142170000Y-110800000D02*
X141830000Y-110800000D01*
G75*
G02*
X141690000Y-110660000I0J140000D01*
G01*
X141690000Y-110380000D01*
G75*
G02*
X141830000Y-110240000I140000J0D01*
G01*
X142170000Y-110240000D01*
G75*
G02*
X142310000Y-110380000I0J-140000D01*
G01*
X142310000Y-110660000D01*
G75*
G02*
X142170000Y-110800000I-140000J0D01*
G01*
G37*
%TD*%
D10*
%TO.C,J1*%
X146950000Y-80170000D03*
X147750000Y-80170000D03*
X148250000Y-80170000D03*
X148750000Y-80170000D03*
X149250000Y-80170000D03*
X149750000Y-80170000D03*
X150250000Y-80170000D03*
X150750000Y-80170000D03*
X151250000Y-80170000D03*
X151750000Y-80170000D03*
X152550000Y-80170000D03*
X153350000Y-80170000D03*
X153050000Y-80170000D03*
X152250000Y-80170000D03*
X147450000Y-80170000D03*
X146650000Y-80170000D03*
%TD*%
%TO.C,R3*%
G36*
G01*
X144250000Y-107315000D02*
X144250000Y-107685000D01*
G75*
G02*
X144115000Y-107820000I-135000J0D01*
G01*
X143845000Y-107820000D01*
G75*
G02*
X143710000Y-107685000I0J135000D01*
G01*
X143710000Y-107315000D01*
G75*
G02*
X143845000Y-107180000I135000J0D01*
G01*
X144115000Y-107180000D01*
G75*
G02*
X144250000Y-107315000I0J-135000D01*
G01*
G37*
G36*
G01*
X145270000Y-107315000D02*
X145270000Y-107685000D01*
G75*
G02*
X145135000Y-107820000I-135000J0D01*
G01*
X144865000Y-107820000D01*
G75*
G02*
X144730000Y-107685000I0J135000D01*
G01*
X144730000Y-107315000D01*
G75*
G02*
X144865000Y-107180000I135000J0D01*
G01*
X145135000Y-107180000D01*
G75*
G02*
X145270000Y-107315000I0J-135000D01*
G01*
G37*
%TD*%
%TO.C,R4*%
G36*
G01*
X142280000Y-107315000D02*
X142280000Y-107685000D01*
G75*
G02*
X142145000Y-107820000I-135000J0D01*
G01*
X141875000Y-107820000D01*
G75*
G02*
X141740000Y-107685000I0J135000D01*
G01*
X141740000Y-107315000D01*
G75*
G02*
X141875000Y-107180000I135000J0D01*
G01*
X142145000Y-107180000D01*
G75*
G02*
X142280000Y-107315000I0J-135000D01*
G01*
G37*
G36*
G01*
X141260000Y-107315000D02*
X141260000Y-107685000D01*
G75*
G02*
X141125000Y-107820000I-135000J0D01*
G01*
X140855000Y-107820000D01*
G75*
G02*
X140720000Y-107685000I0J135000D01*
G01*
X140720000Y-107315000D01*
G75*
G02*
X140855000Y-107180000I135000J0D01*
G01*
X141125000Y-107180000D01*
G75*
G02*
X141260000Y-107315000I0J-135000D01*
G01*
G37*
%TD*%
%TO.C,U1*%
G36*
G01*
X146125000Y-108562500D02*
X146125000Y-108437500D01*
G75*
G02*
X146187500Y-108375000I62500J0D01*
G01*
X147137500Y-108375000D01*
G75*
G02*
X147200000Y-108437500I0J-62500D01*
G01*
X147200000Y-108562500D01*
G75*
G02*
X147137500Y-108625000I-62500J0D01*
G01*
X146187500Y-108625000D01*
G75*
G02*
X146125000Y-108562500I0J62500D01*
G01*
G37*
G36*
G01*
X146125000Y-109062500D02*
X146125000Y-108937500D01*
G75*
G02*
X146187500Y-108875000I62500J0D01*
G01*
X147137500Y-108875000D01*
G75*
G02*
X147200000Y-108937500I0J-62500D01*
G01*
X147200000Y-109062500D01*
G75*
G02*
X147137500Y-109125000I-62500J0D01*
G01*
X146187500Y-109125000D01*
G75*
G02*
X146125000Y-109062500I0J62500D01*
G01*
G37*
G36*
G01*
X146125000Y-109562500D02*
X146125000Y-109437500D01*
G75*
G02*
X146187500Y-109375000I62500J0D01*
G01*
X147137500Y-109375000D01*
G75*
G02*
X147200000Y-109437500I0J-62500D01*
G01*
X147200000Y-109562500D01*
G75*
G02*
X147137500Y-109625000I-62500J0D01*
G01*
X146187500Y-109625000D01*
G75*
G02*
X146125000Y-109562500I0J62500D01*
G01*
G37*
G36*
G01*
X146125000Y-110062500D02*
X146125000Y-109937500D01*
G75*
G02*
X146187500Y-109875000I62500J0D01*
G01*
X147137500Y-109875000D01*
G75*
G02*
X147200000Y-109937500I0J-62500D01*
G01*
X147200000Y-110062500D01*
G75*
G02*
X147137500Y-110125000I-62500J0D01*
G01*
X146187500Y-110125000D01*
G75*
G02*
X146125000Y-110062500I0J62500D01*
G01*
G37*
G36*
G01*
X146125000Y-110562500D02*
X146125000Y-110437500D01*
G75*
G02*
X146187500Y-110375000I62500J0D01*
G01*
X147137500Y-110375000D01*
G75*
G02*
X147200000Y-110437500I0J-62500D01*
G01*
X147200000Y-110562500D01*
G75*
G02*
X147137500Y-110625000I-62500J0D01*
G01*
X146187500Y-110625000D01*
G75*
G02*
X146125000Y-110562500I0J62500D01*
G01*
G37*
G36*
G01*
X146125000Y-111062500D02*
X146125000Y-110937500D01*
G75*
G02*
X146187500Y-110875000I62500J0D01*
G01*
X147137500Y-110875000D01*
G75*
G02*
X147200000Y-110937500I0J-62500D01*
G01*
X147200000Y-111062500D01*
G75*
G02*
X147137500Y-111125000I-62500J0D01*
G01*
X146187500Y-111125000D01*
G75*
G02*
X146125000Y-111062500I0J62500D01*
G01*
G37*
G36*
G01*
X146125000Y-111562500D02*
X146125000Y-111437500D01*
G75*
G02*
X146187500Y-111375000I62500J0D01*
G01*
X147137500Y-111375000D01*
G75*
G02*
X147200000Y-111437500I0J-62500D01*
G01*
X147200000Y-111562500D01*
G75*
G02*
X147137500Y-111625000I-62500J0D01*
G01*
X146187500Y-111625000D01*
G75*
G02*
X146125000Y-111562500I0J62500D01*
G01*
G37*
G36*
G01*
X146125000Y-112062500D02*
X146125000Y-111937500D01*
G75*
G02*
X146187500Y-111875000I62500J0D01*
G01*
X147137500Y-111875000D01*
G75*
G02*
X147200000Y-111937500I0J-62500D01*
G01*
X147200000Y-112062500D01*
G75*
G02*
X147137500Y-112125000I-62500J0D01*
G01*
X146187500Y-112125000D01*
G75*
G02*
X146125000Y-112062500I0J62500D01*
G01*
G37*
G36*
G01*
X146125000Y-112562500D02*
X146125000Y-112437500D01*
G75*
G02*
X146187500Y-112375000I62500J0D01*
G01*
X147137500Y-112375000D01*
G75*
G02*
X147200000Y-112437500I0J-62500D01*
G01*
X147200000Y-112562500D01*
G75*
G02*
X147137500Y-112625000I-62500J0D01*
G01*
X146187500Y-112625000D01*
G75*
G02*
X146125000Y-112562500I0J62500D01*
G01*
G37*
G36*
G01*
X146125000Y-113062500D02*
X146125000Y-112937500D01*
G75*
G02*
X146187500Y-112875000I62500J0D01*
G01*
X147137500Y-112875000D01*
G75*
G02*
X147200000Y-112937500I0J-62500D01*
G01*
X147200000Y-113062500D01*
G75*
G02*
X147137500Y-113125000I-62500J0D01*
G01*
X146187500Y-113125000D01*
G75*
G02*
X146125000Y-113062500I0J62500D01*
G01*
G37*
G36*
G01*
X146125000Y-113562500D02*
X146125000Y-113437500D01*
G75*
G02*
X146187500Y-113375000I62500J0D01*
G01*
X147137500Y-113375000D01*
G75*
G02*
X147200000Y-113437500I0J-62500D01*
G01*
X147200000Y-113562500D01*
G75*
G02*
X147137500Y-113625000I-62500J0D01*
G01*
X146187500Y-113625000D01*
G75*
G02*
X146125000Y-113562500I0J62500D01*
G01*
G37*
G36*
G01*
X147375000Y-114812500D02*
X147375000Y-113862500D01*
G75*
G02*
X147437500Y-113800000I62500J0D01*
G01*
X147562500Y-113800000D01*
G75*
G02*
X147625000Y-113862500I0J-62500D01*
G01*
X147625000Y-114812500D01*
G75*
G02*
X147562500Y-114875000I-62500J0D01*
G01*
X147437500Y-114875000D01*
G75*
G02*
X147375000Y-114812500I0J62500D01*
G01*
G37*
G36*
G01*
X147875000Y-114812500D02*
X147875000Y-113862500D01*
G75*
G02*
X147937500Y-113800000I62500J0D01*
G01*
X148062500Y-113800000D01*
G75*
G02*
X148125000Y-113862500I0J-62500D01*
G01*
X148125000Y-114812500D01*
G75*
G02*
X148062500Y-114875000I-62500J0D01*
G01*
X147937500Y-114875000D01*
G75*
G02*
X147875000Y-114812500I0J62500D01*
G01*
G37*
G36*
G01*
X148375000Y-114812500D02*
X148375000Y-113862500D01*
G75*
G02*
X148437500Y-113800000I62500J0D01*
G01*
X148562500Y-113800000D01*
G75*
G02*
X148625000Y-113862500I0J-62500D01*
G01*
X148625000Y-114812500D01*
G75*
G02*
X148562500Y-114875000I-62500J0D01*
G01*
X148437500Y-114875000D01*
G75*
G02*
X148375000Y-114812500I0J62500D01*
G01*
G37*
G36*
G01*
X148875000Y-114812500D02*
X148875000Y-113862500D01*
G75*
G02*
X148937500Y-113800000I62500J0D01*
G01*
X149062500Y-113800000D01*
G75*
G02*
X149125000Y-113862500I0J-62500D01*
G01*
X149125000Y-114812500D01*
G75*
G02*
X149062500Y-114875000I-62500J0D01*
G01*
X148937500Y-114875000D01*
G75*
G02*
X148875000Y-114812500I0J62500D01*
G01*
G37*
G36*
G01*
X149375000Y-114812500D02*
X149375000Y-113862500D01*
G75*
G02*
X149437500Y-113800000I62500J0D01*
G01*
X149562500Y-113800000D01*
G75*
G02*
X149625000Y-113862500I0J-62500D01*
G01*
X149625000Y-114812500D01*
G75*
G02*
X149562500Y-114875000I-62500J0D01*
G01*
X149437500Y-114875000D01*
G75*
G02*
X149375000Y-114812500I0J62500D01*
G01*
G37*
G36*
G01*
X149875000Y-114812500D02*
X149875000Y-113862500D01*
G75*
G02*
X149937500Y-113800000I62500J0D01*
G01*
X150062500Y-113800000D01*
G75*
G02*
X150125000Y-113862500I0J-62500D01*
G01*
X150125000Y-114812500D01*
G75*
G02*
X150062500Y-114875000I-62500J0D01*
G01*
X149937500Y-114875000D01*
G75*
G02*
X149875000Y-114812500I0J62500D01*
G01*
G37*
G36*
G01*
X150375000Y-114812500D02*
X150375000Y-113862500D01*
G75*
G02*
X150437500Y-113800000I62500J0D01*
G01*
X150562500Y-113800000D01*
G75*
G02*
X150625000Y-113862500I0J-62500D01*
G01*
X150625000Y-114812500D01*
G75*
G02*
X150562500Y-114875000I-62500J0D01*
G01*
X150437500Y-114875000D01*
G75*
G02*
X150375000Y-114812500I0J62500D01*
G01*
G37*
G36*
G01*
X150875000Y-114812500D02*
X150875000Y-113862500D01*
G75*
G02*
X150937500Y-113800000I62500J0D01*
G01*
X151062500Y-113800000D01*
G75*
G02*
X151125000Y-113862500I0J-62500D01*
G01*
X151125000Y-114812500D01*
G75*
G02*
X151062500Y-114875000I-62500J0D01*
G01*
X150937500Y-114875000D01*
G75*
G02*
X150875000Y-114812500I0J62500D01*
G01*
G37*
G36*
G01*
X151375000Y-114812500D02*
X151375000Y-113862500D01*
G75*
G02*
X151437500Y-113800000I62500J0D01*
G01*
X151562500Y-113800000D01*
G75*
G02*
X151625000Y-113862500I0J-62500D01*
G01*
X151625000Y-114812500D01*
G75*
G02*
X151562500Y-114875000I-62500J0D01*
G01*
X151437500Y-114875000D01*
G75*
G02*
X151375000Y-114812500I0J62500D01*
G01*
G37*
G36*
G01*
X151875000Y-114812500D02*
X151875000Y-113862500D01*
G75*
G02*
X151937500Y-113800000I62500J0D01*
G01*
X152062500Y-113800000D01*
G75*
G02*
X152125000Y-113862500I0J-62500D01*
G01*
X152125000Y-114812500D01*
G75*
G02*
X152062500Y-114875000I-62500J0D01*
G01*
X151937500Y-114875000D01*
G75*
G02*
X151875000Y-114812500I0J62500D01*
G01*
G37*
G36*
G01*
X152375000Y-114812500D02*
X152375000Y-113862500D01*
G75*
G02*
X152437500Y-113800000I62500J0D01*
G01*
X152562500Y-113800000D01*
G75*
G02*
X152625000Y-113862500I0J-62500D01*
G01*
X152625000Y-114812500D01*
G75*
G02*
X152562500Y-114875000I-62500J0D01*
G01*
X152437500Y-114875000D01*
G75*
G02*
X152375000Y-114812500I0J62500D01*
G01*
G37*
G36*
G01*
X152800000Y-113562500D02*
X152800000Y-113437500D01*
G75*
G02*
X152862500Y-113375000I62500J0D01*
G01*
X153812500Y-113375000D01*
G75*
G02*
X153875000Y-113437500I0J-62500D01*
G01*
X153875000Y-113562500D01*
G75*
G02*
X153812500Y-113625000I-62500J0D01*
G01*
X152862500Y-113625000D01*
G75*
G02*
X152800000Y-113562500I0J62500D01*
G01*
G37*
G36*
G01*
X152800000Y-113062500D02*
X152800000Y-112937500D01*
G75*
G02*
X152862500Y-112875000I62500J0D01*
G01*
X153812500Y-112875000D01*
G75*
G02*
X153875000Y-112937500I0J-62500D01*
G01*
X153875000Y-113062500D01*
G75*
G02*
X153812500Y-113125000I-62500J0D01*
G01*
X152862500Y-113125000D01*
G75*
G02*
X152800000Y-113062500I0J62500D01*
G01*
G37*
G36*
G01*
X152800000Y-112562500D02*
X152800000Y-112437500D01*
G75*
G02*
X152862500Y-112375000I62500J0D01*
G01*
X153812500Y-112375000D01*
G75*
G02*
X153875000Y-112437500I0J-62500D01*
G01*
X153875000Y-112562500D01*
G75*
G02*
X153812500Y-112625000I-62500J0D01*
G01*
X152862500Y-112625000D01*
G75*
G02*
X152800000Y-112562500I0J62500D01*
G01*
G37*
G36*
G01*
X152800000Y-112062500D02*
X152800000Y-111937500D01*
G75*
G02*
X152862500Y-111875000I62500J0D01*
G01*
X153812500Y-111875000D01*
G75*
G02*
X153875000Y-111937500I0J-62500D01*
G01*
X153875000Y-112062500D01*
G75*
G02*
X153812500Y-112125000I-62500J0D01*
G01*
X152862500Y-112125000D01*
G75*
G02*
X152800000Y-112062500I0J62500D01*
G01*
G37*
G36*
G01*
X152800000Y-111562500D02*
X152800000Y-111437500D01*
G75*
G02*
X152862500Y-111375000I62500J0D01*
G01*
X153812500Y-111375000D01*
G75*
G02*
X153875000Y-111437500I0J-62500D01*
G01*
X153875000Y-111562500D01*
G75*
G02*
X153812500Y-111625000I-62500J0D01*
G01*
X152862500Y-111625000D01*
G75*
G02*
X152800000Y-111562500I0J62500D01*
G01*
G37*
G36*
G01*
X152800000Y-111062500D02*
X152800000Y-110937500D01*
G75*
G02*
X152862500Y-110875000I62500J0D01*
G01*
X153812500Y-110875000D01*
G75*
G02*
X153875000Y-110937500I0J-62500D01*
G01*
X153875000Y-111062500D01*
G75*
G02*
X153812500Y-111125000I-62500J0D01*
G01*
X152862500Y-111125000D01*
G75*
G02*
X152800000Y-111062500I0J62500D01*
G01*
G37*
G36*
G01*
X152800000Y-110562500D02*
X152800000Y-110437500D01*
G75*
G02*
X152862500Y-110375000I62500J0D01*
G01*
X153812500Y-110375000D01*
G75*
G02*
X153875000Y-110437500I0J-62500D01*
G01*
X153875000Y-110562500D01*
G75*
G02*
X153812500Y-110625000I-62500J0D01*
G01*
X152862500Y-110625000D01*
G75*
G02*
X152800000Y-110562500I0J62500D01*
G01*
G37*
G36*
G01*
X152800000Y-110062500D02*
X152800000Y-109937500D01*
G75*
G02*
X152862500Y-109875000I62500J0D01*
G01*
X153812500Y-109875000D01*
G75*
G02*
X153875000Y-109937500I0J-62500D01*
G01*
X153875000Y-110062500D01*
G75*
G02*
X153812500Y-110125000I-62500J0D01*
G01*
X152862500Y-110125000D01*
G75*
G02*
X152800000Y-110062500I0J62500D01*
G01*
G37*
G36*
G01*
X152800000Y-109562500D02*
X152800000Y-109437500D01*
G75*
G02*
X152862500Y-109375000I62500J0D01*
G01*
X153812500Y-109375000D01*
G75*
G02*
X153875000Y-109437500I0J-62500D01*
G01*
X153875000Y-109562500D01*
G75*
G02*
X153812500Y-109625000I-62500J0D01*
G01*
X152862500Y-109625000D01*
G75*
G02*
X152800000Y-109562500I0J62500D01*
G01*
G37*
G36*
G01*
X152800000Y-109062500D02*
X152800000Y-108937500D01*
G75*
G02*
X152862500Y-108875000I62500J0D01*
G01*
X153812500Y-108875000D01*
G75*
G02*
X153875000Y-108937500I0J-62500D01*
G01*
X153875000Y-109062500D01*
G75*
G02*
X153812500Y-109125000I-62500J0D01*
G01*
X152862500Y-109125000D01*
G75*
G02*
X152800000Y-109062500I0J62500D01*
G01*
G37*
G36*
G01*
X152800000Y-108562500D02*
X152800000Y-108437500D01*
G75*
G02*
X152862500Y-108375000I62500J0D01*
G01*
X153812500Y-108375000D01*
G75*
G02*
X153875000Y-108437500I0J-62500D01*
G01*
X153875000Y-108562500D01*
G75*
G02*
X153812500Y-108625000I-62500J0D01*
G01*
X152862500Y-108625000D01*
G75*
G02*
X152800000Y-108562500I0J62500D01*
G01*
G37*
G36*
G01*
X152375000Y-108137500D02*
X152375000Y-107187500D01*
G75*
G02*
X152437500Y-107125000I62500J0D01*
G01*
X152562500Y-107125000D01*
G75*
G02*
X152625000Y-107187500I0J-62500D01*
G01*
X152625000Y-108137500D01*
G75*
G02*
X152562500Y-108200000I-62500J0D01*
G01*
X152437500Y-108200000D01*
G75*
G02*
X152375000Y-108137500I0J62500D01*
G01*
G37*
G36*
G01*
X151875000Y-108137500D02*
X151875000Y-107187500D01*
G75*
G02*
X151937500Y-107125000I62500J0D01*
G01*
X152062500Y-107125000D01*
G75*
G02*
X152125000Y-107187500I0J-62500D01*
G01*
X152125000Y-108137500D01*
G75*
G02*
X152062500Y-108200000I-62500J0D01*
G01*
X151937500Y-108200000D01*
G75*
G02*
X151875000Y-108137500I0J62500D01*
G01*
G37*
G36*
G01*
X151375000Y-108137500D02*
X151375000Y-107187500D01*
G75*
G02*
X151437500Y-107125000I62500J0D01*
G01*
X151562500Y-107125000D01*
G75*
G02*
X151625000Y-107187500I0J-62500D01*
G01*
X151625000Y-108137500D01*
G75*
G02*
X151562500Y-108200000I-62500J0D01*
G01*
X151437500Y-108200000D01*
G75*
G02*
X151375000Y-108137500I0J62500D01*
G01*
G37*
G36*
G01*
X150875000Y-108137500D02*
X150875000Y-107187500D01*
G75*
G02*
X150937500Y-107125000I62500J0D01*
G01*
X151062500Y-107125000D01*
G75*
G02*
X151125000Y-107187500I0J-62500D01*
G01*
X151125000Y-108137500D01*
G75*
G02*
X151062500Y-108200000I-62500J0D01*
G01*
X150937500Y-108200000D01*
G75*
G02*
X150875000Y-108137500I0J62500D01*
G01*
G37*
G36*
G01*
X150375000Y-108137500D02*
X150375000Y-107187500D01*
G75*
G02*
X150437500Y-107125000I62500J0D01*
G01*
X150562500Y-107125000D01*
G75*
G02*
X150625000Y-107187500I0J-62500D01*
G01*
X150625000Y-108137500D01*
G75*
G02*
X150562500Y-108200000I-62500J0D01*
G01*
X150437500Y-108200000D01*
G75*
G02*
X150375000Y-108137500I0J62500D01*
G01*
G37*
G36*
G01*
X149875000Y-108137500D02*
X149875000Y-107187500D01*
G75*
G02*
X149937500Y-107125000I62500J0D01*
G01*
X150062500Y-107125000D01*
G75*
G02*
X150125000Y-107187500I0J-62500D01*
G01*
X150125000Y-108137500D01*
G75*
G02*
X150062500Y-108200000I-62500J0D01*
G01*
X149937500Y-108200000D01*
G75*
G02*
X149875000Y-108137500I0J62500D01*
G01*
G37*
G36*
G01*
X149375000Y-108137500D02*
X149375000Y-107187500D01*
G75*
G02*
X149437500Y-107125000I62500J0D01*
G01*
X149562500Y-107125000D01*
G75*
G02*
X149625000Y-107187500I0J-62500D01*
G01*
X149625000Y-108137500D01*
G75*
G02*
X149562500Y-108200000I-62500J0D01*
G01*
X149437500Y-108200000D01*
G75*
G02*
X149375000Y-108137500I0J62500D01*
G01*
G37*
G36*
G01*
X148875000Y-108137500D02*
X148875000Y-107187500D01*
G75*
G02*
X148937500Y-107125000I62500J0D01*
G01*
X149062500Y-107125000D01*
G75*
G02*
X149125000Y-107187500I0J-62500D01*
G01*
X149125000Y-108137500D01*
G75*
G02*
X149062500Y-108200000I-62500J0D01*
G01*
X148937500Y-108200000D01*
G75*
G02*
X148875000Y-108137500I0J62500D01*
G01*
G37*
G36*
G01*
X148375000Y-108137500D02*
X148375000Y-107187500D01*
G75*
G02*
X148437500Y-107125000I62500J0D01*
G01*
X148562500Y-107125000D01*
G75*
G02*
X148625000Y-107187500I0J-62500D01*
G01*
X148625000Y-108137500D01*
G75*
G02*
X148562500Y-108200000I-62500J0D01*
G01*
X148437500Y-108200000D01*
G75*
G02*
X148375000Y-108137500I0J62500D01*
G01*
G37*
G36*
G01*
X147875000Y-108137500D02*
X147875000Y-107187500D01*
G75*
G02*
X147937500Y-107125000I62500J0D01*
G01*
X148062500Y-107125000D01*
G75*
G02*
X148125000Y-107187500I0J-62500D01*
G01*
X148125000Y-108137500D01*
G75*
G02*
X148062500Y-108200000I-62500J0D01*
G01*
X147937500Y-108200000D01*
G75*
G02*
X147875000Y-108137500I0J62500D01*
G01*
G37*
G36*
G01*
X147375000Y-108137500D02*
X147375000Y-107187500D01*
G75*
G02*
X147437500Y-107125000I62500J0D01*
G01*
X147562500Y-107125000D01*
G75*
G02*
X147625000Y-107187500I0J-62500D01*
G01*
X147625000Y-108137500D01*
G75*
G02*
X147562500Y-108200000I-62500J0D01*
G01*
X147437500Y-108200000D01*
G75*
G02*
X147375000Y-108137500I0J62500D01*
G01*
G37*
G36*
G01*
X147525000Y-109325001D02*
X147525000Y-108774999D01*
G75*
G02*
X147774999Y-108525000I249999J0D01*
G01*
X148325001Y-108525000D01*
G75*
G02*
X148575000Y-108774999I0J-249999D01*
G01*
X148575000Y-109325001D01*
G75*
G02*
X148325001Y-109575000I-249999J0D01*
G01*
X147774999Y-109575000D01*
G75*
G02*
X147525000Y-109325001I0J249999D01*
G01*
G37*
G36*
G01*
X147525000Y-110625001D02*
X147525000Y-110074999D01*
G75*
G02*
X147774999Y-109825000I249999J0D01*
G01*
X148325001Y-109825000D01*
G75*
G02*
X148575000Y-110074999I0J-249999D01*
G01*
X148575000Y-110625001D01*
G75*
G02*
X148325001Y-110875000I-249999J0D01*
G01*
X147774999Y-110875000D01*
G75*
G02*
X147525000Y-110625001I0J249999D01*
G01*
G37*
G36*
G01*
X147525000Y-111925001D02*
X147525000Y-111374999D01*
G75*
G02*
X147774999Y-111125000I249999J0D01*
G01*
X148325001Y-111125000D01*
G75*
G02*
X148575000Y-111374999I0J-249999D01*
G01*
X148575000Y-111925001D01*
G75*
G02*
X148325001Y-112175000I-249999J0D01*
G01*
X147774999Y-112175000D01*
G75*
G02*
X147525000Y-111925001I0J249999D01*
G01*
G37*
G36*
G01*
X147525000Y-113225001D02*
X147525000Y-112674999D01*
G75*
G02*
X147774999Y-112425000I249999J0D01*
G01*
X148325001Y-112425000D01*
G75*
G02*
X148575000Y-112674999I0J-249999D01*
G01*
X148575000Y-113225001D01*
G75*
G02*
X148325001Y-113475000I-249999J0D01*
G01*
X147774999Y-113475000D01*
G75*
G02*
X147525000Y-113225001I0J249999D01*
G01*
G37*
G36*
G01*
X148825000Y-109325001D02*
X148825000Y-108774999D01*
G75*
G02*
X149074999Y-108525000I249999J0D01*
G01*
X149625001Y-108525000D01*
G75*
G02*
X149875000Y-108774999I0J-249999D01*
G01*
X149875000Y-109325001D01*
G75*
G02*
X149625001Y-109575000I-249999J0D01*
G01*
X149074999Y-109575000D01*
G75*
G02*
X148825000Y-109325001I0J249999D01*
G01*
G37*
G36*
G01*
X148825000Y-110625001D02*
X148825000Y-110074999D01*
G75*
G02*
X149074999Y-109825000I249999J0D01*
G01*
X149625001Y-109825000D01*
G75*
G02*
X149875000Y-110074999I0J-249999D01*
G01*
X149875000Y-110625001D01*
G75*
G02*
X149625001Y-110875000I-249999J0D01*
G01*
X149074999Y-110875000D01*
G75*
G02*
X148825000Y-110625001I0J249999D01*
G01*
G37*
G36*
G01*
X148825000Y-111925001D02*
X148825000Y-111374999D01*
G75*
G02*
X149074999Y-111125000I249999J0D01*
G01*
X149625001Y-111125000D01*
G75*
G02*
X149875000Y-111374999I0J-249999D01*
G01*
X149875000Y-111925001D01*
G75*
G02*
X149625001Y-112175000I-249999J0D01*
G01*
X149074999Y-112175000D01*
G75*
G02*
X148825000Y-111925001I0J249999D01*
G01*
G37*
G36*
G01*
X148825000Y-113225001D02*
X148825000Y-112674999D01*
G75*
G02*
X149074999Y-112425000I249999J0D01*
G01*
X149625001Y-112425000D01*
G75*
G02*
X149875000Y-112674999I0J-249999D01*
G01*
X149875000Y-113225001D01*
G75*
G02*
X149625001Y-113475000I-249999J0D01*
G01*
X149074999Y-113475000D01*
G75*
G02*
X148825000Y-113225001I0J249999D01*
G01*
G37*
G36*
G01*
X150125000Y-109325001D02*
X150125000Y-108774999D01*
G75*
G02*
X150374999Y-108525000I249999J0D01*
G01*
X150925001Y-108525000D01*
G75*
G02*
X151175000Y-108774999I0J-249999D01*
G01*
X151175000Y-109325001D01*
G75*
G02*
X150925001Y-109575000I-249999J0D01*
G01*
X150374999Y-109575000D01*
G75*
G02*
X150125000Y-109325001I0J249999D01*
G01*
G37*
G36*
G01*
X150125000Y-110625001D02*
X150125000Y-110074999D01*
G75*
G02*
X150374999Y-109825000I249999J0D01*
G01*
X150925001Y-109825000D01*
G75*
G02*
X151175000Y-110074999I0J-249999D01*
G01*
X151175000Y-110625001D01*
G75*
G02*
X150925001Y-110875000I-249999J0D01*
G01*
X150374999Y-110875000D01*
G75*
G02*
X150125000Y-110625001I0J249999D01*
G01*
G37*
G36*
G01*
X150125000Y-111925001D02*
X150125000Y-111374999D01*
G75*
G02*
X150374999Y-111125000I249999J0D01*
G01*
X150925001Y-111125000D01*
G75*
G02*
X151175000Y-111374999I0J-249999D01*
G01*
X151175000Y-111925001D01*
G75*
G02*
X150925001Y-112175000I-249999J0D01*
G01*
X150374999Y-112175000D01*
G75*
G02*
X150125000Y-111925001I0J249999D01*
G01*
G37*
G36*
G01*
X150125000Y-113225001D02*
X150125000Y-112674999D01*
G75*
G02*
X150374999Y-112425000I249999J0D01*
G01*
X150925001Y-112425000D01*
G75*
G02*
X151175000Y-112674999I0J-249999D01*
G01*
X151175000Y-113225001D01*
G75*
G02*
X150925001Y-113475000I-249999J0D01*
G01*
X150374999Y-113475000D01*
G75*
G02*
X150125000Y-113225001I0J249999D01*
G01*
G37*
G36*
G01*
X151425000Y-109325001D02*
X151425000Y-108774999D01*
G75*
G02*
X151674999Y-108525000I249999J0D01*
G01*
X152225001Y-108525000D01*
G75*
G02*
X152475000Y-108774999I0J-249999D01*
G01*
X152475000Y-109325001D01*
G75*
G02*
X152225001Y-109575000I-249999J0D01*
G01*
X151674999Y-109575000D01*
G75*
G02*
X151425000Y-109325001I0J249999D01*
G01*
G37*
G36*
G01*
X151425000Y-110625001D02*
X151425000Y-110074999D01*
G75*
G02*
X151674999Y-109825000I249999J0D01*
G01*
X152225001Y-109825000D01*
G75*
G02*
X152475000Y-110074999I0J-249999D01*
G01*
X152475000Y-110625001D01*
G75*
G02*
X152225001Y-110875000I-249999J0D01*
G01*
X151674999Y-110875000D01*
G75*
G02*
X151425000Y-110625001I0J249999D01*
G01*
G37*
G36*
G01*
X151425000Y-111925001D02*
X151425000Y-111374999D01*
G75*
G02*
X151674999Y-111125000I249999J0D01*
G01*
X152225001Y-111125000D01*
G75*
G02*
X152475000Y-111374999I0J-249999D01*
G01*
X152475000Y-111925001D01*
G75*
G02*
X152225001Y-112175000I-249999J0D01*
G01*
X151674999Y-112175000D01*
G75*
G02*
X151425000Y-111925001I0J249999D01*
G01*
G37*
G36*
G01*
X151425000Y-113225001D02*
X151425000Y-112674999D01*
G75*
G02*
X151674999Y-112425000I249999J0D01*
G01*
X152225001Y-112425000D01*
G75*
G02*
X152475000Y-112674999I0J-249999D01*
G01*
X152475000Y-113225001D01*
G75*
G02*
X152225001Y-113475000I-249999J0D01*
G01*
X151674999Y-113475000D01*
G75*
G02*
X151425000Y-113225001I0J249999D01*
G01*
G37*
%TD*%
M02*
