%TF.GenerationSoftware,KiCad,Pcbnew,(5.1.12)-1*%
%TF.CreationDate,2024-07-10T23:31:02+08:00*%
%TF.ProjectId,BKL2x,424b4c32-782e-46b6-9963-61645f706362,1.0*%
%TF.SameCoordinates,Original*%
%TF.FileFunction,Legend,Top*%
%TF.FilePolarity,Positive*%
%FSLAX46Y46*%
G04 Gerber Fmt 4.6, Leading zero omitted, Abs format (unit mm)*
G04 Created by KiCad (PCBNEW (5.1.12)-1) date 2024-07-10 23:31:02*
%MOMM*%
%LPD*%
G01*
G04 APERTURE LIST*
%ADD10C,0.120000*%
%ADD11C,0.150000*%
G04 APERTURE END LIST*
D10*
X146545563Y-107390000D02*
G75*
G03*
X146545563Y-107390000I-155563J0D01*
G01*
%TO.C,R6*%
X141620000Y-114143641D02*
X141620000Y-113836359D01*
X142380000Y-114143641D02*
X142380000Y-113836359D01*
%TO.C,R5*%
X149586359Y-116120000D02*
X149893641Y-116120000D01*
X149586359Y-116880000D02*
X149893641Y-116880000D01*
%TO.C,C1*%
X144140000Y-111107836D02*
X144140000Y-110892164D01*
X144860000Y-111107836D02*
X144860000Y-110892164D01*
%TO.C,C2*%
X155640000Y-113392164D02*
X155640000Y-113607836D01*
X156360000Y-113392164D02*
X156360000Y-113607836D01*
%TO.C,C4*%
X151857836Y-116140000D02*
X151642164Y-116140000D01*
X151857836Y-116860000D02*
X151642164Y-116860000D01*
%TO.C,C5*%
X147857836Y-116860000D02*
X147642164Y-116860000D01*
X147857836Y-116140000D02*
X147642164Y-116140000D01*
%TO.C,C6*%
X142360000Y-111107836D02*
X142360000Y-110892164D01*
X141640000Y-111107836D02*
X141640000Y-110892164D01*
%TO.C,J1*%
X145420000Y-72715000D02*
X154580000Y-72715000D01*
X154580000Y-72715000D02*
X154580000Y-74420000D01*
X145420000Y-74420000D02*
X145420000Y-72715000D01*
X145420000Y-76430000D02*
X145420000Y-78350000D01*
X154580000Y-78350000D02*
X154580000Y-76430000D01*
%TO.C,R3*%
X144643641Y-107880000D02*
X144336359Y-107880000D01*
X144643641Y-107120000D02*
X144336359Y-107120000D01*
%TO.C,R4*%
X141653641Y-107120000D02*
X141346359Y-107120000D01*
X141653641Y-107880000D02*
X141346359Y-107880000D01*
%TO.C,SW1*%
X132475000Y-87095000D02*
X146445000Y-87095000D01*
X146445000Y-87095000D02*
X146445000Y-101065000D01*
X146445000Y-101065000D02*
X132475000Y-101065000D01*
X132475000Y-101065000D02*
X132475000Y-87095000D01*
%TO.C,SW2*%
X153475000Y-101085000D02*
X153475000Y-87115000D01*
X167445000Y-101085000D02*
X153475000Y-101085000D01*
X167445000Y-87115000D02*
X167445000Y-101085000D01*
X153475000Y-87115000D02*
X167445000Y-87115000D01*
%TO.C,U1*%
X147115000Y-107390000D02*
X146390000Y-107390000D01*
X153610000Y-114610000D02*
X153610000Y-113885000D01*
X152885000Y-114610000D02*
X153610000Y-114610000D01*
X146390000Y-114610000D02*
X146390000Y-113885000D01*
X147115000Y-114610000D02*
X146390000Y-114610000D01*
X153610000Y-107390000D02*
X153610000Y-108115000D01*
X152885000Y-107390000D02*
X153610000Y-107390000D01*
%TO.C,R6*%
D11*
X141282380Y-114156666D02*
X140806190Y-114490000D01*
X141282380Y-114728095D02*
X140282380Y-114728095D01*
X140282380Y-114347142D01*
X140330000Y-114251904D01*
X140377619Y-114204285D01*
X140472857Y-114156666D01*
X140615714Y-114156666D01*
X140710952Y-114204285D01*
X140758571Y-114251904D01*
X140806190Y-114347142D01*
X140806190Y-114728095D01*
X140282380Y-113299523D02*
X140282380Y-113490000D01*
X140330000Y-113585238D01*
X140377619Y-113632857D01*
X140520476Y-113728095D01*
X140710952Y-113775714D01*
X141091904Y-113775714D01*
X141187142Y-113728095D01*
X141234761Y-113680476D01*
X141282380Y-113585238D01*
X141282380Y-113394761D01*
X141234761Y-113299523D01*
X141187142Y-113251904D01*
X141091904Y-113204285D01*
X140853809Y-113204285D01*
X140758571Y-113251904D01*
X140710952Y-113299523D01*
X140663333Y-113394761D01*
X140663333Y-113585238D01*
X140710952Y-113680476D01*
X140758571Y-113728095D01*
X140853809Y-113775714D01*
%TO.C,R5*%
X149583333Y-118102380D02*
X149250000Y-117626190D01*
X149011904Y-118102380D02*
X149011904Y-117102380D01*
X149392857Y-117102380D01*
X149488095Y-117150000D01*
X149535714Y-117197619D01*
X149583333Y-117292857D01*
X149583333Y-117435714D01*
X149535714Y-117530952D01*
X149488095Y-117578571D01*
X149392857Y-117626190D01*
X149011904Y-117626190D01*
X150488095Y-117102380D02*
X150011904Y-117102380D01*
X149964285Y-117578571D01*
X150011904Y-117530952D01*
X150107142Y-117483333D01*
X150345238Y-117483333D01*
X150440476Y-117530952D01*
X150488095Y-117578571D01*
X150535714Y-117673809D01*
X150535714Y-117911904D01*
X150488095Y-118007142D01*
X150440476Y-118054761D01*
X150345238Y-118102380D01*
X150107142Y-118102380D01*
X150011904Y-118054761D01*
X149964285Y-118007142D01*
%TO.C,C1*%
X143697142Y-111166666D02*
X143744761Y-111214285D01*
X143792380Y-111357142D01*
X143792380Y-111452380D01*
X143744761Y-111595238D01*
X143649523Y-111690476D01*
X143554285Y-111738095D01*
X143363809Y-111785714D01*
X143220952Y-111785714D01*
X143030476Y-111738095D01*
X142935238Y-111690476D01*
X142840000Y-111595238D01*
X142792380Y-111452380D01*
X142792380Y-111357142D01*
X142840000Y-111214285D01*
X142887619Y-111166666D01*
X143792380Y-110214285D02*
X143792380Y-110785714D01*
X143792380Y-110500000D02*
X142792380Y-110500000D01*
X142935238Y-110595238D01*
X143030476Y-110690476D01*
X143078095Y-110785714D01*
%TO.C,C2*%
X157517142Y-113666666D02*
X157564761Y-113714285D01*
X157612380Y-113857142D01*
X157612380Y-113952380D01*
X157564761Y-114095238D01*
X157469523Y-114190476D01*
X157374285Y-114238095D01*
X157183809Y-114285714D01*
X157040952Y-114285714D01*
X156850476Y-114238095D01*
X156755238Y-114190476D01*
X156660000Y-114095238D01*
X156612380Y-113952380D01*
X156612380Y-113857142D01*
X156660000Y-113714285D01*
X156707619Y-113666666D01*
X156707619Y-113285714D02*
X156660000Y-113238095D01*
X156612380Y-113142857D01*
X156612380Y-112904761D01*
X156660000Y-112809523D01*
X156707619Y-112761904D01*
X156802857Y-112714285D01*
X156898095Y-112714285D01*
X157040952Y-112761904D01*
X157612380Y-113333333D01*
X157612380Y-112714285D01*
%TO.C,C4*%
X151583333Y-118017142D02*
X151535714Y-118064761D01*
X151392857Y-118112380D01*
X151297619Y-118112380D01*
X151154761Y-118064761D01*
X151059523Y-117969523D01*
X151011904Y-117874285D01*
X150964285Y-117683809D01*
X150964285Y-117540952D01*
X151011904Y-117350476D01*
X151059523Y-117255238D01*
X151154761Y-117160000D01*
X151297619Y-117112380D01*
X151392857Y-117112380D01*
X151535714Y-117160000D01*
X151583333Y-117207619D01*
X152440476Y-117445714D02*
X152440476Y-118112380D01*
X152202380Y-117064761D02*
X151964285Y-117779047D01*
X152583333Y-117779047D01*
%TO.C,C5*%
X147583333Y-118017142D02*
X147535714Y-118064761D01*
X147392857Y-118112380D01*
X147297619Y-118112380D01*
X147154761Y-118064761D01*
X147059523Y-117969523D01*
X147011904Y-117874285D01*
X146964285Y-117683809D01*
X146964285Y-117540952D01*
X147011904Y-117350476D01*
X147059523Y-117255238D01*
X147154761Y-117160000D01*
X147297619Y-117112380D01*
X147392857Y-117112380D01*
X147535714Y-117160000D01*
X147583333Y-117207619D01*
X148488095Y-117112380D02*
X148011904Y-117112380D01*
X147964285Y-117588571D01*
X148011904Y-117540952D01*
X148107142Y-117493333D01*
X148345238Y-117493333D01*
X148440476Y-117540952D01*
X148488095Y-117588571D01*
X148535714Y-117683809D01*
X148535714Y-117921904D01*
X148488095Y-118017142D01*
X148440476Y-118064761D01*
X148345238Y-118112380D01*
X148107142Y-118112380D01*
X148011904Y-118064761D01*
X147964285Y-118017142D01*
%TO.C,C6*%
X141197142Y-111166666D02*
X141244761Y-111214285D01*
X141292380Y-111357142D01*
X141292380Y-111452380D01*
X141244761Y-111595238D01*
X141149523Y-111690476D01*
X141054285Y-111738095D01*
X140863809Y-111785714D01*
X140720952Y-111785714D01*
X140530476Y-111738095D01*
X140435238Y-111690476D01*
X140340000Y-111595238D01*
X140292380Y-111452380D01*
X140292380Y-111357142D01*
X140340000Y-111214285D01*
X140387619Y-111166666D01*
X140292380Y-110309523D02*
X140292380Y-110500000D01*
X140340000Y-110595238D01*
X140387619Y-110642857D01*
X140530476Y-110738095D01*
X140720952Y-110785714D01*
X141101904Y-110785714D01*
X141197142Y-110738095D01*
X141244761Y-110690476D01*
X141292380Y-110595238D01*
X141292380Y-110404761D01*
X141244761Y-110309523D01*
X141197142Y-110261904D01*
X141101904Y-110214285D01*
X140863809Y-110214285D01*
X140768571Y-110261904D01*
X140720952Y-110309523D01*
X140673333Y-110404761D01*
X140673333Y-110595238D01*
X140720952Y-110690476D01*
X140768571Y-110738095D01*
X140863809Y-110785714D01*
%TO.C,J1*%
X149666666Y-81667380D02*
X149666666Y-82381666D01*
X149619047Y-82524523D01*
X149523809Y-82619761D01*
X149380952Y-82667380D01*
X149285714Y-82667380D01*
X150666666Y-82667380D02*
X150095238Y-82667380D01*
X150380952Y-82667380D02*
X150380952Y-81667380D01*
X150285714Y-81810238D01*
X150190476Y-81905476D01*
X150095238Y-81953095D01*
%TO.C,R3*%
X144323333Y-109122380D02*
X143990000Y-108646190D01*
X143751904Y-109122380D02*
X143751904Y-108122380D01*
X144132857Y-108122380D01*
X144228095Y-108170000D01*
X144275714Y-108217619D01*
X144323333Y-108312857D01*
X144323333Y-108455714D01*
X144275714Y-108550952D01*
X144228095Y-108598571D01*
X144132857Y-108646190D01*
X143751904Y-108646190D01*
X144656666Y-108122380D02*
X145275714Y-108122380D01*
X144942380Y-108503333D01*
X145085238Y-108503333D01*
X145180476Y-108550952D01*
X145228095Y-108598571D01*
X145275714Y-108693809D01*
X145275714Y-108931904D01*
X145228095Y-109027142D01*
X145180476Y-109074761D01*
X145085238Y-109122380D01*
X144799523Y-109122380D01*
X144704285Y-109074761D01*
X144656666Y-109027142D01*
%TO.C,R4*%
X141333333Y-109122380D02*
X141000000Y-108646190D01*
X140761904Y-109122380D02*
X140761904Y-108122380D01*
X141142857Y-108122380D01*
X141238095Y-108170000D01*
X141285714Y-108217619D01*
X141333333Y-108312857D01*
X141333333Y-108455714D01*
X141285714Y-108550952D01*
X141238095Y-108598571D01*
X141142857Y-108646190D01*
X140761904Y-108646190D01*
X142190476Y-108455714D02*
X142190476Y-109122380D01*
X141952380Y-108074761D02*
X141714285Y-108789047D01*
X142333333Y-108789047D01*
%TO.C,SW1*%
X138126666Y-86610761D02*
X138269523Y-86658380D01*
X138507619Y-86658380D01*
X138602857Y-86610761D01*
X138650476Y-86563142D01*
X138698095Y-86467904D01*
X138698095Y-86372666D01*
X138650476Y-86277428D01*
X138602857Y-86229809D01*
X138507619Y-86182190D01*
X138317142Y-86134571D01*
X138221904Y-86086952D01*
X138174285Y-86039333D01*
X138126666Y-85944095D01*
X138126666Y-85848857D01*
X138174285Y-85753619D01*
X138221904Y-85706000D01*
X138317142Y-85658380D01*
X138555238Y-85658380D01*
X138698095Y-85706000D01*
X139031428Y-85658380D02*
X139269523Y-86658380D01*
X139460000Y-85944095D01*
X139650476Y-86658380D01*
X139888571Y-85658380D01*
X140793333Y-86658380D02*
X140221904Y-86658380D01*
X140507619Y-86658380D02*
X140507619Y-85658380D01*
X140412380Y-85801238D01*
X140317142Y-85896476D01*
X140221904Y-85944095D01*
%TO.C,SW2*%
X159126666Y-86630761D02*
X159269523Y-86678380D01*
X159507619Y-86678380D01*
X159602857Y-86630761D01*
X159650476Y-86583142D01*
X159698095Y-86487904D01*
X159698095Y-86392666D01*
X159650476Y-86297428D01*
X159602857Y-86249809D01*
X159507619Y-86202190D01*
X159317142Y-86154571D01*
X159221904Y-86106952D01*
X159174285Y-86059333D01*
X159126666Y-85964095D01*
X159126666Y-85868857D01*
X159174285Y-85773619D01*
X159221904Y-85726000D01*
X159317142Y-85678380D01*
X159555238Y-85678380D01*
X159698095Y-85726000D01*
X160031428Y-85678380D02*
X160269523Y-86678380D01*
X160460000Y-85964095D01*
X160650476Y-86678380D01*
X160888571Y-85678380D01*
X161221904Y-85773619D02*
X161269523Y-85726000D01*
X161364761Y-85678380D01*
X161602857Y-85678380D01*
X161698095Y-85726000D01*
X161745714Y-85773619D01*
X161793333Y-85868857D01*
X161793333Y-85964095D01*
X161745714Y-86106952D01*
X161174285Y-86678380D01*
X161793333Y-86678380D01*
%TO.C,U1*%
X149238095Y-105632380D02*
X149238095Y-106441904D01*
X149285714Y-106537142D01*
X149333333Y-106584761D01*
X149428571Y-106632380D01*
X149619047Y-106632380D01*
X149714285Y-106584761D01*
X149761904Y-106537142D01*
X149809523Y-106441904D01*
X149809523Y-105632380D01*
X150809523Y-106632380D02*
X150238095Y-106632380D01*
X150523809Y-106632380D02*
X150523809Y-105632380D01*
X150428571Y-105775238D01*
X150333333Y-105870476D01*
X150238095Y-105918095D01*
%TD*%
M02*
